<svg width="112" height="77" viewBox="0 0 112 77" fill="none" xmlns="http://www.w3.org/2000/svg">
<g clip-path="url(#clip0_2741_12669)">
<rect width="112" height="77" fill="#9BC1EC"/>
<g filter="url(#filter0_i_2741_12669)">
<circle cx="43" cy="47" r="38" fill="#FCFDFE"/>
</g>
<circle opacity="0.5" cx="43.0002" cy="47.0002" r="25.3333" fill="#EDF5FF" stroke="#1E7BDE" stroke-width="1.01333"/>
<path d="M104.001 15.6068L107.156 13.3897" stroke="#FCFDFE" stroke-width="5.14162" stroke-linecap="round"/>
<circle cx="94.1314" cy="22.1304" r="13.4968" transform="rotate(-35.0945 94.1314 22.1304)" fill="#FCFDFE"/>
<circle cx="94.2426" cy="22.291" r="11.5686" transform="rotate(-35.0945 94.2426 22.291)" fill="#77D3E5"/>
<path d="M92.3332 12.6099C92.3332 12.6099 92.3332 12.6099 92.3332 12.6099C91.923 12.6613 91.5113 12.7587 91.107 12.8794C87.9021 13.8067 84.9078 16.6512 84.4602 20.568C84.3825 21.2441 84.3787 21.9258 84.4482 22.6027C84.7768 26.4858 87.6546 29.9158 91.0059 30.8929C91.4011 31.016 91.802 31.1136 92.1995 31.1592C91.9602 30.8424 91.7507 30.5111 91.5533 30.1808C89.8957 27.3355 89.4621 24.747 89.4926 22.3055C89.4992 21.914 89.5246 21.5354 89.5683 21.1544C89.8024 19.0586 90.4759 16.6178 91.7979 13.6974C91.9647 13.3375 92.1385 12.9716 92.3332 12.6099Z" fill="url(#paint0_linear_2741_12669)"/>
<circle cx="42.6584" cy="46.659" r="31.7193" transform="rotate(-35.0945 42.6584 46.659)" fill="#E0BC6E"/>
<path d="M37.4231 20.1153C37.4231 20.1153 37.4231 20.1153 37.4231 20.1153C36.2982 20.2561 35.1693 20.5233 34.061 20.8543C25.2737 23.3966 17.0639 31.196 15.8365 41.935C15.6235 43.7888 15.6131 45.658 15.8036 47.514C16.7046 58.1607 24.595 67.5652 33.7838 70.2443C34.8672 70.5817 35.9666 70.8494 37.0565 70.9742C37.0565 70.9742 37.0565 70.9742 37.0565 70.9742C36.4003 70.1058 35.8258 69.1974 35.2847 68.2917C30.7397 60.4904 29.5509 53.3931 29.6344 46.699C29.6525 45.6257 29.7224 44.5874 29.842 43.543C30.484 37.7966 32.3306 31.1043 35.9551 23.0971C36.4125 22.1101 36.8892 21.1069 37.4231 20.1153Z" fill="url(#paint1_linear_2741_12669)"/>
<circle cx="56.5" cy="-1.5" r="25.5" fill="#1E7BDE"/>
<path d="M59.2174 14.6985C59.5767 14.6985 59.9185 14.6673 60.2428 14.6048C60.567 14.5384 60.8424 14.4681 61.0689 14.3939C61.1236 14.3743 61.1685 14.3607 61.2037 14.3528C61.2428 14.345 61.2818 14.3411 61.3209 14.3411C61.4029 14.3411 61.4791 14.3743 61.5494 14.4407C61.6236 14.5071 61.6607 14.595 61.6607 14.7044C61.6607 14.7318 61.6549 14.7786 61.6431 14.845C61.6353 14.9075 61.6197 14.9739 61.5963 15.0443C61.3463 15.6771 60.9576 16.2532 60.4303 16.7728C59.9068 17.2884 59.2818 17.7005 58.5553 18.0091C57.8326 18.3177 57.0513 18.472 56.2115 18.472C55.3756 18.472 54.5904 18.3138 53.856 17.9974C53.1256 17.6849 52.483 17.2513 51.9283 16.6966C51.3736 16.1419 50.9381 15.4993 50.6217 14.7689C50.3092 14.0345 50.1529 13.2493 50.1529 12.4134C50.1529 11.6204 50.3033 10.8587 50.6041 10.1282C50.9088 9.39386 51.3306 8.74542 51.8697 8.18292C52.4127 7.61652 53.0435 7.18878 53.7623 6.89972C53.8287 6.87238 53.8931 6.8548 53.9556 6.84698C54.0221 6.83917 54.0709 6.83527 54.1021 6.83527C54.2193 6.83527 54.3072 6.87042 54.3658 6.94073C54.4244 7.01105 54.4537 7.08527 54.4537 7.16339C54.4537 7.19073 54.4498 7.22784 54.442 7.27472C54.4342 7.31769 54.4166 7.37238 54.3892 7.43878C54.3189 7.59894 54.2564 7.79816 54.2017 8.03644C54.1471 8.27081 54.1021 8.51886 54.067 8.78058C54.0357 9.0423 54.0201 9.29425 54.0201 9.53644C54.0201 10.3333 54.1412 11.0501 54.3834 11.6868C54.6256 12.3196 54.9732 12.8607 55.4263 13.3099C55.8834 13.7591 56.4303 14.1028 57.067 14.3411C57.7076 14.5794 58.4244 14.6985 59.2174 14.6985Z" fill="#FCFDFE"/>
</g>
<defs>
<filter id="filter0_i_2741_12669" x="5" y="9" width="76" height="76" filterUnits="userSpaceOnUse" color-interpolation-filters="sRGB">
<feFlood flood-opacity="0" result="BackgroundImageFix"/>
<feBlend mode="normal" in="SourceGraphic" in2="BackgroundImageFix" result="shape"/>
<feColorMatrix in="SourceAlpha" type="matrix" values="0 0 0 0 0 0 0 0 0 0 0 0 0 0 0 0 0 0 127 0" result="hardAlpha"/>
<feOffset/>
<feGaussianBlur stdDeviation="2.02667"/>
<feComposite in2="hardAlpha" operator="arithmetic" k2="-1" k3="1"/>
<feColorMatrix type="matrix" values="0 0 0 0 0.905882 0 0 0 0 0.933333 0 0 0 0 0.968627 0 0 0 1 0"/>
<feBlend mode="normal" in2="shape" result="effect1_innerShadow_2741_12669"/>
</filter>
<linearGradient id="paint0_linear_2741_12669" x1="83.8535" y1="21.2786" x2="97.8789" y2="21.8467" gradientUnits="userSpaceOnUse">
<stop stop-color="#A9E9F5"/>
<stop offset="1" stop-color="#A9E9F5" stop-opacity="0"/>
</linearGradient>
<linearGradient id="paint1_linear_2741_12669" x1="14.1731" y1="43.8834" x2="52.6282" y2="45.4409" gradientUnits="userSpaceOnUse">
<stop stop-color="#F4D593"/>
<stop offset="1" stop-color="#F4D593" stop-opacity="0"/>
</linearGradient>
<clipPath id="clip0_2741_12669">
<rect width="112" height="77" fill="white"/>
</clipPath>
</defs>
</svg>
