<svg width="112" height="77" viewBox="0 0 112 77" fill="none" xmlns="http://www.w3.org/2000/svg">
<g clip-path="url(#clip0_2812_12282)">
<rect width="112" height="77" fill="#9BC1EC"/>
<path d="M25 46.1893V86.3119H87V46.1893C87 46.1893 87 38.622 80.6139 32.7317C74.2279 26.8413 68.4449 27.067 68.4449 27.067V18.6473C68.4449 18.6473 62.6549 21.2071 57.4349 21.2719C52.2149 21.3367 47.0043 18.6473 47.0043 18.6473V27.067C47.0043 27.067 37.7326 27.3736 31.3584 32.7317C24.9842 38.0897 25 46.1893 25 46.1893Z" fill="#C4D9F0"/>
<path d="M26.7227 88.4911V45.6701C26.7227 45.6701 34.6689 44.9996 41.8003 45.6701C48.9318 46.3407 61.2497 39.3956 68.3812 39.8351C75.5126 40.2746 85.2498 45.6701 85.2498 45.6701V88.4911H26.7227Z" fill="#1E7BDE"/>
<g style="mix-blend-mode:color-burn">
<path d="M35.4146 71.1071C35.4146 71.1071 48.8216 74.0045 56.8552 74.0045C64.8888 74.0045 76.5574 71.1071 76.5574 71.1071" stroke="#ACC3DD" stroke-width="1.15895"/>
</g>
<g style="mix-blend-mode:color-burn">
<path d="M35.4146 57.1992C35.4146 57.1992 48.8216 60.0965 56.8552 60.0965C64.8888 60.0965 76.5574 57.1992 76.5574 57.1992" stroke="#ACC3DD" stroke-width="1.15895"/>
</g>
<g style="mix-blend-mode:color-burn">
<path d="M35.4146 43.2921C35.4146 43.2921 48.8216 46.1895 56.8552 46.1895C64.8888 46.1895 76.5574 43.2921 76.5574 43.2921" stroke="#ACC3DD" stroke-width="1.15895"/>
</g>
<mask id="mask0_2812_12282" style="mask-type:alpha" maskUnits="userSpaceOnUse" x="45" y="12" width="25" height="12">
<path d="M45.8447 21.2724V14.3186C45.8447 14.3186 53.1762 11.9564 58.0137 12.0007C62.6292 12.0431 69.6033 14.3186 69.6033 14.3186V21.2724C69.6033 21.2724 62.5903 22.9788 58.0137 23.0108C53.2133 23.0444 45.8447 21.2724 45.8447 21.2724Z" fill="#3188E4"/>
</mask>
<g mask="url(#mask0_2812_12282)">
<path d="M45.8447 21.2724V14.3186C45.8447 14.3186 53.1762 11.9564 58.0137 12.0007C62.6292 12.0431 69.6033 14.3186 69.6033 14.3186V21.2724C69.6033 21.2724 62.5903 22.9788 58.0137 23.0108C53.2133 23.0444 45.8447 21.2724 45.8447 21.2724Z" fill="#3188E4"/>
<path d="M58.0137 12.0016C53.3983 11.9593 45.8447 14.3195 45.8447 14.3195C45.8447 14.3195 53.3983 16.6798 58.0137 16.6374C62.6292 16.5951 69.6033 14.3195 69.6033 14.3195C69.6033 14.3195 62.6292 12.0439 58.0137 12.0016Z" fill="#0068D7"/>
<path d="M47.5835 16.0573V20.1137" stroke="#0068D7" stroke-width="1.15895" stroke-linecap="round"/>
<path d="M68.4443 16.0573V20.1137" stroke="#0068D7" stroke-width="1.15895" stroke-linecap="round"/>
<path d="M51.0605 17.2163V21.2726" stroke="#0068D7" stroke-width="1.15895" stroke-linecap="round"/>
<path d="M64.9673 17.2163V21.2726" stroke="#0068D7" stroke-width="1.15895" stroke-linecap="round"/>
<path d="M54.5376 18.3753V21.8522" stroke="#0068D7" stroke-width="1.15895" stroke-linecap="round"/>
<path d="M61.4907 18.3753V21.8522" stroke="#0068D7" stroke-width="1.15895" stroke-linecap="round"/>
<path d="M58.0137 18.3753V21.8522" stroke="#0068D7" stroke-width="1.15895" stroke-linecap="round"/>
</g>
</g>
<defs>
<clipPath id="clip0_2812_12282">
<rect width="112" height="77" fill="white"/>
</clipPath>
</defs>
</svg>
