<svg width="109" height="31" viewBox="0 0 109 31" fill="none" xmlns="http://www.w3.org/2000/svg">
<path d="M12.6448 3.57404C15.0141 3.15772 17.4544 3.49517 19.6219 4.53882C21.7893 5.58246 23.5748 7.27973 24.7268 9.39159C25.8788 11.5035 26.3393 13.9235 26.0434 16.3109C25.7475 18.6982 24.7102 20.9326 23.0775 22.6994C21.4448 24.4661 19.2991 25.6762 16.9424 26.1592C14.5857 26.6421 12.137 26.3736 9.94095 25.3915C7.74492 24.4094 5.91232 22.7632 4.70122 20.6847C3.49012 18.6061 2.9615 16.2 3.18993 13.8052C3.18993 13.8052 3.36053 12.5639 4.49434 12.7176C5.62815 12.8713 5.47881 14.0236 5.47881 14.0236C5.29606 15.9394 5.7189 17.8642 6.68778 19.5271C7.65665 21.1899 9.12275 22.5069 10.8796 23.2926C12.6364 24.0783 14.5954 24.2931 16.4807 23.9067C18.3661 23.5203 20.0827 22.5523 21.3888 21.1389C22.695 19.7255 23.5249 17.9379 23.7616 16.0281C23.9983 14.1182 23.6298 12.1821 22.7082 10.4926C21.7866 8.80314 20.3583 7.44532 18.6243 6.6104C16.8903 5.77549 14.9382 5.50557 13.0427 5.83862C13.0427 5.83862 11.7605 5.99523 11.5705 4.9338C11.3805 3.87237 12.6448 3.57404 12.6448 3.57404Z" fill="#11B8AD"/>
<path d="M15.0716 22.2208C13.5477 22.3045 12.036 21.908 10.7493 21.0873C9.46266 20.2666 8.46586 19.0629 7.89933 17.6458C7.33279 16.2288 7.22507 14.6696 7.59133 13.1881C7.95758 11.7066 8.77937 10.3772 9.94094 9.38737C11.1025 8.39749 12.5453 7.79693 14.0662 7.67028C15.5871 7.54363 17.1094 7.89726 18.4187 8.68137C19.728 9.46548 20.7583 10.6406 21.3646 12.0411C21.9709 13.4417 22.1225 14.9971 21.7982 16.4884C21.7982 16.4884 21.5539 17.127 20.7701 16.9635C19.9864 16.8 20.0165 16.1009 20.0165 16.1009C20.2598 14.9824 20.146 13.8159 19.6913 12.7654C19.2366 11.715 18.4639 10.8337 17.4819 10.2456C16.4999 9.65755 15.3582 9.39233 14.2175 9.48732C13.0769 9.58231 11.9948 10.0327 11.1236 10.7751C10.2524 11.5175 9.63606 12.5145 9.36137 13.6257C9.08667 14.7368 9.16747 15.9062 9.59237 16.969C10.0173 18.0318 10.7649 18.9346 11.7299 19.5501C12.6949 20.1656 13.8287 20.463 14.9715 20.4002C14.9715 20.4002 15.8985 20.3247 15.9937 21.2092C16.0889 22.0937 15.0716 22.2208 15.0716 22.2208Z" fill="#4D9AEC"/>
<circle cx="10.2417" cy="10.2934" r="2.94673" fill="#4D9AEC"/>
<circle cx="20.9433" cy="22.2352" r="3.41201" fill="#11B8AD"/>
<path d="M38.4662 22.6087C37.274 22.6087 36.2042 22.3148 35.257 21.7268C34.3097 21.1225 33.5584 20.3141 33.0031 19.3015C32.4642 18.2725 32.1947 17.1129 32.1947 15.8227C32.1947 14.5325 32.4887 13.3729 33.0766 12.3439C33.6809 11.315 34.4894 10.5066 35.5019 9.91861C36.5309 9.31432 37.6823 9.01218 38.9562 9.01218C40.2301 9.01218 41.3734 9.31432 42.386 9.91861C43.3986 10.5066 44.1988 11.315 44.7868 12.3439C45.3911 13.3729 45.6932 14.5325 45.6932 15.8227H44.7378C44.7378 17.1129 44.4602 18.2725 43.9049 19.3015C43.3659 20.3141 42.6228 21.1225 41.6755 21.7268C40.7283 22.3148 39.6585 22.6087 38.4662 22.6087ZM38.9562 20.4039C39.7892 20.4039 40.5323 20.2079 41.1856 19.8159C41.8388 19.4076 42.3533 18.8605 42.7289 18.1745C43.1046 17.4723 43.2924 16.6883 43.2924 15.8227C43.2924 14.9408 43.1046 14.1568 42.7289 13.4709C42.3533 12.7686 41.8388 12.2215 41.1856 11.8295C40.5323 11.4212 39.7892 11.217 38.9562 11.217C38.1396 11.217 37.3965 11.4212 36.7269 11.8295C36.0736 12.2215 35.5509 12.7686 35.159 13.4709C34.7833 14.1568 34.5955 14.9408 34.5955 15.8227C34.5955 16.6883 34.7833 17.4723 35.159 18.1745C35.5509 18.8605 36.0736 19.4076 36.7269 19.8159C37.3965 20.2079 38.1396 20.4039 38.9562 20.4039ZM44.4438 22.5352C44.0845 22.5352 43.7824 22.4209 43.5374 22.1923C43.3087 21.9473 43.1944 21.6451 43.1944 21.2858V17.5376L43.6599 14.9408L45.6932 15.8227V21.2858C45.6932 21.6451 45.5708 21.9473 45.3258 22.1923C45.0971 22.4209 44.8031 22.5352 44.4438 22.5352ZM52.597 22.5107C51.8784 22.5107 51.2414 22.3148 50.6861 21.9228C50.1308 21.5308 49.698 21 49.3877 20.3304C49.0774 19.6444 48.9222 18.8605 48.9222 17.9786V4.60248C48.9222 4.24317 49.0366 3.94919 49.2652 3.72054C49.4939 3.49189 49.7878 3.37756 50.1472 3.37756C50.5065 3.37756 50.8004 3.49189 51.0291 3.72054C51.2577 3.94919 51.3721 4.24317 51.3721 4.60248V17.9786C51.3721 18.5828 51.4864 19.081 51.715 19.473C51.9437 19.8649 52.2377 20.0609 52.597 20.0609H53.2094C53.5361 20.0609 53.7974 20.1752 53.9934 20.4039C54.2057 20.6325 54.3119 20.9265 54.3119 21.2858C54.3119 21.6451 54.1567 21.9391 53.8464 22.1678C53.5361 22.3964 53.1359 22.5107 52.646 22.5107H52.597ZM61.6321 22.5107C60.8155 22.5107 60.0805 22.3066 59.4272 21.8983C58.7739 21.4736 58.2595 20.902 57.8838 20.1834C57.5082 19.4648 57.3204 18.6563 57.3204 17.7581V6.07238C57.3204 5.71307 57.4347 5.41909 57.6633 5.19044C57.892 4.96179 58.186 4.84746 58.5453 4.84746C58.9046 4.84746 59.1986 4.96179 59.4272 5.19044C59.6559 5.41909 59.7702 5.71307 59.7702 6.07238V17.7581C59.7702 18.4114 59.9499 18.9585 60.3092 19.3995C60.6685 19.8404 61.1094 20.0609 61.6321 20.0609H62.465C62.759 20.0609 63.004 20.1752 63.2 20.4039C63.4123 20.6325 63.5184 20.9265 63.5184 21.2858C63.5184 21.6451 63.3796 21.9391 63.102 22.1678C62.8407 22.3964 62.4977 22.5107 62.073 22.5107H61.6321ZM56.1934 11.707C55.8505 11.707 55.5728 11.609 55.3605 11.413C55.1482 11.217 55.042 10.972 55.042 10.6781C55.042 10.3514 55.1482 10.0901 55.3605 9.89411C55.5728 9.69813 55.8505 9.60013 56.1934 9.60013H61.8526C62.1955 9.60013 62.4732 9.69813 62.6855 9.89411C62.8978 10.0901 63.004 10.3514 63.004 10.6781C63.004 10.972 62.8978 11.217 62.6855 11.413C62.4732 11.609 62.1955 11.707 61.8526 11.707H56.1934ZM67.7901 14.1323C67.7901 13.1524 68.027 12.2786 68.5006 11.511C68.9906 10.7271 69.6438 10.1064 70.4605 9.64913C71.2771 9.19183 72.1753 8.96318 73.1553 8.96318C74.1352 8.96318 74.862 9.1265 75.3356 9.45314C75.8256 9.76346 76.0134 10.1391 75.8991 10.5801C75.8501 10.8087 75.7521 10.9884 75.6051 11.119C75.4744 11.2334 75.3193 11.3068 75.1396 11.3395C74.96 11.3722 74.764 11.364 74.5517 11.315C73.5064 11.1027 72.5673 11.0864 71.7344 11.266C70.9014 11.4457 70.24 11.7805 69.75 12.2704C69.2764 12.7604 69.0396 13.381 69.0396 14.1323H67.7901ZM67.8146 22.5107C67.4227 22.5107 67.1205 22.4127 66.9082 22.2168C66.6959 22.0044 66.5897 21.6941 66.5897 21.2858V10.3351C66.5897 9.94311 66.6959 9.64096 66.9082 9.42865C67.1205 9.21633 67.4227 9.11017 67.8146 9.11017C68.2229 9.11017 68.5251 9.21633 68.7211 9.42865C68.9334 9.62463 69.0396 9.92678 69.0396 10.3351V21.2858C69.0396 21.6778 68.9334 21.9799 68.7211 22.1923C68.5251 22.4046 68.2229 22.5107 67.8146 22.5107ZM83.5986 22.6087C82.2757 22.6087 81.108 22.3229 80.0954 21.7513C79.0828 21.1633 78.2825 20.3631 77.6945 19.3505C77.1229 18.3215 76.8371 17.1456 76.8371 15.8227C76.8371 14.4835 77.1229 13.3075 77.6945 12.2949C78.2825 11.266 79.0828 10.4657 80.0954 9.89411C81.108 9.30615 82.2757 9.01218 83.5986 9.01218C84.9052 9.01218 86.0648 9.30615 87.0774 9.89411C88.09 10.4657 88.8821 11.266 89.4537 12.2949C90.0417 13.3075 90.3357 14.4835 90.3357 15.8227C90.3357 17.1456 90.0499 18.3215 89.4782 19.3505C88.9066 20.3631 88.1145 21.1633 87.1019 21.7513C86.0893 22.3229 84.9215 22.6087 83.5986 22.6087ZM83.5986 20.4039C84.4479 20.4039 85.1992 20.2079 85.8525 19.8159C86.5058 19.424 87.0121 18.885 87.3714 18.199C87.747 17.5131 87.9348 16.721 87.9348 15.8227C87.9348 14.9244 87.747 14.1323 87.3714 13.4464C87.0121 12.7441 86.5058 12.197 85.8525 11.805C85.1992 11.413 84.4479 11.217 83.5986 11.217C82.7494 11.217 81.9981 11.413 81.3448 11.805C80.6915 12.197 80.177 12.7441 79.8014 13.4464C79.4258 14.1323 79.2379 14.9244 79.2379 15.8227C79.2379 16.721 79.4258 17.5131 79.8014 18.199C80.177 18.885 80.6915 19.424 81.3448 19.8159C81.9981 20.2079 82.7494 20.4039 83.5986 20.4039ZM100.13 22.6087C98.8073 22.6087 97.6395 22.3229 96.6269 21.7513C95.6143 21.1633 94.8141 20.3631 94.2261 19.3505C93.6545 18.3215 93.3687 17.1456 93.3687 15.8227C93.3687 14.4835 93.6545 13.3075 94.2261 12.2949C94.8141 11.266 95.6143 10.4657 96.6269 9.89411C97.6395 9.30615 98.8073 9.01218 100.13 9.01218C101.437 9.01218 102.596 9.30615 103.609 9.89411C104.622 10.4657 105.414 11.266 105.985 12.2949C106.573 13.3075 106.867 14.4835 106.867 15.8227C106.867 17.1456 106.581 18.3215 106.01 19.3505C105.438 20.3631 104.646 21.1633 103.633 21.7513C102.621 22.3229 101.453 22.6087 100.13 22.6087ZM100.13 20.4039C100.979 20.4039 101.731 20.2079 102.384 19.8159C103.037 19.424 103.544 18.885 103.903 18.199C104.279 17.5131 104.466 16.721 104.466 15.8227C104.466 14.9244 104.279 14.1323 103.903 13.4464C103.544 12.7441 103.037 12.197 102.384 11.805C101.731 11.413 100.979 11.217 100.13 11.217C99.2809 11.217 98.5296 11.413 97.8764 11.805C97.2231 12.197 96.7086 12.7441 96.333 13.4464C95.9573 14.1323 95.7695 14.9244 95.7695 15.8227C95.7695 16.721 95.9573 17.5131 96.333 18.199C96.7086 18.885 97.2231 19.424 97.8764 19.8159C98.5296 20.2079 99.2809 20.4039 100.13 20.4039Z" fill="#11B8AD"/>
</svg>
