<svg width="371" height="53" viewBox="0 0 371 53" fill="none" xmlns="http://www.w3.org/2000/svg">
<rect width="371" height="53" rx="6" fill="#E7EEF7"/>
<rect x="7" y="8.5" width="36" height="36" rx="18" fill="#3188E4"/>
<rect x="7" y="8.5" width="36" height="36" rx="18" stroke="white" stroke-width="2"/>
<path d="M16.6336 31.6172C16.1648 31.6172 15.8865 31.3242 15.8865 30.8335V21.854C15.8865 21.2168 16.2893 20.814 16.9412 20.814C17.4978 20.814 17.8274 21.063 18.0764 21.6782L21.2039 29.2734H21.2625L24.3826 21.6782C24.6316 21.0703 24.9685 20.814 25.5398 20.814C26.177 20.814 26.5798 21.2095 26.5798 21.854V30.8335C26.5798 31.3242 26.2942 31.6172 25.8328 31.6172C25.364 31.6172 25.0784 31.3242 25.0784 30.8335V23.7217H25.0271L22.0828 30.8188C21.907 31.2437 21.6433 31.4341 21.2332 31.4341C20.823 31.4341 20.552 31.2437 20.3836 30.8335L17.4319 23.7217H17.3806V30.8335C17.3806 31.3242 17.1023 31.6172 16.6336 31.6172ZM30.803 31.6758C29.3601 31.6758 28.2175 30.9653 27.7854 29.8154C27.6902 29.5518 27.6316 29.3394 27.6316 29.0464C27.6316 28.5483 27.9319 28.2407 28.4006 28.2407C28.8181 28.2407 29.0671 28.4531 29.199 28.9365C29.426 29.7568 29.99 30.2109 30.7883 30.2109C31.865 30.2109 32.4509 29.5591 32.4509 28.3579V21.6636C32.4509 21.1362 32.7585 20.814 33.2712 20.814C33.7766 20.814 34.0915 21.1362 34.0915 21.6636V28.3652C34.0915 30.46 32.8611 31.6758 30.803 31.6758Z" fill="#E7EEF7"/>
<path d="M50.7212 23.1172C50.2524 23.1172 49.9741 22.8242 49.9741 22.3335V13.354C49.9741 12.7168 50.377 12.314 51.0288 12.314C51.5854 12.314 51.915 12.563 52.1641 13.1782L55.2915 20.7734H55.3501L58.4702 13.1782C58.7192 12.5703 59.0562 12.314 59.6274 12.314C60.2646 12.314 60.6675 12.7095 60.6675 13.354V22.3335C60.6675 22.8242 60.3818 23.1172 59.9204 23.1172C59.4517 23.1172 59.166 22.8242 59.166 22.3335V15.2217H59.1147L56.1704 22.3188C55.9946 22.7437 55.731 22.9341 55.3208 22.9341C54.9106 22.9341 54.6396 22.7437 54.4712 22.3335L51.5195 15.2217H51.4683V22.3335C51.4683 22.8242 51.1899 23.1172 50.7212 23.1172ZM64.2461 23.1318C62.7373 23.1318 61.6753 22.1943 61.6753 20.8101C61.6753 19.4624 62.7153 18.6348 64.539 18.5322L66.6557 18.4077V17.8145C66.6557 16.9575 66.0771 16.4448 65.1103 16.4448C64.3486 16.4448 63.8432 16.7158 63.4038 17.4189C63.2427 17.6533 63.0376 17.7559 62.7593 17.7559C62.3638 17.7559 62.0781 17.4922 62.0781 17.0967C62.0781 16.9355 62.1221 16.7598 62.2173 16.584C62.6201 15.7124 63.7846 15.1558 65.1689 15.1558C67.0366 15.1558 68.2304 16.1445 68.2304 17.6899V22.3408C68.2304 22.8389 67.9155 23.1392 67.4687 23.1392C67.0293 23.1392 66.729 22.8535 66.7143 22.3848V21.7329H66.6777C66.2309 22.5898 65.2495 23.1318 64.2461 23.1318ZM64.6782 21.8794C65.7842 21.8794 66.6557 21.1177 66.6557 20.1143V19.5063L64.7514 19.6235C63.8066 19.6895 63.272 20.1069 63.272 20.7661C63.272 21.4399 63.8359 21.8794 64.6782 21.8794ZM70.3296 23.1392C69.8535 23.1392 69.5385 22.8169 69.5385 22.3042V15.9541C69.5385 15.4707 69.8462 15.1558 70.2929 15.1558C70.7324 15.1558 71.04 15.4707 71.04 15.9541V16.6133H71.0766C71.289 15.749 71.9995 15.1704 72.7685 15.1704C73.0468 15.1704 73.2592 15.2363 73.3911 15.3608C73.5376 15.478 73.6035 15.6685 73.6035 15.9175C73.6035 16.1665 73.5229 16.3496 73.3691 16.4741C73.208 16.6133 72.9736 16.6792 72.644 16.6792C71.56 16.6865 71.1206 17.4116 71.1206 18.3711V22.3042C71.1206 22.8169 70.7983 23.1392 70.3296 23.1392ZM75.0727 14.1304C74.5673 14.1304 74.1572 13.7202 74.1572 13.2222C74.1572 12.7168 74.5673 12.3213 75.0727 12.3213C75.5854 12.3213 75.9955 12.7168 75.9955 13.2222C75.9955 13.7202 75.5854 14.1304 75.0727 14.1304ZM75.0727 23.1392C74.5966 23.1392 74.2817 22.8096 74.2817 22.3042V15.998C74.2817 15.4854 74.5966 15.1558 75.0727 15.1558C75.5488 15.1558 75.8637 15.4854 75.8637 15.998V22.3042C75.8637 22.8096 75.5488 23.1392 75.0727 23.1392ZM79.5082 23.1318C77.9994 23.1318 76.9374 22.1943 76.9374 20.8101C76.9374 19.4624 77.9775 18.6348 79.8012 18.5322L81.9179 18.4077V17.8145C81.9179 16.9575 81.3393 16.4448 80.3725 16.4448C79.6108 16.4448 79.1054 16.7158 78.6659 17.4189C78.5048 17.6533 78.2997 17.7559 78.0214 17.7559C77.6259 17.7559 77.3403 17.4922 77.3403 17.0967C77.3403 16.9355 77.3842 16.7598 77.4794 16.584C77.8822 15.7124 79.0468 15.1558 80.4311 15.1558C82.2987 15.1558 83.4926 16.1445 83.4926 17.6899V22.3408C83.4926 22.8389 83.1777 23.1392 82.7309 23.1392C82.2914 23.1392 81.9911 22.8535 81.9765 22.3848V21.7329H81.9399C81.4931 22.5898 80.5116 23.1318 79.5082 23.1318ZM79.9404 21.8794C81.0463 21.8794 81.9179 21.1177 81.9179 20.1143V19.5063L80.0136 19.6235C79.0688 19.6895 78.5341 20.1069 78.5341 20.7661C78.5341 21.4399 79.0981 21.8794 79.9404 21.8794ZM90.3129 23.1758C88.87 23.1758 87.7274 22.4653 87.2953 21.3154C87.2001 21.0518 87.1415 20.8394 87.1415 20.5464C87.1415 20.0483 87.4418 19.7407 87.9105 19.7407C88.328 19.7407 88.577 19.9531 88.7089 20.4365C88.9359 21.2568 89.4999 21.7109 90.2982 21.7109C91.3749 21.7109 91.9608 21.0591 91.9608 19.8579V13.1636C91.9608 12.6362 92.2684 12.314 92.7811 12.314C93.2865 12.314 93.6014 12.6362 93.6014 13.1636V19.8652C93.6014 21.96 92.371 23.1758 90.3129 23.1758ZM98.4618 23.1465C96.2572 23.1465 94.807 21.6304 94.807 19.1475C94.807 16.6719 96.2645 15.1558 98.4618 15.1558C100.659 15.1558 102.117 16.6719 102.117 19.1475C102.117 21.6304 100.666 23.1465 98.4618 23.1465ZM98.4618 21.8428C99.7069 21.8428 100.505 20.8613 100.505 19.1475C100.505 17.4409 99.6996 16.4595 98.4618 16.4595C97.224 16.4595 96.4183 17.4409 96.4183 19.1475C96.4183 20.8613 97.224 21.8428 98.4618 21.8428ZM105.952 23.1465C104.435 23.1465 103.322 22.5239 102.956 21.5791C102.905 21.4619 102.89 21.3521 102.89 21.2495C102.89 20.854 103.176 20.6196 103.571 20.6196C103.835 20.6196 104.062 20.7441 104.26 21.0371C104.655 21.6597 105.117 21.938 106.032 21.938C106.933 21.938 107.541 21.5498 107.541 20.9126C107.541 20.4072 107.241 20.1362 106.413 19.9385L105.197 19.6528C103.703 19.3013 102.971 18.5688 102.971 17.4702C102.971 16.0786 104.179 15.1558 106.01 15.1558C107.402 15.1558 108.544 15.8662 108.764 16.7744C108.779 16.8623 108.793 16.9355 108.793 17.0088C108.793 17.3604 108.574 17.5947 108.178 17.5947C107.922 17.5947 107.695 17.5068 107.541 17.2578C107.197 16.6719 106.728 16.3643 105.952 16.3643C105.102 16.3643 104.516 16.7817 104.516 17.3823C104.516 17.8657 104.889 18.2026 105.702 18.3931L106.896 18.6714C108.515 19.0449 109.138 19.6235 109.138 20.7661C109.138 22.1943 107.856 23.1465 105.952 23.1465ZM113.471 23.1465C111.149 23.1465 109.786 21.6743 109.786 19.1841C109.786 16.7378 111.178 15.1558 113.361 15.1558C115.411 15.1558 116.825 16.6353 116.825 18.7373C116.825 19.25 116.532 19.543 116.041 19.543H111.383V19.5796C111.383 20.9858 112.174 21.8647 113.434 21.8647C114.298 21.8647 114.84 21.5645 115.426 20.7661C115.595 20.5684 115.756 20.4878 115.983 20.4878C116.364 20.4878 116.642 20.7368 116.642 21.1323C116.642 21.2568 116.598 21.4033 116.532 21.5571C116.027 22.5679 114.906 23.1465 113.471 23.1465ZM111.39 18.437H115.243C115.206 17.2285 114.452 16.4302 113.353 16.4302C112.262 16.4302 111.471 17.2358 111.39 18.437ZM118.617 25.7319C118.148 25.7319 117.825 25.4097 117.825 24.8896V15.9688C117.825 15.4634 118.14 15.1558 118.587 15.1558C119.034 15.1558 119.356 15.4634 119.356 15.9688V16.6206H119.386C119.84 15.7344 120.726 15.1704 121.839 15.1704C123.795 15.1704 125.084 16.7085 125.084 19.1475C125.084 21.5864 123.802 23.1318 121.868 23.1318C120.762 23.1318 119.884 22.5898 119.444 21.7329H119.408V24.8896C119.408 25.4097 119.078 25.7319 118.617 25.7319ZM121.422 21.7915C122.674 21.7915 123.458 20.7661 123.458 19.1475C123.458 17.5361 122.674 16.5034 121.422 16.5034C120.213 16.5034 119.4 17.5581 119.4 19.1475C119.4 20.7515 120.206 21.7915 121.422 21.7915ZM126.927 23.1392C126.465 23.1392 126.136 22.8242 126.136 22.3042V13.1123C126.136 12.6143 126.436 12.292 126.919 12.292C127.41 12.292 127.703 12.6143 127.703 13.1123V16.584H127.74C128.164 15.6831 129.007 15.1631 130.178 15.1631C131.87 15.1631 132.881 16.291 132.881 18.0342V22.3042C132.881 22.8242 132.552 23.1392 132.083 23.1392C131.621 23.1392 131.292 22.8242 131.292 22.3042V18.3418C131.292 17.2065 130.72 16.5254 129.607 16.5254C128.435 16.5254 127.718 17.3311 127.718 18.5469V22.3042C127.718 22.8242 127.388 23.1392 126.927 23.1392Z" fill="#2C3036"/>
<path d="M50.8373 41.0889C50.5073 41.0889 50.3041 40.8794 50.3041 40.5366V32.4624C50.3041 32.0371 50.5961 31.7515 51.0341 31.7515C51.4213 31.7515 51.6562 31.9355 51.8339 32.3608L54.7919 39.4829H54.8427L57.7944 32.3608C57.9721 31.9419 58.2197 31.7515 58.6132 31.7515C59.0449 31.7515 59.3305 32.0308 59.3305 32.4624V40.5366C59.3305 40.8794 59.1274 41.0889 58.7973 41.0889C58.4672 41.0889 58.2641 40.8794 58.2641 40.5366V33.9414H58.2197L55.5029 40.4414C55.3569 40.7842 55.1474 40.9365 54.8173 40.9365C54.4872 40.9365 54.2714 40.7842 54.1318 40.4541L51.415 33.9414H51.3705V40.5366C51.3705 40.8794 51.1674 41.0889 50.8373 41.0889ZM63.624 41.1143C61.6753 41.1143 60.5327 39.8574 60.5327 37.7246C60.5327 35.6426 61.7071 34.2842 63.5288 34.2842C65.2173 34.2842 66.4043 35.5474 66.4043 37.3564C66.4043 37.7563 66.1758 37.9976 65.7949 37.9976H61.669C61.669 39.3306 62.3989 40.1558 63.5796 40.1558C64.3667 40.1558 64.8491 39.8765 65.3633 39.1274C65.4776 38.9688 65.6045 38.9053 65.7759 38.9053C66.0679 38.9053 66.2647 39.0957 66.2647 39.3877C66.2647 39.4766 66.2329 39.5908 66.1821 39.7114C65.7569 40.6064 64.8301 41.1143 63.624 41.1143ZM61.6753 37.1343H65.2617C65.2363 35.9917 64.5318 35.2427 63.5098 35.2427C62.4815 35.2427 61.7451 35.998 61.6753 37.1343ZM67.9938 41.1143C67.6573 41.1143 67.4415 40.8604 67.4415 40.5239V34.8428C67.4415 34.5127 67.6573 34.2842 67.962 34.2842C68.2667 34.2842 68.4825 34.5127 68.4825 34.8428V35.4521H68.5079C68.8189 34.7539 69.4918 34.2842 70.3805 34.2842C71.2818 34.2842 71.9483 34.7412 72.234 35.541H72.2594C72.6275 34.7539 73.402 34.2842 74.3287 34.2842C75.6363 34.2842 76.4806 35.1348 76.4806 36.4424V40.5239C76.4806 40.8604 76.2647 41.1143 75.9283 41.1143C75.5919 41.1143 75.3761 40.8604 75.3761 40.5239V36.6963C75.3761 35.7949 74.8746 35.2617 74.005 35.2617C73.129 35.2617 72.5133 35.9092 72.5133 36.8042V40.5239C72.5133 40.8604 72.2975 41.1143 71.961 41.1143C71.6246 41.1143 71.4088 40.8604 71.4088 40.5239V36.5757C71.4088 35.7822 70.8756 35.2617 70.0567 35.2617C69.1808 35.2617 68.546 35.9473 68.546 36.8613V40.5239C68.546 40.8604 68.3302 41.1143 67.9938 41.1143ZM78.381 41.1143C78.07 41.1143 77.8669 40.8984 77.8669 40.5747V32.3164C77.8669 31.9673 78.0954 31.7261 78.4191 31.7261C78.7429 31.7261 78.9714 31.9673 78.9714 32.3164V35.5029H78.9968C79.4157 34.7476 80.1838 34.2842 81.1169 34.2842C82.78 34.2842 83.9035 35.6299 83.9035 37.6992C83.9035 39.7749 82.7863 41.1143 81.0978 41.1143C80.133 41.1143 79.3776 40.6445 78.946 39.8828H78.9206V40.5747C78.9206 40.8921 78.6984 41.1143 78.381 41.1143ZM80.882 40.1431C82.05 40.1431 82.7736 39.21 82.7736 37.6992C82.7736 36.2012 82.05 35.2554 80.882 35.2554C79.7648 35.2554 78.965 36.2329 78.965 37.6992C78.965 39.1719 79.7648 40.1431 80.882 40.1431ZM85.4929 41.1143C85.1692 41.1143 84.9407 40.873 84.9407 40.5239V34.8428C84.9407 34.5127 85.1565 34.2842 85.4612 34.2842C85.7659 34.2842 85.9817 34.5127 85.9817 34.8428V35.4775H86.0071C86.1975 34.792 86.845 34.2842 87.5051 34.2842C87.7463 34.2842 87.9177 34.3413 88.0256 34.4429C88.1209 34.5317 88.1653 34.6587 88.1653 34.811C88.1653 34.9824 88.1082 35.1094 87.9939 35.1982C87.8797 35.2935 87.7083 35.3379 87.4671 35.3379C86.4705 35.3379 86.0452 36.0552 86.0452 36.8994V40.5239C86.0452 40.873 85.8167 41.1143 85.4929 41.1143ZM91.2909 41.1143C89.4627 41.1143 88.2313 39.8003 88.2313 37.6992C88.2313 35.5918 89.4627 34.2842 91.2909 34.2842C93.1126 34.2842 94.3441 35.5918 94.3441 37.6992C94.3441 39.8003 93.1126 41.1143 91.2909 41.1143ZM91.2909 40.1431C92.4588 40.1431 93.2205 39.2544 93.2205 37.6992C93.2205 36.144 92.4588 35.2554 91.2909 35.2554C90.1229 35.2554 89.3548 36.144 89.3548 37.6992C89.3548 39.2544 90.1229 40.1431 91.2909 40.1431ZM98.71 41.0889C98.3608 41.0889 98.1387 40.8604 98.1387 40.4985V32.4307C98.1387 32.0688 98.3608 31.8403 98.71 31.8403H103.249C103.572 31.8403 103.794 32.0498 103.794 32.3545C103.794 32.6592 103.572 32.8687 103.249 32.8687H99.2812V36.0171H102.893C103.21 36.0171 103.433 36.2202 103.433 36.5249C103.433 36.8296 103.21 37.0327 102.893 37.0327H99.2812V40.4985C99.2812 40.8604 99.0591 41.0889 98.71 41.0889ZM106.234 41.1143C104.92 41.1143 104.038 40.3208 104.038 39.1338C104.038 38.0039 104.908 37.293 106.431 37.2041L108.329 37.0962V36.5439C108.329 35.7378 107.796 35.2554 106.882 35.2554C106.165 35.2554 105.676 35.5156 105.308 36.1694C105.206 36.3535 105.06 36.436 104.851 36.436C104.565 36.436 104.362 36.2393 104.362 35.9409C104.362 35.8013 104.406 35.6426 104.495 35.4839C104.87 34.7603 105.835 34.2842 106.907 34.2842C108.456 34.2842 109.434 35.1221 109.434 36.436V40.5557C109.434 40.8857 109.218 41.1143 108.913 41.1143C108.602 41.1143 108.386 40.8857 108.386 40.5557V39.8638H108.361C107.967 40.6191 107.123 41.1143 106.234 41.1143ZM106.482 40.1748C107.523 40.1748 108.329 39.4448 108.329 38.4927V37.9531L106.558 38.061C105.67 38.1182 105.162 38.5117 105.162 39.1338C105.162 39.7622 105.689 40.1748 106.482 40.1748ZM111.309 41.1143C110.972 41.1143 110.757 40.8604 110.757 40.5239V34.8428C110.757 34.5127 110.972 34.2842 111.277 34.2842C111.582 34.2842 111.798 34.5127 111.798 34.8428V35.4521H111.823C112.134 34.7539 112.807 34.2842 113.695 34.2842C114.597 34.2842 115.263 34.7412 115.549 35.541H115.574C115.943 34.7539 116.717 34.2842 117.644 34.2842C118.951 34.2842 119.796 35.1348 119.796 36.4424V40.5239C119.796 40.8604 119.58 41.1143 119.243 41.1143C118.907 41.1143 118.691 40.8604 118.691 40.5239V36.6963C118.691 35.7949 118.19 35.2617 117.32 35.2617C116.444 35.2617 115.828 35.9092 115.828 36.8042V40.5239C115.828 40.8604 115.612 41.1143 115.276 41.1143C114.94 41.1143 114.724 40.8604 114.724 40.5239V36.5757C114.724 35.7822 114.191 35.2617 113.372 35.2617C112.496 35.2617 111.861 35.9473 111.861 36.8613V40.5239C111.861 40.8604 111.645 41.1143 111.309 41.1143ZM121.734 33.2876C121.36 33.2876 121.049 32.9766 121.049 32.6021C121.049 32.2212 121.36 31.9165 121.734 31.9165C122.115 31.9165 122.426 32.2212 122.426 32.6021C122.426 32.9766 122.115 33.2876 121.734 33.2876ZM121.734 41.1143C121.41 41.1143 121.182 40.873 121.182 40.5239V34.8745C121.182 34.5254 121.41 34.2842 121.734 34.2842C122.058 34.2842 122.286 34.5254 122.286 34.8745V40.5239C122.286 40.873 122.058 41.1143 121.734 41.1143ZM124.307 41.1143C123.984 41.1143 123.755 40.873 123.755 40.5239V32.3164C123.755 31.9673 123.984 31.7261 124.307 31.7261C124.631 31.7261 124.86 31.9673 124.86 32.3164V40.5239C124.86 40.873 124.631 41.1143 124.307 41.1143ZM126.881 33.2876C126.506 33.2876 126.195 32.9766 126.195 32.6021C126.195 32.2212 126.506 31.9165 126.881 31.9165C127.262 31.9165 127.573 32.2212 127.573 32.6021C127.573 32.9766 127.262 33.2876 126.881 33.2876ZM126.881 41.1143C126.557 41.1143 126.329 40.873 126.329 40.5239V34.8745C126.329 34.5254 126.557 34.2842 126.881 34.2842C127.204 34.2842 127.433 34.5254 127.433 34.8745V40.5239C127.433 40.873 127.204 41.1143 126.881 41.1143ZM130.768 41.1143C129.454 41.1143 128.572 40.3208 128.572 39.1338C128.572 38.0039 129.441 37.293 130.965 37.2041L132.863 37.0962V36.5439C132.863 35.7378 132.33 35.2554 131.416 35.2554C130.698 35.2554 130.209 35.5156 129.841 36.1694C129.74 36.3535 129.594 36.436 129.384 36.436C129.099 36.436 128.895 36.2393 128.895 35.9409C128.895 35.8013 128.94 35.6426 129.029 35.4839C129.403 34.7603 130.368 34.2842 131.441 34.2842C132.99 34.2842 133.967 35.1221 133.967 36.436V40.5557C133.967 40.8857 133.751 41.1143 133.447 41.1143C133.136 41.1143 132.92 40.8857 132.92 40.5557V39.8638H132.895C132.501 40.6191 131.657 41.1143 130.768 41.1143ZM131.016 40.1748C132.057 40.1748 132.863 39.4448 132.863 38.4927V37.9531L131.092 38.061C130.203 38.1182 129.695 38.5117 129.695 39.1338C129.695 39.7622 130.222 40.1748 131.016 40.1748ZM135.842 41.1143C135.519 41.1143 135.29 40.873 135.29 40.5239V34.8428C135.29 34.5127 135.506 34.2842 135.811 34.2842C136.115 34.2842 136.331 34.5127 136.331 34.8428V35.4775H136.357C136.547 34.792 137.194 34.2842 137.855 34.2842C138.096 34.2842 138.267 34.3413 138.375 34.4429C138.47 34.5317 138.515 34.6587 138.515 34.811C138.515 34.9824 138.458 35.1094 138.343 35.1982C138.229 35.2935 138.058 35.3379 137.816 35.3379C136.82 35.3379 136.395 36.0552 136.395 36.8994V40.5239C136.395 40.873 136.166 41.1143 135.842 41.1143Z" fill="#5F636B"/>
<path d="M288.794 23.1172C288.282 23.1172 287.974 22.7949 287.974 22.2676V13.2808C287.974 12.7534 288.282 12.4312 288.794 12.4312H291.937C293.987 12.4312 295.416 13.8447 295.416 15.9028C295.416 17.9683 293.958 19.3892 291.885 19.3892H289.615V22.2676C289.615 22.7949 289.3 23.1172 288.794 23.1172ZM289.615 18.0122H291.497C292.925 18.0122 293.738 17.2432 293.738 15.9102C293.738 14.5771 292.925 13.8154 291.504 13.8154H289.615V18.0122ZM299.404 23.1465C297.2 23.1465 295.749 21.6304 295.749 19.1475C295.749 16.6719 297.207 15.1558 299.404 15.1558C301.602 15.1558 303.059 16.6719 303.059 19.1475C303.059 21.6304 301.609 23.1465 299.404 23.1465ZM299.404 21.8428C300.649 21.8428 301.448 20.8613 301.448 19.1475C301.448 17.4409 300.642 16.4595 299.404 16.4595C298.166 16.4595 297.361 17.4409 297.361 19.1475C297.361 20.8613 298.166 21.8428 299.404 21.8428ZM306.945 23.1318C304.997 23.1318 303.708 21.5791 303.708 19.1475C303.708 16.7158 304.997 15.1704 306.931 15.1704C308.037 15.1704 308.915 15.7271 309.348 16.5767H309.377V13.127C309.377 12.6069 309.707 12.292 310.175 12.292C310.637 12.292 310.966 12.6069 310.966 13.127V22.3481C310.966 22.8462 310.644 23.1392 310.183 23.1392C309.736 23.1392 309.377 22.8462 309.377 22.3481V21.6304H309.355C308.959 22.5312 308.146 23.1318 306.945 23.1318ZM307.363 21.7915C308.579 21.7915 309.392 20.7588 309.392 19.1475C309.392 17.5508 308.579 16.5034 307.363 16.5034C306.11 16.5034 305.327 17.5288 305.327 19.1475C305.327 20.7734 306.11 21.7915 307.363 21.7915ZM315.702 23.1465C313.38 23.1465 312.018 21.6743 312.018 19.1841C312.018 16.7378 313.41 15.1558 315.592 15.1558C317.643 15.1558 319.057 16.6353 319.057 18.7373C319.057 19.25 318.764 19.543 318.273 19.543H313.615V19.5796C313.615 20.9858 314.406 21.8647 315.665 21.8647C316.53 21.8647 317.072 21.5645 317.658 20.7661C317.826 20.5684 317.987 20.4878 318.214 20.4878C318.595 20.4878 318.873 20.7368 318.873 21.1323C318.873 21.2568 318.83 21.4033 318.764 21.5571C318.258 22.5679 317.138 23.1465 315.702 23.1465ZM313.622 18.437H317.475C317.438 17.2285 316.684 16.4302 315.585 16.4302C314.494 16.4302 313.703 17.2358 313.622 18.437ZM326.946 23.1172C326.368 23.1172 326.038 22.8682 325.818 22.2676L322.486 13.5151C322.427 13.3467 322.398 13.2002 322.398 13.0537C322.398 12.6143 322.735 12.314 323.233 12.314C323.65 12.314 323.907 12.5044 324.046 12.9292L326.939 21.1543H326.983L329.876 12.9219C330.022 12.4897 330.249 12.314 330.667 12.314C331.158 12.314 331.502 12.6216 331.502 13.0464C331.502 13.1855 331.473 13.332 331.414 13.4932L328.074 22.2749C327.847 22.8755 327.525 23.1172 326.946 23.1172ZM334.685 23.1465C332.363 23.1465 331.001 21.6743 331.001 19.1841C331.001 16.7378 332.392 15.1558 334.575 15.1558C336.626 15.1558 338.039 16.6353 338.039 18.7373C338.039 19.25 337.746 19.543 337.256 19.543H332.598V19.5796C332.598 20.9858 333.389 21.8647 334.648 21.8647C335.513 21.8647 336.055 21.5645 336.641 20.7661C336.809 20.5684 336.97 20.4878 337.197 20.4878C337.578 20.4878 337.856 20.7368 337.856 21.1323C337.856 21.2568 337.812 21.4033 337.746 21.5571C337.241 22.5679 336.12 23.1465 334.685 23.1465ZM332.605 18.437H336.457C336.421 17.2285 335.666 16.4302 334.568 16.4302C333.476 16.4302 332.685 17.2358 332.605 18.437ZM339.831 23.1392C339.355 23.1392 339.04 22.8169 339.04 22.3042V15.9541C339.04 15.4707 339.348 15.1558 339.794 15.1558C340.234 15.1558 340.541 15.4707 340.541 15.9541V16.6133H340.578C340.79 15.749 341.501 15.1704 342.27 15.1704C342.548 15.1704 342.761 15.2363 342.892 15.3608C343.039 15.478 343.105 15.6685 343.105 15.9175C343.105 16.1665 343.024 16.3496 342.87 16.4741C342.709 16.6133 342.475 16.6792 342.145 16.6792C341.061 16.6865 340.622 17.4116 340.622 18.3711V22.3042C340.622 22.8169 340.3 23.1392 339.831 23.1392ZM354.122 21.7256C353.873 21.7256 353.653 21.6304 353.463 21.4326L347.882 15.7271C347.721 15.5659 347.633 15.3608 347.633 15.1265C347.633 14.6504 348.006 14.2769 348.482 14.2769C348.717 14.2769 348.929 14.3721 349.097 14.5332L354.122 19.6821L359.146 14.5332C359.307 14.3721 359.527 14.2769 359.762 14.2769C360.23 14.2769 360.604 14.6504 360.604 15.1265C360.604 15.3682 360.523 15.5659 360.362 15.7271L354.781 21.4326C354.598 21.6304 354.371 21.7256 354.122 21.7256Z" fill="#0068D7"/>
</svg>
