<svg width="112" height="77" viewBox="0 0 112 77" fill="none" xmlns="http://www.w3.org/2000/svg">
<g clip-path="url(#clip0_2741_12445)">
<rect width="112" height="77" fill="#9BC1EC"/>
<g filter="url(#filter0_i_2741_12445)">
<circle cx="43" cy="47" r="38" transform="rotate(-180 43 47)" fill="#FCFDFE"/>
</g>
<circle opacity="0.5" cx="42.9998" cy="46.9998" r="25.3333" transform="rotate(-180 42.9998 46.9998)" fill="#EDF5FF" stroke="#1E7BDE" stroke-width="1.01333"/>
<g filter="url(#filter1_i_2741_12445)">
<path d="M64.8782 63.4774C67.8279 60.717 66.5616 57.3905 67.9933 53.6129C69.425 49.8353 78.3766 47.3828 76.8186 42.1911C75.2607 36.9993 69.3618 36.6306 64.8779 35.9609C60.394 35.2912 55.6211 27.6843 52.9368 28.6924C50.2525 29.7004 50.2733 32.5318 47.745 33.8842C45.2166 35.2366 37.3152 30.3875 35.8038 33.8842C34.2925 37.3809 39.0258 42.1316 39.9577 45.8253C40.8896 49.5189 35.8313 57.039 39.9577 58.2856C44.0841 59.5321 46.1985 59.4794 50.3403 58.2852C54.4822 57.0909 61.9285 66.2377 64.8782 63.4774Z" fill="#F8F2DF"/>
</g>
<g filter="url(#filter2_i_2741_12445)">
<circle cx="52.9375" cy="46.3431" r="5.71098" transform="rotate(-180 52.9375 46.3431)" fill="#E49546"/>
</g>
<g filter="url(#filter3_i_2741_12445)">
<path d="M9.57452 40.888C11.204 44.478 14.6751 44.3475 17.7196 46.8522C20.7642 49.3569 20.2323 58.3991 25.519 58.5823C30.8057 58.7654 32.991 53.4275 35.0122 49.4917C37.0334 45.556 45.5579 43.5222 45.4654 40.7255C45.3728 37.9288 42.7489 37.0628 42.2892 34.3026C41.8296 31.5424 48.783 25.7542 46.023 23.2636C43.2631 20.7731 37.3912 23.6633 33.6853 23.3698C29.9793 23.0764 24.609 16.0488 22.1664 19.4736C19.7238 22.8985 19.1113 24.8697 18.9202 29.072C18.7292 33.2744 7.94508 37.2981 9.57452 40.888Z" fill="#F8F2DF"/>
</g>
<g filter="url(#filter4_i_2741_12445)">
<circle cx="31.3919" cy="34.895" r="5.57333" transform="rotate(-71.3124 31.3919 34.895)" fill="#E49546"/>
</g>
<mask id="mask0_2741_12445" style="mask-type:alpha" maskUnits="userSpaceOnUse" x="21" y="60" width="48" height="16">
<path d="M58.8934 69.1865C61.8301 67.9389 68.5188 67.2477 68.5188 67.2477L66.0816 60.8565C66.0816 60.8565 57.0868 61.4191 54.9439 62.56C52.8011 63.7009 52.5283 65.7346 50.1756 66.3993C47.8229 67.0639 44.9553 64.5771 43.2903 65.0422C41.6253 65.5074 41.2142 66.8425 39.5539 67.3242C37.8937 67.8058 32.2895 62.9989 30.3558 62.7445C28.4222 62.4901 25.303 62.8176 25.303 62.8176L21.4952 70.2418C21.4952 70.2418 25.5827 69.9155 28.0604 70.4039C30.538 70.8922 35.4784 76.0218 37.4185 75.581C39.3587 75.1403 39.9496 73.7624 41.831 73.1179C43.7123 72.4735 49.043 74.5212 52.0968 73.5692C55.1505 72.6171 55.9567 70.434 58.8934 69.1865Z" fill="#CF6969"/>
</mask>
<g mask="url(#mask0_2741_12445)">
<g filter="url(#filter5_i_2741_12445)">
<path d="M58.8934 69.1865C61.8301 67.9389 68.5188 67.2477 68.5188 67.2477L66.0816 60.8565C66.0816 60.8565 57.0868 61.4191 54.9439 62.56C52.8011 63.7009 52.5283 65.7346 50.1756 66.3993C47.8229 67.0639 44.9553 64.5771 43.2903 65.0422C41.6253 65.5074 41.2142 66.8425 39.5539 67.3242C37.8937 67.8058 32.2895 62.9989 30.3558 62.7445C28.4222 62.4901 25.303 62.8176 25.303 62.8176L21.4952 70.2418C21.4952 70.2418 25.5827 69.9155 28.0604 70.4039C30.538 70.8922 35.4784 76.0218 37.4185 75.581C39.3587 75.1403 39.9496 73.7624 41.831 73.1179C43.7123 72.4735 49.043 74.5212 52.0968 73.5692C55.1505 72.6171 55.9567 70.434 58.8934 69.1865Z" fill="#E06F6F"/>
</g>
<path d="M58.8934 69.1865C61.8301 67.9389 68.5188 67.2477 68.5188 67.2477L66.7032 65.8131C66.7032 65.8131 57.7084 66.3757 55.5655 67.5166C53.4227 68.6575 53.1499 70.6912 50.7972 71.3558C48.4445 72.0205 45.5769 69.5336 43.9119 69.9988C42.2469 70.464 41.8357 71.7991 40.1755 72.2807C38.5153 72.7624 32.9111 67.9555 30.9774 67.7011C29.0437 67.4467 25.9246 67.7742 25.9246 67.7742L21.4952 70.2418C21.4952 70.2418 25.5827 69.9155 28.0604 70.4039C30.538 70.8922 35.4784 76.0218 37.4185 75.581C39.3587 75.1403 39.9496 73.7624 41.831 73.1179C43.7123 72.4735 49.043 74.5212 52.0968 73.5692C55.1505 72.6171 55.9567 70.434 58.8934 69.1865Z" fill="#EF9090"/>
<path d="M58.8934 69.1865C61.8301 67.9389 68.5188 67.2477 68.5188 67.2477L67.8784 64.8578C67.8784 64.8578 57.7084 66.3757 55.5655 67.5166C53.4227 68.6575 53.1499 70.6912 50.7972 71.3558C48.4445 72.0205 45.5769 69.5336 43.9119 69.9988C42.2469 70.464 41.8357 71.7991 40.1755 72.2807C38.5153 72.7624 32.9111 67.9555 30.9774 67.7011C29.0437 67.4467 22.6138 67.723 22.6138 67.723L21.4952 70.2418C21.4952 70.2418 25.5827 69.9155 28.0604 70.4039C30.538 70.8922 35.4784 76.0218 37.4185 75.581C39.3587 75.1403 39.9496 73.7624 41.831 73.1179C43.7123 72.4735 49.043 74.5212 52.0968 73.5692C55.1505 72.6171 55.9567 70.434 58.8934 69.1865Z" fill="#EF9090"/>
<path d="M67.8044 64.5823C67.8044 64.5823 61.1095 65.3177 58.1728 66.5653C55.2361 67.8129 53.4248 69.9635 50.3711 70.9155C47.3174 71.8675 46.1096 69.6567 44.2283 70.3012C42.3469 70.9457 42.4135 71.4649 40.4734 71.9056C38.5333 72.3464 33.4981 68.3505 31.0205 67.8622C28.5428 67.3739 20.9404 68.1718 20.9404 68.1718" stroke="#F3C6C6" stroke-width="1.1549"/>
</g>
<mask id="mask1_2741_12445" style="mask-type:alpha" maskUnits="userSpaceOnUse" x="10" y="51" width="48" height="17">
<path d="M47.4486 64.9574C50.5867 64.3801 57.2651 65.1637 57.2651 65.1637L56.2799 58.3949C56.2799 58.3949 47.3788 56.9831 45.0388 57.6294C42.6988 58.2757 41.9892 60.201 39.5481 60.3367C37.1071 60.4725 34.8506 57.4203 33.1243 57.5113C31.3979 57.6023 30.7056 58.8157 28.9803 58.9238C27.255 59.0319 22.8336 53.1189 21.0019 52.449C19.1702 51.7792 16.0546 51.4189 16.0546 51.4189L10.7199 57.8343C10.7199 57.8343 14.7802 58.407 17.0918 59.4237C19.4034 60.4405 23.1067 66.5237 25.0962 66.5165C27.0858 66.5093 27.9629 65.2934 29.9395 65.0746C31.9161 64.8558 36.6722 68.0164 39.86 67.753C43.0478 67.4896 44.3106 65.5348 47.4486 64.9574Z" fill="#CF6969"/>
</mask>
<g mask="url(#mask1_2741_12445)">
<g filter="url(#filter6_i_2741_12445)">
<path d="M47.4486 64.9574C50.5867 64.3801 57.2651 65.1637 57.2651 65.1637L56.2799 58.3949C56.2799 58.3949 47.3788 56.9831 45.0388 57.6294C42.6988 58.2757 41.9892 60.201 39.5481 60.3367C37.1071 60.4725 34.8506 57.4203 33.1243 57.5113C31.3979 57.6023 30.7056 58.8157 28.9803 58.9238C27.255 59.0319 22.8336 53.1189 21.0019 52.449C19.1702 51.7792 16.0546 51.4189 16.0546 51.4189L10.7199 57.8343C10.7199 57.8343 14.7802 58.407 17.0918 59.4237C19.4034 60.4405 23.1067 66.5237 25.0962 66.5165C27.0858 66.5093 27.9629 65.2934 29.9395 65.0746C31.9161 64.8558 36.6722 68.0164 39.86 67.753C43.0478 67.4896 44.3106 65.5348 47.4486 64.9574Z" fill="#E06F6F"/>
</g>
<path d="M47.4486 64.9574C50.5867 64.3801 57.2651 65.1637 57.2651 65.1637L55.806 63.3677C55.806 63.3677 46.9049 61.9559 44.5648 62.6022C42.2248 63.2485 41.5152 65.1738 39.0742 65.3096C36.6332 65.4453 34.3767 62.3931 32.6504 62.4841C30.924 62.5752 30.2317 63.7885 28.5064 63.8966C26.7811 64.0047 22.3597 58.0917 20.5279 57.4219C18.6962 56.752 15.5807 56.3917 15.5807 56.3917L10.7199 57.8343C10.7199 57.8343 14.7802 58.407 17.0918 59.4237C19.4034 60.4405 23.1067 66.5237 25.0962 66.5165C27.0858 66.5093 27.9629 65.2934 29.9395 65.0746C31.9161 64.8558 36.6722 68.0164 39.86 67.753C43.0478 67.4896 44.3106 65.5348 47.4486 64.9574Z" fill="#EF9090"/>
<path d="M47.4486 64.9574C50.5867 64.3801 57.2651 65.1637 57.2651 65.1637L57.1612 62.6916C57.1612 62.6916 46.9049 61.9559 44.5648 62.6022C42.2248 63.2485 41.5152 65.1738 39.0742 65.3096C36.6332 65.4453 34.3767 62.3931 32.6504 62.4841C30.924 62.5752 30.2317 63.7885 28.5064 63.8966C26.7811 64.0047 22.3597 58.0917 20.5279 57.4219C18.6962 56.752 12.3607 55.6199 12.3607 55.6199L10.7199 57.8343C10.7199 57.8343 14.7802 58.407 17.0918 59.4237C19.4034 60.4405 23.1067 66.5237 25.0962 66.5165C27.0858 66.5093 27.9629 65.2934 29.9395 65.0746C31.9161 64.8558 36.6722 68.0164 39.86 67.753C43.0478 67.4896 44.3106 65.5348 47.4486 64.9574Z" fill="#EF9090"/>
<path d="M57.1491 62.4057C57.1491 62.4057 50.4549 61.6639 47.3169 62.2412C44.1788 62.8186 41.9423 64.5226 38.7544 64.786C35.5666 65.0494 34.8699 62.6285 32.8933 62.8473C30.9167 63.0661 30.8685 63.5873 28.879 63.5945C26.8894 63.6018 22.8465 58.6043 20.5349 57.5875C18.2233 56.5708 10.6298 55.6922 10.6298 55.6922" stroke="#F3C6C6" stroke-width="1.1549"/>
</g>
<path d="M101 13.6058L104.155 11.3887" stroke="#FCFDFE" stroke-width="5.14162" stroke-linecap="round"/>
<circle cx="91.1299" cy="20.1294" r="13.4968" transform="rotate(-35.0945 91.1299 20.1294)" fill="#FCFDFE"/>
<circle cx="91.2412" cy="20.2905" r="11.5686" transform="rotate(-35.0945 91.2412 20.2905)" fill="#462B1E"/>
<path d="M89.3313 10.6094C89.3313 10.6094 89.3313 10.6094 89.3313 10.6094C88.921 10.6608 88.5093 10.7582 88.1051 10.8789C84.9002 11.8062 81.9059 14.6508 81.4582 18.5675C81.3806 19.2436 81.3768 19.9253 81.4462 20.6022C81.7749 24.4853 84.6526 27.9153 88.004 28.8924C88.3991 29.0155 88.8001 29.1131 89.1976 29.1587C88.9583 28.8419 88.7487 28.5106 88.5514 28.1803C86.8937 25.335 86.4602 22.7465 86.4906 20.305C86.4972 19.9135 86.5227 19.5349 86.5663 19.154C86.8005 17.0581 87.474 14.6173 88.7959 11.6969C88.9627 11.337 89.1366 10.9711 89.3313 10.6094Z" fill="url(#paint0_linear_2741_12445)"/>
<circle cx="53.5" cy="-1.5" r="25.5" fill="#1E7BDE"/>
<path d="M57.8807 13.7702C57.8807 14.0671 57.851 14.3559 57.7916 14.6365C57.7323 14.9118 57.6459 15.1763 57.5325 15.43H49.4601C49.3468 15.1763 49.2604 14.9118 49.2011 14.6365C49.1417 14.3559 49.112 14.0671 49.112 13.7702C49.112 13.171 49.2253 12.607 49.452 12.078C49.6842 11.549 49.9999 11.0821 50.3994 10.6773C50.8042 10.2724 51.2711 9.95397 51.8001 9.72186C52.3291 9.48976 52.8958 9.37371 53.5004 9.37371C54.0995 9.37371 54.6636 9.48976 55.1926 9.72186C55.7216 9.95397 56.1858 10.2724 56.5852 10.6773C56.9901 11.0821 57.3058 11.549 57.5325 12.078C57.7646 12.607 57.8807 13.171 57.8807 13.7702ZM44.8774 14.2317C44.6669 14.2317 44.4942 14.1696 44.3592 14.0455C44.2243 13.9159 44.1568 13.7594 44.1568 13.5759C44.1568 13.3924 44.2243 13.2385 44.3592 13.1144C44.4942 12.9848 44.6669 12.9201 44.8774 12.9201H46.8692C47.0797 12.9201 47.2525 12.9848 47.3874 13.1144C47.5223 13.2385 47.5925 13.3924 47.5979 13.5759C47.5979 13.7594 47.5277 13.9159 47.3874 14.0455C47.2525 14.1696 47.0797 14.2317 46.8692 14.2317H44.8774ZM48.3428 9.55993L46.934 8.15111C46.7828 7.99997 46.7046 7.83264 46.6992 7.64911C46.6992 7.46019 46.764 7.30366 46.8935 7.17951C47.023 7.05536 47.1796 6.99328 47.3631 6.99328C47.5466 6.99328 47.714 7.06885 47.8651 7.21999L49.2739 8.62881C49.4251 8.77455 49.5006 8.94188 49.5006 9.13081C49.506 9.31973 49.4467 9.47896 49.3225 9.60851C49.1984 9.73806 49.0391 9.80013 48.8448 9.79473C48.6559 9.78934 48.4885 9.71107 48.3428 9.55993ZM57.6702 9.60851C57.5406 9.48436 57.4786 9.32782 57.484 9.1389C57.4893 8.94458 57.5676 8.77455 57.7188 8.62881L59.1276 7.21999C59.2787 7.06885 59.446 6.99328 59.6296 6.99328C59.8185 6.98788 59.975 7.04996 60.0992 7.17951C60.2287 7.30905 60.2908 7.46559 60.2854 7.64911C60.2854 7.83264 60.2098 7.99997 60.0587 8.15111L58.6499 9.55993C58.5041 9.71107 58.3368 9.78934 58.1479 9.79473C57.959 9.79473 57.7997 9.73266 57.6702 9.60851ZM60.1235 14.2317C59.9184 14.2317 59.7456 14.1696 59.6053 14.0455C59.4703 13.9159 59.4002 13.7594 59.3948 13.5759C59.3948 13.3924 59.4649 13.2385 59.6053 13.1144C59.7456 12.9848 59.9184 12.9201 60.1235 12.9201H62.1153C62.3258 12.9201 62.4985 12.9848 62.6334 13.1144C62.7684 13.2385 62.8359 13.3924 62.8359 13.5759C62.8359 13.7594 62.7684 13.9159 62.6334 14.0455C62.4985 14.1696 62.3258 14.2317 62.1153 14.2317H60.1235ZM53.5004 7.88392C53.3169 7.88392 53.1603 7.81375 53.0308 7.6734C52.9012 7.53306 52.8365 7.36033 52.8365 7.15522V5.16343C52.8365 4.95292 52.9012 4.78019 53.0308 4.64525C53.1603 4.5103 53.3169 4.44283 53.5004 4.44283C53.6785 4.44283 53.8324 4.5103 53.9619 4.64525C54.0914 4.78019 54.1562 4.95292 54.1562 5.16343V7.15522C54.1562 7.36033 54.0914 7.53306 53.9619 7.6734C53.8324 7.80835 53.6785 7.87852 53.5004 7.88392ZM43.8249 17.6728C43.6359 17.6728 43.4713 17.6107 43.331 17.4866C43.1906 17.357 43.1204 17.2032 43.1204 17.0251C43.1204 16.8469 43.1906 16.6958 43.331 16.5717C43.4713 16.4421 43.6359 16.3773 43.8249 16.3773H63.1678C63.3567 16.3773 63.5214 16.4421 63.6617 16.5717C63.8021 16.6958 63.8722 16.8469 63.8722 17.0251C63.8722 17.2032 63.8021 17.357 63.6617 17.4866C63.5214 17.6107 63.3567 17.6728 63.1678 17.6728H43.8249Z" fill="#FCFDFE"/>
</g>
<defs>
<filter id="filter0_i_2741_12445" x="5" y="9" width="76" height="76" filterUnits="userSpaceOnUse" color-interpolation-filters="sRGB">
<feFlood flood-opacity="0" result="BackgroundImageFix"/>
<feBlend mode="normal" in="SourceGraphic" in2="BackgroundImageFix" result="shape"/>
<feColorMatrix in="SourceAlpha" type="matrix" values="0 0 0 0 0 0 0 0 0 0 0 0 0 0 0 0 0 0 127 0" result="hardAlpha"/>
<feOffset/>
<feGaussianBlur stdDeviation="2.02667"/>
<feComposite in2="hardAlpha" operator="arithmetic" k2="-1" k3="1"/>
<feColorMatrix type="matrix" values="0 0 0 0 0.905882 0 0 0 0 0.933333 0 0 0 0 0.968627 0 0 0 1 0"/>
<feBlend mode="normal" in2="shape" result="effect1_innerShadow_2741_12445"/>
</filter>
<filter id="filter1_i_2741_12445" x="35.5083" y="28.6005" width="41.4917" height="35.3987" filterUnits="userSpaceOnUse" color-interpolation-filters="sRGB">
<feFlood flood-opacity="0" result="BackgroundImageFix"/>
<feBlend mode="normal" in="SourceGraphic" in2="BackgroundImageFix" result="shape"/>
<feColorMatrix in="SourceAlpha" type="matrix" values="0 0 0 0 0 0 0 0 0 0 0 0 0 0 0 0 0 0 127 0" result="hardAlpha"/>
<feOffset/>
<feGaussianBlur stdDeviation="2.02667"/>
<feComposite in2="hardAlpha" operator="arithmetic" k2="-1" k3="1"/>
<feColorMatrix type="matrix" values="0 0 0 0 1 0 0 0 0 0.800542 0 0 0 0 0.202167 0 0 0 0.25 0"/>
<feBlend mode="normal" in2="shape" result="effect1_innerShadow_2741_12445"/>
</filter>
<filter id="filter2_i_2741_12445" x="47.2266" y="40.6321" width="11.4219" height="15.4753" filterUnits="userSpaceOnUse" color-interpolation-filters="sRGB">
<feFlood flood-opacity="0" result="BackgroundImageFix"/>
<feBlend mode="normal" in="SourceGraphic" in2="BackgroundImageFix" result="shape"/>
<feColorMatrix in="SourceAlpha" type="matrix" values="0 0 0 0 0 0 0 0 0 0 0 0 0 0 0 0 0 0 127 0" result="hardAlpha"/>
<feOffset dy="4.05333"/>
<feGaussianBlur stdDeviation="2.02667"/>
<feComposite in2="hardAlpha" operator="arithmetic" k2="-1" k3="1"/>
<feColorMatrix type="matrix" values="0 0 0 0 1 0 0 0 0 1 0 0 0 0 1 0 0 0 0.25 0"/>
<feBlend mode="normal" in2="shape" result="effect1_innerShadow_2741_12445"/>
</filter>
<filter id="filter3_i_2741_12445" x="9.40674" y="18.535" width="37.2661" height="40.0518" filterUnits="userSpaceOnUse" color-interpolation-filters="sRGB">
<feFlood flood-opacity="0" result="BackgroundImageFix"/>
<feBlend mode="normal" in="SourceGraphic" in2="BackgroundImageFix" result="shape"/>
<feColorMatrix in="SourceAlpha" type="matrix" values="0 0 0 0 0 0 0 0 0 0 0 0 0 0 0 0 0 0 127 0" result="hardAlpha"/>
<feOffset/>
<feGaussianBlur stdDeviation="2.02667"/>
<feComposite in2="hardAlpha" operator="arithmetic" k2="-1" k3="1"/>
<feColorMatrix type="matrix" values="0 0 0 0 1 0 0 0 0 0.800542 0 0 0 0 0.202167 0 0 0 0.25 0"/>
<feBlend mode="normal" in2="shape" result="effect1_innerShadow_2741_12445"/>
</filter>
<filter id="filter4_i_2741_12445" x="25.8169" y="29.3202" width="11.1499" height="15.203" filterUnits="userSpaceOnUse" color-interpolation-filters="sRGB">
<feFlood flood-opacity="0" result="BackgroundImageFix"/>
<feBlend mode="normal" in="SourceGraphic" in2="BackgroundImageFix" result="shape"/>
<feColorMatrix in="SourceAlpha" type="matrix" values="0 0 0 0 0 0 0 0 0 0 0 0 0 0 0 0 0 0 127 0" result="hardAlpha"/>
<feOffset dy="4.05333"/>
<feGaussianBlur stdDeviation="2.02667"/>
<feComposite in2="hardAlpha" operator="arithmetic" k2="-1" k3="1"/>
<feColorMatrix type="matrix" values="0 0 0 0 1 0 0 0 0 1 0 0 0 0 1 0 0 0 0.25 0"/>
<feBlend mode="normal" in2="shape" result="effect1_innerShadow_2741_12445"/>
</filter>
<filter id="filter5_i_2741_12445" x="21.4951" y="60.8565" width="47.0234" height="14.7513" filterUnits="userSpaceOnUse" color-interpolation-filters="sRGB">
<feFlood flood-opacity="0" result="BackgroundImageFix"/>
<feBlend mode="normal" in="SourceGraphic" in2="BackgroundImageFix" result="shape"/>
<feColorMatrix in="SourceAlpha" type="matrix" values="0 0 0 0 0 0 0 0 0 0 0 0 0 0 0 0 0 0 127 0" result="hardAlpha"/>
<feOffset/>
<feGaussianBlur stdDeviation="2.30981"/>
<feComposite in2="hardAlpha" operator="arithmetic" k2="-1" k3="1"/>
<feColorMatrix type="matrix" values="0 0 0 0 0.937255 0 0 0 0 0.564706 0 0 0 0 0.564706 0 0 0 1 0"/>
<feBlend mode="normal" in2="shape" result="effect1_innerShadow_2741_12445"/>
</filter>
<filter id="filter6_i_2741_12445" x="10.7197" y="51.4189" width="46.5454" height="16.3498" filterUnits="userSpaceOnUse" color-interpolation-filters="sRGB">
<feFlood flood-opacity="0" result="BackgroundImageFix"/>
<feBlend mode="normal" in="SourceGraphic" in2="BackgroundImageFix" result="shape"/>
<feColorMatrix in="SourceAlpha" type="matrix" values="0 0 0 0 0 0 0 0 0 0 0 0 0 0 0 0 0 0 127 0" result="hardAlpha"/>
<feOffset/>
<feGaussianBlur stdDeviation="2.30981"/>
<feComposite in2="hardAlpha" operator="arithmetic" k2="-1" k3="1"/>
<feColorMatrix type="matrix" values="0 0 0 0 0.937255 0 0 0 0 0.564706 0 0 0 0 0.564706 0 0 0 1 0"/>
<feBlend mode="normal" in2="shape" result="effect1_innerShadow_2741_12445"/>
</filter>
<linearGradient id="paint0_linear_2741_12445" x1="80.8516" y1="19.2781" x2="94.8769" y2="19.8462" gradientUnits="userSpaceOnUse">
<stop stop-color="#6C4836"/>
<stop offset="1" stop-color="#6C4836" stop-opacity="0"/>
</linearGradient>
<clipPath id="clip0_2741_12445">
<rect width="112" height="77" fill="white"/>
</clipPath>
</defs>
</svg>
