<svg width="397" height="486" viewBox="0 0 397 486" fill="none" xmlns="http://www.w3.org/2000/svg">
<g filter="url(#filter0_i_3345_9251)">
<path d="M378.796 268.738L396.047 282.253L396.555 437.922C387.76 431.248 368.648 416.999 362.559 413.395C356.471 409.791 348.86 406.554 345.815 405.386L195.627 466.953C194.612 468.622 191.466 472.359 187.001 473.961C182.536 475.563 177.361 474.962 175.331 474.462C155.712 432.75 113.429 348.925 101.251 347.323C89.0739 345.722 80.2791 337.646 77.4039 333.809C72.127 318.592 81.6322 310.45 87.0444 308.281L84 301.774C78.4187 302.775 63.7042 299.772 57.6155 289.26C52.7445 280.851 58.6303 270.073 62.1821 265.735L61.6747 264.734C56.8037 263.532 43.0547 251 39.3493 244.211C37.3197 232.198 46.2837 218.85 51.0194 213.678L52.5415 205.669C41.7171 202.166 19.6624 194.958 18.0388 194.157C16.4151 193.356 15.3327 191.487 14.9944 190.653L10.9353 187.149C9.92045 182.134 10.9353 175.126 13.9796 170.631L24.6349 167.628C27.0704 166.026 31.7384 165.292 33.768 165.126L265.14 184.146C265.647 185.648 267.677 188.351 271.736 187.149C276.81 185.648 266.154 170.131 262.603 162.122C259.051 154.114 259.051 150.61 256.007 142.601C253.571 136.194 248.565 134.926 246.366 135.093L225.563 77.5304C227.085 70.0227 232.768 58.6098 239.263 59.0103C247.381 59.5108 254.484 77.5304 260.066 86.0396C264.531 92.847 282.391 108.564 286.958 115.071C289.495 123.08 319.938 168.629 319.938 168.629C319.938 168.629 324.008 172.494 326.534 175.637C329.06 178.78 332.623 187.149 332.623 187.149C332.623 187.149 346.44 215.767 355.456 231.698C364.472 247.629 378.796 268.738 378.796 268.738Z" fill="#A05959"/>
</g>
<rect width="211.724" height="439.073" rx="19.7888" transform="matrix(-0.938453 0.345407 0.345407 0.938453 198.693 0)" fill="#4D9AEC"/>
<rect width="196.931" height="404.984" rx="15" transform="matrix(-0.938453 0.345407 0.345407 0.938453 193.986 8.62891)" fill="white"/>
<mask id="mask0_3345_9251" style="mask-type:alpha" maskUnits="userSpaceOnUse" x="13" y="12" width="317" height="441">
<rect width="196.931" height="404.984" rx="15" transform="matrix(-0.938453 0.345407 0.345407 0.938453 193.987 8.62891)" fill="white"/>
</mask>
<g mask="url(#mask0_3345_9251)">
<path d="M53.6934 139.438L199.703 85.9474" stroke="#8A959C" stroke-width="5" stroke-linecap="round"/>
<path d="M77.3066 81.7988L183.411 42.9279" stroke="#4D9AEC" stroke-width="5" stroke-linecap="round"/>
<path d="M82.4669 95.8838L137.866 75.5884" stroke="#6EABEB" stroke-width="5" stroke-linecap="round"/>
<path d="M115.265 307.519L261.274 254.028" stroke="#8A959C" stroke-width="5" stroke-linecap="round"/>
<path d="M60.5734 158.217L206.583 104.727" stroke="#8A959C" stroke-width="5" stroke-linecap="round"/>
<path d="M213.376 211.936L237.789 202.992" stroke="#8A959C" stroke-width="5" stroke-linecap="round"/>
<path d="M219.818 226.614L243.293 218.015" stroke="#8A959C" stroke-width="5" stroke-linecap="round"/>
<path d="M122.146 326.299L268.155 272.809" stroke="#8A959C" stroke-width="5" stroke-linecap="round"/>
<path d="M187.191 194.544C191.206 205.501 191.622 217.454 188.381 228.665C185.139 239.876 178.408 249.761 169.165 256.886C159.922 264.01 148.648 268.003 136.981 268.283C125.315 268.564 113.862 265.118 104.288 258.446C94.7128 251.774 87.5143 242.223 83.7375 231.181C79.9608 220.139 79.8025 208.18 83.2856 197.042C86.7687 185.904 93.7119 176.166 103.107 169.243C112.501 162.32 123.859 158.572 135.529 158.543L135.662 213.421L187.191 194.544Z" fill="#56D5CC"/>
<path d="M140.66 145.345C153.233 145.524 165.464 149.47 175.771 156.673C186.078 163.876 193.988 174.005 198.478 185.751L139.765 208.195L140.66 145.345Z" fill="#B4F2ED"/>
<circle cx="204.926" cy="215.03" r="4" transform="rotate(-20.1202 204.926 215.03)" fill="#B4F2ED"/>
<circle cx="210.43" cy="230.054" r="4" transform="rotate(-20.1202 210.43 230.054)" fill="#56D5CC"/>
<rect x="151.248" y="347.585" width="21" height="74" rx="5" transform="rotate(-20.1202 151.248 347.585)" fill="#B4F2ED"/>
<rect x="189.895" y="360.052" width="21" height="49" rx="5" transform="rotate(-20.1202 189.895 360.052)" fill="#9EE2DD"/>
<rect x="214.438" y="334.021" width="21" height="65" rx="5" transform="rotate(-20.1202 214.438 334.021)" fill="#B4F2ED"/>
<rect x="258.933" y="362.449" width="21" height="23" rx="5" transform="rotate(-20.1202 258.933 362.449)" fill="#9EE2DD"/>
<path d="M157.579 423.009L303.589 369.519" stroke="#8A959C" stroke-width="5" stroke-linecap="round"/>
<mask id="mask1_3345_9251" style="mask-type:alpha" maskUnits="userSpaceOnUse" x="38" y="84" width="37" height="37">
<circle cx="56.0825" cy="102.354" r="18" transform="rotate(-20.1202 56.0825 102.354)" fill="#B4F2ED"/>
</mask>
<g mask="url(#mask1_3345_9251)">
<ellipse cx="56.4265" cy="103.293" rx="18" ry="19" transform="rotate(-20.1202 56.4265 103.293)" fill="#E7EEF7"/>
<ellipse cx="60.5547" cy="114.561" rx="18" ry="8" transform="rotate(-20.1202 60.5547 114.561)" fill="#B9D0EA"/>
<circle cx="55.3479" cy="98.8958" r="10.5" transform="rotate(-20.1202 55.3479 98.8958)" fill="#B9D0EA"/>
</g>
<rect x="-4" y="-5.00098" width="374" height="485" fill="white" fill-opacity="0.7"/>
<rect x="84.4971" y="176.938" width="124" height="165" transform="rotate(-20.6726 84.4971 176.938)" fill="#4D9AEC"/>
<path d="M200.513 133.163L172.444 143.754L210.397 159.36L200.513 133.163Z" fill="white"/>
<path d="M182.329 169.951L210.397 159.36L172.444 143.754L182.329 169.951Z" fill="#1E7BDE"/>
<path d="M153.005 308.205C152.524 308.387 152.059 308.375 151.607 308.171C151.156 307.967 150.84 307.625 150.658 307.145L142.289 284.962C142.099 284.46 142.11 283.994 142.323 283.565C142.527 283.113 142.869 282.797 143.349 282.616L149.903 280.143C151.541 279.525 153.129 279.337 154.668 279.58C156.207 279.823 157.569 280.457 158.755 281.482C159.953 282.477 160.866 283.804 161.492 285.464C162.094 287.059 162.269 288.615 162.018 290.132C161.789 291.641 161.173 292.984 160.17 294.161C159.167 295.338 157.846 296.235 156.208 296.853L151.358 298.683L154.066 305.859C154.247 306.339 154.236 306.805 154.032 307.257C153.85 307.7 153.507 308.016 153.005 308.205ZM150.172 295.538L155.021 293.708C156.026 293.329 156.828 292.777 157.428 292.051C158.027 291.326 158.401 290.499 158.55 289.569C158.698 288.64 158.587 287.684 158.216 286.701C157.82 285.652 157.256 284.817 156.522 284.196C155.78 283.552 154.941 283.146 154.003 282.975C153.065 282.805 152.094 282.91 151.089 283.289L146.24 285.118L150.172 295.538ZM173.419 300.503C172.939 300.684 172.473 300.673 172.021 300.469C171.57 300.265 171.254 299.922 171.073 299.442L162.703 277.26C162.513 276.757 162.525 276.291 162.737 275.862C162.941 275.411 163.283 275.094 163.764 274.913L169.694 272.675C171.573 271.967 173.396 271.64 175.164 271.697C176.946 271.723 178.623 272.101 180.196 272.83C181.76 273.538 183.141 274.551 184.337 275.871C185.534 277.191 186.487 278.791 187.196 280.669C187.905 282.548 188.25 284.389 188.232 286.192C188.205 287.974 187.843 289.658 187.144 291.244C186.436 292.809 185.427 294.2 184.115 295.419C182.817 296.607 181.228 297.556 179.35 298.265L173.419 300.503ZM173.986 296.845L178.212 295.251C180.047 294.558 181.507 293.533 182.592 292.176C183.69 290.788 184.367 289.21 184.623 287.442C184.871 285.651 184.636 283.806 183.919 281.906C183.194 279.983 182.151 278.443 180.791 277.284C179.43 276.126 177.884 275.399 176.151 275.105C174.439 274.803 172.666 274.997 170.832 275.69L166.605 277.285L173.986 296.845ZM197.017 291.599C196.536 291.78 196.07 291.769 195.619 291.565C195.168 291.361 194.851 291.018 194.67 290.538L186.3 268.356C186.111 267.853 186.122 267.388 186.334 266.958C186.538 266.507 186.881 266.191 187.361 266.009L202.171 260.421C202.674 260.232 203.135 260.232 203.557 260.422C203.969 260.591 204.267 260.916 204.448 261.396C204.621 261.855 204.608 262.284 204.41 262.683C204.211 263.083 203.86 263.377 203.358 263.567L190.252 268.512L193.256 276.474L202.66 272.926C203.162 272.736 203.624 272.736 204.045 272.927C204.458 273.095 204.751 273.409 204.924 273.868C205.097 274.326 205.089 274.766 204.898 275.188C204.7 275.587 204.349 275.881 203.847 276.071L194.443 279.619L198.078 289.252C198.259 289.733 198.248 290.199 198.044 290.65C197.84 291.101 197.497 291.417 197.017 291.599Z" fill="white"/>
<path d="M142.599 271.959C140.983 272.519 139.629 272.538 138.537 272.017C137.459 271.503 136.643 270.447 136.09 268.851L129.554 249.993C129.001 248.397 128.988 247.063 129.517 245.992C130.052 244.907 131.127 244.084 132.744 243.524L151.479 237.03C153.096 236.47 154.445 236.452 155.527 236.977C156.615 237.488 157.436 238.541 157.989 240.137L164.525 258.996C165.078 260.592 165.085 261.927 164.547 263.002C164.022 264.084 162.951 264.905 161.335 265.465L142.599 271.959ZM141.768 269.461L160.442 262.989C161.204 262.725 161.721 262.321 161.994 261.776C162.273 261.218 162.274 260.537 161.996 259.734L155.545 241.123C155.266 240.319 154.847 239.79 154.285 239.535C153.731 239.266 153.072 239.263 152.31 239.527L133.637 246C132.865 246.267 132.344 246.678 132.075 247.233C131.802 247.777 131.805 248.451 132.083 249.254L138.534 267.866C138.812 268.669 139.229 269.205 139.783 269.474C140.335 269.733 140.996 269.729 141.768 269.461ZM153.211 256.603C152.871 256.72 152.556 256.709 152.265 256.567C151.984 256.422 151.779 256.165 151.651 255.794L150.725 253.122L150.126 250.648L148.737 253.776L145.013 261.451C144.858 261.77 144.606 261.99 144.256 262.111C143.916 262.229 143.607 262.221 143.33 262.086C143.049 261.941 142.848 261.694 142.727 261.344C142.623 261.045 142.652 260.729 142.814 260.397L146.538 252.722L148.155 249.653L145.955 250.692L143.144 251.666C142.773 251.795 142.439 251.795 142.141 251.668C141.854 251.537 141.649 251.296 141.528 250.946C141.41 250.606 141.423 250.296 141.568 250.015C141.713 249.734 141.966 249.531 142.326 249.406L149.663 246.864C150.054 246.728 150.397 246.719 150.691 246.836C150.996 246.95 151.228 247.238 151.389 247.701L153.91 254.976C154.035 255.336 154.036 255.671 153.912 255.979C153.785 256.277 153.551 256.485 153.211 256.603Z" fill="white"/>
</g>
<defs>
<filter id="filter0_i_3345_9251" x="10.5547" y="59" width="386" height="416" filterUnits="userSpaceOnUse" color-interpolation-filters="sRGB">
<feFlood flood-opacity="0" result="BackgroundImageFix"/>
<feBlend mode="normal" in="SourceGraphic" in2="BackgroundImageFix" result="shape"/>
<feColorMatrix in="SourceAlpha" type="matrix" values="0 0 0 0 0 0 0 0 0 0 0 0 0 0 0 0 0 0 127 0" result="hardAlpha"/>
<feOffset/>
<feGaussianBlur stdDeviation="10.55"/>
<feComposite in2="hardAlpha" operator="arithmetic" k2="-1" k3="1"/>
<feColorMatrix type="matrix" values="0 0 0 0 0.576471 0 0 0 0 0.176471 0 0 0 0 0.176471 0 0 0 1 0"/>
<feBlend mode="normal" in2="shape" result="effect1_innerShadow_3345_9251"/>
</filter>
</defs>
</svg>
