<svg width="112" height="77" viewBox="0 0 112 77" fill="none" xmlns="http://www.w3.org/2000/svg">
<g clip-path="url(#clip0_2741_12513)">
<rect width="112" height="77" fill="#9BC1EC"/>
<g filter="url(#filter0_i_2741_12513)">
<circle cx="43" cy="47" r="38" fill="#FCFDFE"/>
</g>
<circle opacity="0.5" cx="43.0002" cy="47.0002" r="25.3333" fill="#EDF5FF" stroke="#1E7BDE" stroke-width="1.01333"/>
<path d="M101 13.6058L104.155 11.3887" stroke="#FCFDFE" stroke-width="5.14162" stroke-linecap="round"/>
<circle cx="91.1304" cy="20.1294" r="13.4968" transform="rotate(-35.0945 91.1304 20.1294)" fill="#FCFDFE"/>
<circle cx="91.2416" cy="20.2905" r="11.5686" transform="rotate(-35.0945 91.2416 20.2905)" fill="#F3D079"/>
<path d="M89.3318 10.6094C89.3318 10.6094 89.3318 10.6094 89.3318 10.6094C88.9215 10.6608 88.5098 10.7582 88.1056 10.8789C84.9007 11.8062 81.9064 14.6508 81.4587 18.5675C81.3811 19.2436 81.3773 19.9253 81.4467 20.6022C81.7754 24.4853 84.6531 27.9153 88.0045 28.8924C88.3996 29.0155 88.8006 29.1131 89.1981 29.1587C88.9588 28.8419 88.7492 28.5106 88.5519 28.1803C86.8942 25.335 86.4606 22.7465 86.4911 20.305C86.4977 19.9135 86.5232 19.5349 86.5668 19.154C86.801 17.0581 87.4744 14.6173 88.7964 11.6969C88.9632 11.337 89.1371 10.9711 89.3318 10.6094Z" fill="url(#paint0_linear_2741_12513)"/>
<path d="M35.6118 24.5062C31.1113 22.5482 25.7211 28.0665 21.2962 32.7652C16.8714 37.4639 11.1354 48.8617 13.5879 54.7891C16.0403 60.7165 20.3176 64.6664 26.2516 65.2505C32.1857 65.8346 39.4 62.6359 40.0166 58.6433C40.6332 54.6507 36.0016 53.3042 35.6118 49.2831C35.222 45.2621 42.1014 40.407 41.6684 35.5182C41.2354 30.6293 40.1123 26.4641 35.6118 24.5062Z" fill="#8E5028"/>
<path d="M37.3008 26.0126C32.8003 24.0547 27.4101 29.5729 22.9852 34.2716C18.5603 38.9703 12.8244 50.3682 15.2768 56.2956C17.7293 62.223 22.0065 66.1729 27.9406 66.757C33.8747 67.3411 41.089 64.1424 41.7056 60.1498C42.3221 56.1572 37.6906 54.8107 37.3008 50.7896C36.911 46.7686 43.7904 41.9135 43.3574 37.0246C42.9244 32.1358 41.8013 27.9706 37.3008 26.0126Z" fill="#734120"/>
<path d="M17.9937 52.0363L31.208 59.7446" stroke="#583017"/>
<path d="M21.2969 44.3273L34.5113 52.0357" stroke="#583017"/>
<path d="M24.6006 36.6194L37.815 44.3278" stroke="#583017"/>
<path d="M31.0269 31.385L39.0966 36.3462" stroke="#583017"/>
<ellipse cx="57.765" cy="35.2141" rx="13.765" ry="13.2144" fill="url(#paint1_radial_2741_12513)"/>
<ellipse cx="57.7655" cy="35.2137" rx="9.36018" ry="8.80958" fill="#E8E8E8"/>
<path d="M51.709 30.8085C51.6975 30.8601 51.6876 30.911 51.6791 30.9611C51.6028 31.4122 51.6472 31.8029 51.8124 32.1333C51.8124 32.1333 51.8124 32.1333 51.8124 32.1333C51.9775 32.4636 52.2635 32.7336 52.6702 32.9432C52.7153 32.9665 52.762 32.9891 52.8102 33.0109C52.8216 32.9593 52.8316 32.9084 52.8401 32.8583C52.9164 32.4072 52.872 32.0164 52.7068 31.6861C52.7068 31.6861 52.7068 31.6861 52.7068 31.6861C52.5416 31.3557 52.2557 31.0857 51.849 30.8761C51.8038 30.8528 51.7572 30.8303 51.709 30.8085Z" fill="#D9D9D9"/>
<path d="M56.8213 29.7076C56.7724 29.7277 56.7249 29.7485 56.6789 29.7701C56.2648 29.9647 55.9692 30.2241 55.7921 30.5482C55.7921 30.5482 55.7921 30.5482 55.7921 30.5482C55.6149 30.8723 55.5562 31.2611 55.616 31.7147C55.6226 31.7651 55.6308 31.8163 55.6403 31.8683C55.6893 31.8483 55.7367 31.8275 55.7827 31.8058C56.1968 31.6112 56.4924 31.3519 56.6695 31.0278C56.6695 31.0278 56.6695 31.0278 56.6695 31.0278C56.8467 30.7037 56.9054 30.3148 56.8456 29.8612C56.839 29.8108 56.8309 29.7596 56.8213 29.7076Z" fill="#D9D9D9"/>
<path d="M56.8213 38.5173C56.7724 38.5374 56.7249 38.5582 56.6789 38.5798C56.2648 38.7744 55.9692 39.0338 55.7921 39.3579C55.7921 39.3579 55.7921 39.3579 55.7921 39.3579C55.6149 39.682 55.5562 40.0708 55.616 40.5244C55.6226 40.5748 55.6308 40.626 55.6403 40.678C55.6893 40.658 55.7367 40.6372 55.7827 40.6155C56.1968 40.4209 56.4924 40.1616 56.6695 39.8375C56.6695 39.8375 56.6695 39.8375 56.6695 39.8375C56.8467 39.5134 56.9054 39.1245 56.8456 38.6709C56.839 38.6205 56.8309 38.5693 56.8213 38.5173Z" fill="#D9D9D9"/>
<path d="M64.5293 31.9103C64.4804 31.9303 64.4329 31.9511 64.3869 31.9727C63.9728 32.1674 63.6772 32.4267 63.5001 32.7508C63.5001 32.7508 63.5001 32.7508 63.5001 32.7508C63.3229 33.0749 63.2642 33.4638 63.324 33.9174C63.3307 33.9678 63.3388 34.019 63.3483 34.0709C63.3973 34.0509 63.4447 34.0301 63.4907 34.0085C63.9048 33.8139 64.2004 33.5545 64.3776 33.2304C64.3776 33.2304 64.3776 33.2304 64.3776 33.2304C64.5547 32.9063 64.6134 32.5175 64.5536 32.0639C64.547 32.0135 64.5389 31.9623 64.5293 31.9103Z" fill="#D9D9D9"/>
<path d="M61.2256 28.6068C61.1767 28.6268 61.1292 28.6476 61.0832 28.6692C60.6691 28.8638 60.3735 29.1232 60.1964 29.4473C60.1964 29.4473 60.1964 29.4473 60.1964 29.4473C60.0192 29.7714 59.9605 30.1602 60.0203 30.6138C60.0269 30.6642 60.035 30.7154 60.0446 30.7674C60.0935 30.7474 60.141 30.7266 60.187 30.7049C60.6011 30.5103 60.8967 30.251 61.0738 29.9269C61.0738 29.9269 61.0738 29.9269 61.0738 29.9269C61.251 29.6028 61.3097 29.2139 61.2499 28.7603C61.2433 28.7099 61.2352 28.6587 61.2256 28.6068Z" fill="#D9D9D9"/>
<path d="M51.3149 35.2138C51.266 35.2338 51.2185 35.2547 51.1725 35.2763C50.7585 35.4709 50.4629 35.7302 50.2857 36.0543C50.2857 36.0543 50.2857 36.0543 50.2857 36.0543C50.1086 36.3784 50.0499 36.7673 50.1097 37.2209C50.1163 37.2713 50.1244 37.3225 50.134 37.3745C50.1829 37.3545 50.2304 37.3336 50.2764 37.312C50.6904 37.1174 50.9861 36.858 51.1632 36.5339C51.1632 36.5339 51.1632 36.5339 51.1632 36.5339C51.3403 36.2098 51.399 35.821 51.3393 35.3674C51.3326 35.317 51.3245 35.2658 51.3149 35.2138Z" fill="#D9D9D9"/>
<path d="M55.7192 34.113C55.6703 34.133 55.6228 34.1538 55.5768 34.1754C55.1628 34.3701 54.8672 34.6294 54.69 34.9535C54.69 34.9535 54.69 34.9535 54.69 34.9535C54.5129 35.2776 54.4542 35.6665 54.514 36.12C54.5206 36.1704 54.5287 36.2216 54.5383 36.2736C54.5872 36.2536 54.6347 36.2328 54.6807 36.2112C55.0947 36.0166 55.3903 35.7572 55.5675 35.4331C55.5675 35.4331 55.5675 35.4331 55.5675 35.4331C55.7446 35.109 55.8033 34.7202 55.7436 34.2666C55.7369 34.2162 55.7288 34.165 55.7192 34.113Z" fill="#D9D9D9"/>
<path d="M60.125 39.6182C60.0761 39.6382 60.0286 39.6591 59.9826 39.6807C59.5685 39.8753 59.2729 40.1347 59.0958 40.4588C59.0958 40.4588 59.0958 40.4588 59.0958 40.4588C58.9186 40.7829 58.8599 41.1717 58.9197 41.6253C58.9264 41.6757 58.9345 41.7269 58.944 41.7789C58.993 41.7589 59.0404 41.738 59.0864 41.7164C59.5005 41.5218 59.7961 41.2625 59.9733 40.9384C59.9733 40.9384 59.9733 40.9384 59.9733 40.9384C60.1504 40.6143 60.2091 40.2254 60.1493 39.7718C60.1427 39.7214 60.1346 39.6702 60.125 39.6182Z" fill="#D9D9D9"/>
<path d="M62.3267 36.3147C62.2777 36.3347 62.2303 36.3555 62.1843 36.3772C61.7702 36.5718 61.4746 36.8311 61.2974 37.1552C61.2974 37.1552 61.2974 37.1552 61.2974 37.1552C61.1203 37.4793 61.0616 37.8682 61.1214 38.3218C61.128 38.3722 61.1361 38.4234 61.1457 38.4754C61.1946 38.4553 61.2421 38.4345 61.2881 38.4129C61.7022 38.2183 61.9978 37.9589 62.1749 37.6348C62.1749 37.6348 62.1749 37.6348 62.1749 37.6348C62.3521 37.3107 62.4107 36.9219 62.351 36.4683C62.3443 36.4179 62.3362 36.3667 62.3267 36.3147Z" fill="#D9D9D9"/>
<path d="M64.5293 38.5173C64.4804 38.5374 64.4329 38.5582 64.3869 38.5798C63.9728 38.7744 63.6772 39.0338 63.5001 39.3579C63.5001 39.3579 63.5001 39.3579 63.5001 39.3579C63.3229 39.682 63.2642 40.0708 63.324 40.5244C63.3307 40.5748 63.3388 40.626 63.3483 40.678C63.3973 40.658 63.4447 40.6372 63.4907 40.6155C63.9048 40.4209 64.2004 40.1616 64.3776 39.8375C64.3776 39.8375 64.3776 39.8375 64.3776 39.8375C64.5547 39.5134 64.6134 39.1245 64.5536 38.6709C64.547 38.6205 64.5389 38.5693 64.5293 38.5173Z" fill="#D9D9D9"/>
<path d="M53.5176 38.5173C53.4686 38.5374 53.4212 38.5582 53.3752 38.5798C52.9611 38.7744 52.6655 39.0338 52.4884 39.3579C52.4884 39.3579 52.4884 39.3579 52.4884 39.3579C52.3112 39.682 52.2525 40.0708 52.3123 40.5244C52.3189 40.5748 52.327 40.626 52.3366 40.678C52.3855 40.658 52.433 40.6372 52.479 40.6155C52.8931 40.4209 53.1887 40.1616 53.3658 39.8375C53.3658 39.8375 53.3658 39.8375 53.3658 39.8375C53.543 39.5134 53.6017 39.1245 53.5419 38.6709C53.5352 38.6205 53.5271 38.5693 53.5176 38.5173Z" fill="#D9D9D9"/>
<path d="M60.125 33.0112C60.0761 33.0312 60.0286 33.052 59.9826 33.0736C59.5685 33.2682 59.2729 33.5276 59.0958 33.8517C59.0958 33.8517 59.0958 33.8517 59.0958 33.8517C58.9186 34.1758 58.8599 34.5646 58.9197 35.0182C58.9264 35.0686 58.9345 35.1198 58.944 35.1718C58.993 35.1518 59.0404 35.131 59.0864 35.1094C59.5005 34.9148 59.7961 34.6554 59.9733 34.3313C59.9733 34.3313 59.9733 34.3313 59.9733 34.3313C60.1504 34.0072 60.2091 33.6184 60.1493 33.1648C60.1427 33.1144 60.1346 33.0632 60.125 33.0112Z" fill="#D9D9D9"/>
<mask id="mask0_2741_12513" style="mask-type:alpha" maskUnits="userSpaceOnUse" x="33" y="32" width="23" height="31">
<path d="M33.5746 52.0783C32.1615 55.1141 40.8076 61.7464 40.8076 61.7464L47.4888 62.8577C47.4888 62.8577 54.626 58.1443 54.3047 55.8086C53.9833 53.473 51.634 53.7143 51.3747 51.3709C51.1153 49.0276 55.739 47.3316 55.3383 44.5058C54.9376 41.6799 49.6066 41.1057 49.9524 39.5655C50.2981 38.0253 52.3781 38.0891 52.6207 36.5293C52.8632 34.9695 50.3772 32.488 50.3772 32.488C50.3772 32.488 45.6656 32.3347 44.9628 33.9387C44.26 35.5428 45.1965 35.7842 44.7508 37.4777C44.3051 39.1713 39.6765 36.2218 37.5667 38.8221C35.4568 41.4224 39.5622 44.3572 38.1158 47.3773C36.6695 50.3974 34.9877 49.0425 33.5746 52.0783Z" fill="url(#paint2_radial_2741_12513)"/>
</mask>
<g mask="url(#mask0_2741_12513)">
<path d="M33.5746 52.0783C32.1615 55.1141 40.8076 61.7464 40.8076 61.7464L47.4888 62.8577C47.4888 62.8577 54.626 58.1443 54.3047 55.8086C53.9833 53.473 51.634 53.7143 51.3747 51.3709C51.1153 49.0276 55.739 47.3316 55.3383 44.5058C54.9376 41.6799 49.6066 41.1057 49.9524 39.5655C50.2981 38.0253 52.3781 38.0891 52.6207 36.5293C52.8632 34.9695 50.3772 32.488 50.3772 32.488C50.3772 32.488 45.6656 32.3347 44.9628 33.9387C44.26 35.5428 45.1965 35.7842 44.7508 37.4777C44.3051 39.1713 39.6765 36.2218 37.5667 38.8221C35.4568 41.4224 39.5622 44.3572 38.1158 47.3773C36.6695 50.3974 34.9877 49.0425 33.5746 52.0783Z" fill="url(#paint3_radial_2741_12513)"/>
<path d="M50.1548 32.3599L42.4411 62.2384L43.6701 62.3122L50.1548 32.3599Z" fill="#9EDA8D"/>
<path d="M38.3203 50.6548L43.9857 58.4129L44.1178 57.5756L38.3203 50.6548Z" fill="#9EDA8D"/>
<path d="M40.8169 41.9244L46.1864 49.1421L46.2602 47.9131L40.8169 41.9244Z" fill="#9EDA8D"/>
<path d="M52.0386 55.0641L44.3237 58.4202L44.6763 57.7008L52.0386 55.0641Z" fill="#9EDA8D"/>
<path d="M53.5835 45.7823L46.1877 49.1417L46.7383 48.188L53.5835 45.7823Z" fill="#9EDA8D"/>
</g>
<mask id="mask1_2741_12513" style="mask-type:alpha" maskUnits="userSpaceOnUse" x="45" y="45" width="26" height="28">
<path d="M46.2516 56.0465C43.5087 57.9673 47.674 68.0367 47.674 68.0367L52.9017 72.3431C52.9017 72.3431 61.4398 71.8351 62.3307 69.6522C63.2216 67.4694 61.067 66.5023 62.0154 64.3438C62.9638 62.1854 67.8155 63.0315 68.883 60.3846C69.9506 57.7376 65.6229 54.5721 66.6932 53.4118C67.7635 52.2515 69.5322 53.3479 70.523 52.119C71.5137 50.89 70.6036 47.4974 70.6036 47.4974C70.6036 47.4974 66.6014 45.0063 65.1902 46.0432C63.7789 47.08 64.4687 47.7578 63.2352 49.0008C62.0016 50.2438 59.471 45.3736 56.3429 46.5687C53.2148 47.7637 55.2999 52.3593 52.536 54.2499C49.7722 56.1405 48.9945 54.1257 46.2516 56.0465Z" fill="url(#paint4_radial_2741_12513)"/>
</mask>
<g mask="url(#mask1_2741_12513)">
<path d="M46.2516 56.0465C43.5087 57.9673 47.674 68.0367 47.674 68.0367L52.9017 72.3431C52.9017 72.3431 61.4398 71.8351 62.3307 69.6522C63.2216 67.4694 61.067 66.5023 62.0154 64.3438C62.9638 62.1854 67.8155 63.0315 68.883 60.3846C69.9506 57.7376 65.6229 54.5721 66.6932 53.4118C67.7635 52.2515 69.5322 53.3479 70.523 52.119C71.5137 50.89 70.6036 47.4974 70.6036 47.4974C70.6036 47.4974 66.6014 45.0063 65.1902 46.0432C63.7789 47.08 64.4687 47.7578 63.2352 49.0008C62.0016 50.2438 59.471 45.3736 56.3429 46.5687C53.2148 47.7637 55.2999 52.3593 52.536 54.2499C49.7722 56.1405 48.9945 54.1257 46.2516 56.0465Z" fill="url(#paint5_radial_2741_12513)"/>
<path d="M70.4751 47.2736L48.8418 69.2786L49.8688 69.9576L70.4751 47.2736Z" fill="#9EDA8D"/>
<path d="M51.0723 57.1891L52.0936 66.7411L52.627 66.0824L51.0723 57.1891Z" fill="#9EDA8D"/>
<path d="M57.605 50.8806L58.6406 59.8167L59.3196 58.7897L57.605 50.8806Z" fill="#9EDA8D"/>
<path d="M60.7422 67.8733L52.3835 66.917L53.0488 66.4707L60.7422 67.8733Z" fill="#9EDA8D"/>
<path d="M66.7241 60.6107L58.64 59.817L59.594 59.267L66.7241 60.6107Z" fill="#9EDA8D"/>
</g>
<path d="M46.0406 58.244C43.6147 58.4263 43.4677 59.9581 41.0846 60.4466C38.7014 60.935 38.0312 59.0368 35.5792 59.8958C33.1272 60.7548 32.7723 63.7502 32.8262 66.503C32.8801 69.2558 34.4767 74.9929 42.7364 74.2115C50.996 73.4302 51.9495 69.2479 50.996 64.3006C50.5716 62.0987 48.4664 58.0617 46.0406 58.244Z" fill="url(#paint6_radial_2741_12513)"/>
<g style="mix-blend-mode:multiply" opacity="0.4">
<path d="M36.1265 62.0937C37.5331 61.7764 38.4685 63.342 39.98 64.8466C41.4919 66.3515 42.244 71.6907 39.98 72.0048C37.7161 72.3188 36.3403 70.1714 35.5757 68.1503C34.8111 66.1291 34.7195 62.4114 36.1265 62.0937ZM46.5483 60.7519C47.9895 60.7023 48.8461 64.3207 48.6206 66.4697C48.3949 68.6188 47.6098 71.0455 45.3403 71.3173C43.0708 71.5891 43.1133 66.6269 44.1929 64.787C45.2724 62.9472 45.1068 60.8023 46.5483 60.7519Z" fill="#C66049"/>
</g>
<circle cx="56.5" cy="-1.5" r="25.5" fill="#1E7BDE"/>
<path d="M56.5004 6.05407C56.306 6.05407 56.1387 5.9866 55.9984 5.85165C55.8634 5.71131 55.796 5.54398 55.796 5.34966V3.60887C55.796 3.41455 55.8634 3.24992 55.9984 3.11497C56.1387 2.97463 56.306 2.90446 56.5004 2.90446C56.6893 2.90446 56.8512 2.97463 56.9862 3.11497C57.1265 3.24992 57.1967 3.41455 57.1967 3.60887V5.34966C57.1967 5.54398 57.1265 5.71131 56.9862 5.85165C56.8512 5.9866 56.6893 6.05407 56.5004 6.05407ZM60.4677 7.71389C60.3328 7.57894 60.2653 7.41431 60.2653 7.21999C60.2653 7.02567 60.3328 6.86104 60.4677 6.72609L61.7146 5.4792C61.8496 5.34426 62.0142 5.27679 62.2085 5.27679C62.4028 5.27679 62.5675 5.34426 62.7024 5.4792C62.8374 5.61415 62.9048 5.78148 62.9048 5.9812C62.9048 6.17552 62.8374 6.34015 62.7024 6.4751L61.4636 7.71389C61.3287 7.85423 61.1614 7.9244 60.9616 7.9244C60.7673 7.919 60.6027 7.84883 60.4677 7.71389ZM62.1114 11.6894C62.1114 11.495 62.1788 11.3304 62.3138 11.1955C62.4541 11.0551 62.6215 10.9849 62.8158 10.9849H64.5566C64.7455 10.9849 64.9074 11.0551 65.0424 11.1955C65.1827 11.3304 65.2529 11.495 65.2529 11.6894C65.2529 11.8783 65.1827 12.0429 65.0424 12.1833C64.9074 12.3182 64.7455 12.3857 64.5566 12.3857H62.8158C62.6215 12.3857 62.4541 12.3182 62.3138 12.1833C62.1788 12.0429 62.1114 11.8783 62.1114 11.6894ZM60.4677 15.6648C60.6027 15.5353 60.7673 15.4705 60.9616 15.4705C61.156 15.4705 61.3206 15.5353 61.4555 15.6648L62.7024 16.9117C62.8374 17.0413 62.9048 17.2032 62.9048 17.3975C62.9048 17.5918 62.8374 17.7592 62.7024 17.8995C62.5675 18.0291 62.4028 18.0938 62.2085 18.0938C62.0142 18.0992 61.8496 18.0372 61.7146 17.9076L60.4677 16.6526C60.3328 16.5231 60.2653 16.3611 60.2653 16.1668C60.2653 15.9725 60.3328 15.8052 60.4677 15.6648ZM56.5004 17.3246C56.6893 17.3246 56.8512 17.3948 56.9862 17.5352C57.1265 17.6701 57.1967 17.832 57.1967 18.021V19.7698C57.1967 19.9588 57.1265 20.1207 56.9862 20.2556C56.8512 20.396 56.6893 20.4662 56.5004 20.4662C56.306 20.4662 56.1387 20.396 55.9984 20.2556C55.8634 20.1207 55.796 19.9588 55.796 19.7698V18.021C55.796 17.832 55.8634 17.6701 55.9984 17.5352C56.1387 17.3948 56.306 17.3246 56.5004 17.3246ZM52.5249 15.6648C52.6544 15.8052 52.7192 15.9725 52.7192 16.1668C52.7192 16.3611 52.6517 16.5231 52.5168 16.6526L51.278 17.8995C51.1431 18.0291 50.9757 18.0911 50.776 18.0857C50.5817 18.0857 50.4171 18.021 50.2821 17.8914C50.1526 17.7511 50.0878 17.5837 50.0878 17.3894C50.0878 17.1951 50.1553 17.0332 50.2902 16.9036L51.529 15.6648C51.6639 15.5353 51.8286 15.4705 52.0229 15.4705C52.2226 15.4705 52.3899 15.5353 52.5249 15.6648ZM50.8813 11.6894C50.8813 11.8783 50.8111 12.0429 50.6708 12.1833C50.5358 12.3182 50.3712 12.3857 50.1769 12.3857H48.4361C48.2471 12.3857 48.0825 12.3182 47.9422 12.1833C47.8072 12.0429 47.7398 11.8783 47.7398 11.6894C47.7398 11.495 47.8072 11.3304 47.9422 11.1955C48.0825 11.0551 48.2471 10.9849 48.4361 10.9849H50.1769C50.3712 10.9849 50.5358 11.0551 50.6708 11.1955C50.8111 11.3304 50.8813 11.495 50.8813 11.6894ZM52.5168 7.71389C52.3819 7.84883 52.2172 7.9163 52.0229 7.9163C51.8286 7.9163 51.6639 7.84883 51.529 7.71389L50.2902 6.467C50.1607 6.33745 50.0959 6.17552 50.0959 5.9812C50.0959 5.78148 50.1634 5.61415 50.2983 5.4792C50.4333 5.34426 50.5979 5.27949 50.7922 5.28488C50.9919 5.28488 51.1566 5.34966 51.2861 5.4792L52.5249 6.72609C52.6544 6.85564 52.7192 7.02027 52.7192 7.21999C52.7192 7.41971 52.6517 7.58434 52.5168 7.71389ZM56.4923 15.8106C55.9255 15.8106 55.3911 15.7053 54.8891 15.4948C54.3925 15.2789 53.9553 14.982 53.5775 14.6042C53.1996 14.2263 52.9027 13.7891 52.6868 13.2925C52.4763 12.7905 52.3711 12.2561 52.3711 11.6894C52.3711 11.1172 52.4763 10.5828 52.6868 10.0862C52.9027 9.58962 53.1996 9.1524 53.5775 8.77455C53.9553 8.39671 54.3925 8.09983 54.8891 7.88392C55.3911 7.66801 55.9255 7.56005 56.4923 7.56005C57.059 7.56005 57.5907 7.66801 58.0873 7.88392C58.5893 8.09983 59.0292 8.39671 59.4071 8.77455C59.7849 9.1524 60.0791 9.58962 60.2896 10.0862C60.5055 10.5828 60.6135 11.1172 60.6135 11.6894C60.6135 12.2561 60.5055 12.7905 60.2896 13.2925C60.0791 13.7891 59.7849 14.2263 59.4071 14.6042C59.0292 14.982 58.5893 15.2789 58.0873 15.4948C57.5907 15.7053 57.059 15.8106 56.4923 15.8106Z" fill="#FCFDFE"/>
</g>
<defs>
<filter id="filter0_i_2741_12513" x="5" y="9" width="76" height="76" filterUnits="userSpaceOnUse" color-interpolation-filters="sRGB">
<feFlood flood-opacity="0" result="BackgroundImageFix"/>
<feBlend mode="normal" in="SourceGraphic" in2="BackgroundImageFix" result="shape"/>
<feColorMatrix in="SourceAlpha" type="matrix" values="0 0 0 0 0 0 0 0 0 0 0 0 0 0 0 0 0 0 127 0" result="hardAlpha"/>
<feOffset/>
<feGaussianBlur stdDeviation="2.02667"/>
<feComposite in2="hardAlpha" operator="arithmetic" k2="-1" k3="1"/>
<feColorMatrix type="matrix" values="0 0 0 0 0.905882 0 0 0 0 0.933333 0 0 0 0 0.968627 0 0 0 1 0"/>
<feBlend mode="normal" in2="shape" result="effect1_innerShadow_2741_12513"/>
</filter>
<linearGradient id="paint0_linear_2741_12513" x1="80.8521" y1="19.2781" x2="94.8774" y2="19.8462" gradientUnits="userSpaceOnUse">
<stop stop-color="#F8E3B1"/>
<stop offset="1" stop-color="#F8E3B1" stop-opacity="0"/>
</linearGradient>
<radialGradient id="paint1_radial_2741_12513" cx="0" cy="0" r="1" gradientUnits="userSpaceOnUse" gradientTransform="translate(57.765 35.2141) rotate(90) scale(13.2144 13.765)">
<stop stop-color="#D9D9D9"/>
<stop offset="1" stop-color="#DDDDDD"/>
</radialGradient>
<radialGradient id="paint2_radial_2741_12513" cx="0" cy="0" r="1" gradientUnits="userSpaceOnUse" gradientTransform="translate(46.0603 47.3873) rotate(120) scale(15.0617 11.6771)">
<stop stop-color="#85BE73"/>
<stop offset="1" stop-color="#7FB26F"/>
</radialGradient>
<radialGradient id="paint3_radial_2741_12513" cx="0" cy="0" r="1" gradientUnits="userSpaceOnUse" gradientTransform="translate(46.0603 47.3873) rotate(120) scale(15.0617 11.6771)">
<stop stop-color="#85BE73"/>
<stop offset="1" stop-color="#7FB26F"/>
</radialGradient>
<radialGradient id="paint4_radial_2741_12513" cx="0" cy="0" r="1" gradientUnits="userSpaceOnUse" gradientTransform="translate(59.4087 58.2351) rotate(150.036) scale(15.0617 11.6771)">
<stop stop-color="#85BE73"/>
<stop offset="1" stop-color="#7FB26F"/>
</radialGradient>
<radialGradient id="paint5_radial_2741_12513" cx="0" cy="0" r="1" gradientUnits="userSpaceOnUse" gradientTransform="translate(59.4087 58.2351) rotate(150.036) scale(15.0617 11.6771)">
<stop stop-color="#85BE73"/>
<stop offset="1" stop-color="#7FB26F"/>
</radialGradient>
<radialGradient id="paint6_radial_2741_12513" cx="0" cy="0" r="1" gradientUnits="userSpaceOnUse" gradientTransform="translate(41.6309 65.3958) rotate(85.8151) scale(22.6349 26.0613)">
<stop stop-color="#C24C4C"/>
<stop offset="1" stop-color="#C2914C"/>
</radialGradient>
<clipPath id="clip0_2741_12513">
<rect width="112" height="77" fill="white"/>
</clipPath>
</defs>
</svg>
