<svg width="112" height="77" viewBox="0 0 112 77" fill="none" xmlns="http://www.w3.org/2000/svg">
<g clip-path="url(#clip0_2812_12301)">
<rect width="112" height="77" fill="#9BC1EC"/>
<path d="M55.2944 26.501C63.348 26.4547 70.4336 27.8437 75.5063 29.2451C78.0418 29.9456 80.0725 30.6488 81.4673 31.1758C82.1643 31.4391 82.7023 31.6585 83.0649 31.8115C83.1314 31.8396 83.192 31.8662 83.2466 31.8896L73.3462 78.6436H42.2485L29.5913 31.3135C29.6149 31.303 29.6397 31.2917 29.6655 31.2803C29.966 31.1479 30.416 30.958 31.0073 30.7285C32.1902 30.2695 33.9393 29.6537 36.1938 29.0352C40.7034 27.7979 47.2333 26.5473 55.2944 26.501Z" fill="url(#paint0_linear_2812_12301)" stroke="#C4D9F0"/>
<path d="M42.3398 81.3812L28.9995 31.595C28.9995 31.595 45.6017 35.4088 56.4099 35.5108C67.2181 35.6128 83.8202 31.595 83.8202 31.595L73.7511 81.3812H42.3398Z" fill="#C4D9F0"/>
<path d="M44.0691 80.9722L34 40.6957C34 40.6957 37.3564 43.4735 43.5097 44.052C49.6631 44.6306 60.2916 38.6381 66.4449 39.0173C72.5983 39.3965 77.6328 42.3743 77.6328 42.3743L69.8013 80.9722H44.0691Z" fill="#1E7BDE"/>
</g>
<defs>
<linearGradient id="paint0_linear_2812_12301" x1="56.4099" y1="26" x2="56.4099" y2="79.1437" gradientUnits="userSpaceOnUse">
<stop stop-color="#DFEBF8"/>
<stop offset="1" stop-color="#C4D9F0"/>
</linearGradient>
<clipPath id="clip0_2812_12301">
<rect width="112" height="77" fill="white"/>
</clipPath>
</defs>
</svg>
