<svg width="397" height="486" viewBox="0 0 397 486" fill="none" xmlns="http://www.w3.org/2000/svg">
<g filter="url(#filter0_i_3345_9161)">
<path d="M17.7588 268.738L0.507394 282.253L0 437.922C8.79483 431.248 27.9067 416.999 33.9954 413.395C40.0841 409.791 47.695 406.554 50.7394 405.386L200.928 466.953C201.943 468.622 205.089 472.359 209.554 473.961C214.019 475.563 219.194 474.962 221.224 474.461C240.843 432.75 283.126 348.925 295.303 347.323C307.481 345.722 316.276 337.646 319.151 333.809C324.428 318.592 314.923 310.45 309.51 308.281L312.555 301.774C318.136 302.775 332.85 299.772 338.939 289.26C343.81 280.851 337.924 270.073 334.373 265.735L334.88 264.734C339.751 263.532 353.5 251 357.205 244.211C359.235 232.198 350.271 218.85 345.535 213.678L344.013 205.669C354.838 202.166 376.892 194.958 378.516 194.157C380.14 193.356 381.222 191.487 381.56 190.653L385.619 187.149C386.634 182.134 385.619 175.126 382.575 170.631L371.92 167.628C369.484 166.026 364.816 165.292 362.787 165.125L131.415 184.146C130.908 185.648 128.878 188.351 124.819 187.149C119.745 185.648 130.4 170.131 133.952 162.122C137.504 154.114 137.504 150.61 140.548 142.601C142.984 136.194 147.99 134.926 150.189 135.093L170.992 77.5304C169.47 70.0227 163.787 58.6098 157.292 59.0103C149.174 59.5108 142.07 77.5304 136.489 86.0396C132.024 92.847 114.164 108.564 109.597 115.071C107.06 123.08 76.6165 168.629 76.6165 168.629C76.6165 168.629 72.5462 172.494 70.0204 175.637C67.4945 178.78 63.9316 187.149 63.9316 187.149C63.9316 187.149 50.1147 215.767 41.0989 231.698C32.0831 247.629 17.7588 268.738 17.7588 268.738Z" fill="#FFF2F2"/>
</g>
<rect x="197.859" width="211.724" height="439.073" rx="19.7888" transform="rotate(20.2067 197.859 0)" fill="#3188E4"/>
<rect x="202.566" y="8.62891" width="196.931" height="404.984" rx="15" transform="rotate(20.2067 202.566 8.62891)" fill="white"/>
<mask id="mask0_3345_9161" style="mask-type:alpha" maskUnits="userSpaceOnUse" x="66" y="12" width="318" height="441">
<rect x="202.566" y="8.62891" width="196.931" height="404.984" rx="15" transform="rotate(20.2067 202.566 8.62891)" fill="white"/>
</mask>
<g mask="url(#mask0_3345_9161)">
<path d="M231.674 179.606C244.671 181.997 256.59 188.406 265.753 197.929C274.916 207.451 280.861 219.608 282.751 232.688C284.64 245.767 282.379 259.109 276.286 270.836C270.193 282.563 260.575 292.082 248.786 298.054C236.997 304.027 223.632 306.15 210.573 304.126C197.514 302.102 185.418 296.033 175.991 286.772C166.563 277.512 160.277 265.527 158.02 252.506C155.762 239.486 157.646 226.084 163.406 214.19C163.406 214.19 166.66 208.125 172.204 211.087C177.748 214.048 174.774 219.696 174.774 219.696C170.166 229.211 168.659 239.932 170.465 250.348C172.271 260.765 177.299 270.353 184.841 277.761C192.384 285.169 202.06 290.025 212.507 291.644C222.954 293.264 233.647 291.565 243.078 286.787C252.509 282.009 260.203 274.393 265.078 265.012C269.952 255.631 271.761 244.957 270.249 234.493C268.738 224.03 263.982 214.304 256.651 206.686C249.321 199.068 239.786 193.941 229.388 192.028C229.388 192.028 222.486 190.38 223.54 184.551C224.593 178.722 231.674 179.606 231.674 179.606Z" fill="#11B8AD"/>
<path d="M208.476 280.267C200.469 277.782 193.444 272.847 188.389 266.158C183.335 259.469 180.506 251.363 180.302 242.982C180.097 234.601 182.526 226.367 187.248 219.439C191.97 212.511 198.746 207.239 206.622 204.366C214.497 201.492 223.076 201.161 231.15 203.42C239.224 205.679 246.385 210.414 251.626 216.958C256.867 223.501 259.923 231.524 260.364 239.896C260.805 248.268 258.609 256.568 254.084 263.626C254.084 263.626 251.604 266.447 247.881 264.105C244.159 261.762 245.652 258.22 245.652 258.22C249.045 252.927 250.693 246.702 250.362 240.423C250.031 234.144 247.739 228.127 243.808 223.219C239.878 218.311 234.506 214.76 228.451 213.066C222.396 211.372 215.962 211.62 210.055 213.775C204.148 215.931 199.066 219.884 195.525 225.08C191.983 230.276 190.161 236.452 190.315 242.738C190.468 249.023 192.59 255.103 196.381 260.119C200.171 265.136 205.44 268.837 211.445 270.701C211.445 270.701 216.363 272.087 215.16 276.824C213.957 281.561 208.476 280.267 208.476 280.267Z" fill="#4D9AEC"/>
<circle cx="206.445" cy="209.603" r="16.1876" transform="rotate(20.3916 206.445 209.603)" fill="#4D9AEC"/>
<circle cx="238.686" cy="291.583" r="18.7436" transform="rotate(20.3916 238.686 291.583)" fill="#11B8AD"/>
<g opacity="0.15">
<path d="M266.321 -6.2886C315.346 2.73201 360.306 26.905 394.869 62.8243C429.432 98.7436 451.856 144.6 458.983 193.935C466.11 243.271 457.582 293.599 434.598 337.832C411.615 382.065 375.335 417.973 330.868 440.5C286.401 463.027 235.988 471.037 186.728 463.403C137.469 455.768 91.8457 432.874 56.2839 397.943C20.7221 363.013 -2.98605 317.807 -11.5018 268.692C-20.0175 219.578 -12.9127 169.028 8.81416 124.165C8.81416 124.165 21.09 101.286 42.002 112.457C62.914 123.629 51.6939 144.931 51.6939 144.931C34.3124 180.821 28.6275 221.26 35.4401 260.552C42.2527 299.844 61.2194 336.009 89.6689 363.953C118.118 391.897 154.617 410.213 194.024 416.32C233.432 422.428 273.763 416.02 309.336 397.999C344.91 379.977 373.934 351.25 392.321 315.864C410.707 280.478 417.53 240.215 411.828 200.747C406.126 161.278 388.187 124.593 360.537 95.8575C332.887 67.1221 296.92 47.7852 257.7 40.5687C257.7 40.5687 231.666 34.3529 235.639 12.3654C239.612 -9.62205 266.321 -6.2886 266.321 -6.2886Z" fill="#11B8AD"/>
<path d="M178.841 373.401C148.64 364.025 122.141 345.411 103.076 320.18C84.0108 294.95 73.3408 264.375 72.5686 232.761C71.7964 201.147 80.9608 170.087 98.7712 143.956C116.582 117.825 142.14 97.9393 171.848 87.0998C201.556 76.2602 233.915 75.013 264.369 83.5338C294.823 92.0545 321.837 109.914 341.606 134.597C361.375 159.279 372.902 189.541 374.566 221.121C376.229 252.701 367.944 284.006 350.878 310.629C350.878 310.629 341.522 321.269 327.48 312.435C313.438 303.6 319.071 290.24 319.071 290.24C331.871 270.272 338.084 246.793 336.837 223.108C335.589 199.424 326.943 176.727 312.117 158.215C297.29 139.703 277.03 126.308 254.189 119.918C231.349 113.527 207.079 114.463 184.798 122.592C162.518 130.722 143.349 145.636 129.991 165.235C116.633 184.833 109.76 208.128 110.339 231.838C110.918 255.549 118.92 278.48 133.219 297.403C147.518 316.326 167.392 330.286 190.043 337.318C190.043 337.318 208.593 342.545 204.055 360.412C199.518 378.279 178.841 373.401 178.841 373.401Z" fill="#4D9AEC"/>
<circle cx="171.166" cy="106.885" r="61.0597" transform="rotate(20.3916 171.166 106.885)" fill="#4D9AEC"/>
<circle cx="292.768" cy="416.088" r="70.7007" transform="rotate(20.3916 292.768 416.088)" fill="#11B8AD"/>
</g>
</g>
<defs>
<filter id="filter0_i_3345_9161" x="0" y="59" width="386" height="416" filterUnits="userSpaceOnUse" color-interpolation-filters="sRGB">
<feFlood flood-opacity="0" result="BackgroundImageFix"/>
<feBlend mode="normal" in="SourceGraphic" in2="BackgroundImageFix" result="shape"/>
<feColorMatrix in="SourceAlpha" type="matrix" values="0 0 0 0 0 0 0 0 0 0 0 0 0 0 0 0 0 0 127 0" result="hardAlpha"/>
<feOffset/>
<feGaussianBlur stdDeviation="10.55"/>
<feComposite in2="hardAlpha" operator="arithmetic" k2="-1" k3="1"/>
<feColorMatrix type="matrix" values="0 0 0 0 0.950026 0 0 0 0 0.521473 0 0 0 0 0.521473 0 0 0 0.5 0"/>
<feBlend mode="normal" in2="shape" result="effect1_innerShadow_3345_9161"/>
</filter>
</defs>
</svg>
