<svg width="371" height="189" viewBox="0 0 371 189" fill="none" xmlns="http://www.w3.org/2000/svg">
<path d="M8.07812 116.258C3.59863 116.258 0.837891 113.218 0.837891 108.244C0.837891 103.303 3.6416 100.241 8.02441 100.241C10.8926 100.241 13.1592 101.584 14.1797 103.851C14.3516 104.205 14.4375 104.57 14.4375 104.893C14.4375 105.634 13.9541 106.106 13.2129 106.106C12.5791 106.106 12.1602 105.806 11.8594 105.129C11.1396 103.464 9.73242 102.594 8.0459 102.594C5.38184 102.594 3.67383 104.785 3.67383 108.244C3.67383 111.725 5.37109 113.905 8.05664 113.905C9.8291 113.905 11.1934 113.132 11.9023 111.499C12.1816 110.865 12.5361 110.607 13.1377 110.607C13.9004 110.607 14.4268 111.112 14.4268 111.843C14.4268 112.197 14.3408 112.52 14.1689 112.885C13.1807 114.99 10.9785 116.258 8.07812 116.258ZM20.2898 116.204C17.8191 116.204 16.2507 114.604 16.2507 111.972V105.795C16.2507 104.903 16.7986 104.388 17.5828 104.388C18.367 104.388 18.9255 104.903 18.9255 105.806V111.435C18.9255 113.067 19.7205 113.948 21.2244 113.948C22.7712 113.948 23.7273 112.853 23.7273 111.198V105.795C23.7273 104.903 24.2859 104.388 25.0701 104.388C25.8435 104.388 26.4021 104.903 26.4021 105.806V114.861C26.4021 115.721 25.8865 116.215 25.1238 116.215C24.3504 116.215 23.824 115.721 23.824 114.861V114.023H23.7703C23.1687 115.409 22.0193 116.204 20.2898 116.204ZM29.73 103.013C28.9029 103.013 28.2476 102.368 28.2476 101.562C28.2476 100.746 28.9029 100.112 29.73 100.112C30.5679 100.112 31.2232 100.746 31.2232 101.562C31.2232 102.368 30.5679 103.013 29.73 103.013ZM29.73 116.215C28.9136 116.215 28.398 115.678 28.398 114.808V105.795C28.398 104.936 28.9136 104.388 29.73 104.388C30.5464 104.388 31.0728 104.936 31.0728 105.806V114.808C31.0728 115.678 30.5464 116.215 29.73 116.215ZM37.3118 116.183C34.4436 116.183 32.5852 113.916 32.5852 110.296C32.5852 106.697 34.4436 104.42 37.3118 104.42C38.9446 104.42 40.2337 105.269 40.8352 106.525H40.8997V101.691C40.8997 100.789 41.4475 100.284 42.2317 100.284C43.0159 100.284 43.5745 100.789 43.5745 101.691V114.872C43.5745 115.731 43.0266 116.215 42.2532 116.215C41.4798 116.215 40.8997 115.742 40.8997 114.872V113.98H40.846C40.2981 115.291 39.0735 116.183 37.3118 116.183ZM38.1175 113.991C39.804 113.991 40.9104 112.562 40.9104 110.307C40.9104 108.072 39.804 106.622 38.1175 106.622C36.3987 106.622 35.3245 108.051 35.3245 110.307C35.3245 112.573 36.388 113.991 38.1175 113.991ZM48.9004 116.183C46.6983 116.183 45.0977 114.797 45.0977 112.745C45.0977 110.726 46.6553 109.512 49.4268 109.34L52.4454 109.168V108.352C52.4454 107.159 51.6397 106.472 50.3184 106.472C49.2764 106.472 48.5996 106.826 47.9336 107.804C47.6543 108.169 47.2998 108.341 46.8487 108.341C46.1934 108.341 45.7207 107.911 45.7207 107.267C45.7207 107.02 45.7852 106.783 45.9034 106.536C46.4834 105.215 48.2452 104.377 50.4258 104.377C53.251 104.377 55.0879 105.87 55.0879 108.158V114.872C55.0879 115.731 54.5401 116.215 53.7881 116.215C53.0577 116.215 52.5528 115.774 52.5098 114.979V114.185H52.4561C51.8008 115.42 50.3721 116.183 48.9004 116.183ZM49.7168 114.163C51.2207 114.163 52.4454 113.153 52.4454 111.778V110.908L49.8028 111.069C48.5137 111.155 47.7725 111.735 47.7725 112.638C47.7725 113.572 48.5567 114.163 49.7168 114.163ZM61.241 116.183C58.3729 116.183 56.5145 113.916 56.5145 110.296C56.5145 106.697 58.3729 104.42 61.241 104.42C62.8738 104.42 64.1629 105.269 64.7645 106.525H64.8289V101.691C64.8289 100.789 65.3768 100.284 66.1609 100.284C66.9451 100.284 67.5037 100.789 67.5037 101.691V114.872C67.5037 115.731 66.9559 116.215 66.1824 116.215C65.409 116.215 64.8289 115.742 64.8289 114.872V113.98H64.7752C64.2273 115.291 63.0027 116.183 61.241 116.183ZM62.0467 113.991C63.7332 113.991 64.8396 112.562 64.8396 110.307C64.8396 108.072 63.7332 106.622 62.0467 106.622C60.3279 106.622 59.2537 108.051 59.2537 110.307C59.2537 112.573 60.3172 113.991 62.0467 113.991ZM74.5269 116.226C71.1861 116.226 69.0162 114.002 69.0162 110.307C69.0162 106.633 71.2076 104.377 74.5269 104.377C77.8463 104.377 80.0377 106.622 80.0377 110.307C80.0377 114.002 77.8677 116.226 74.5269 116.226ZM74.5269 114.109C76.2242 114.109 77.3199 112.734 77.3199 110.307C77.3199 107.89 76.2242 106.504 74.5269 106.504C72.8404 106.504 71.7339 107.89 71.7339 110.307C71.7339 112.734 72.8297 114.109 74.5269 114.109ZM82.8284 116.215C82.0228 116.215 81.4964 115.688 81.4964 114.808V105.741C81.4964 104.903 82.012 104.388 82.7747 104.388C83.5159 104.388 84.0423 104.903 84.0423 105.741V106.611H84.096C84.4075 105.279 85.3958 104.42 86.5345 104.42C86.9534 104.42 87.2757 104.527 87.4798 104.71C87.7269 104.914 87.8558 105.236 87.8558 105.677C87.8558 106.096 87.7269 106.407 87.4583 106.622C87.2005 106.848 86.803 106.966 86.2767 106.977C84.7513 106.987 84.1712 107.943 84.1712 109.329V114.808C84.1712 115.688 83.6341 116.215 82.8284 116.215ZM93.4288 116.226C89.9483 116.226 87.8966 114.045 87.8966 110.35C87.8966 106.719 89.9913 104.377 93.2784 104.377C96.3936 104.377 98.5206 106.59 98.5206 109.684C98.5206 110.479 98.0694 110.951 97.2745 110.951H90.5606V111.037C90.5606 112.938 91.6671 114.163 93.4073 114.163C94.6104 114.163 95.3946 113.744 96.254 112.648C96.5333 112.337 96.7803 112.219 97.1563 112.219C97.7579 112.219 98.2305 112.605 98.2305 113.25C98.2305 113.454 98.1661 113.69 98.0479 113.927C97.296 115.377 95.5987 116.226 93.4288 116.226ZM90.5821 109.189H95.8995C95.8458 107.535 94.793 106.45 93.2891 106.45C91.7852 106.45 90.6895 107.557 90.5821 109.189ZM104.384 116.226C101.977 116.226 100.291 115.302 99.743 113.938C99.6678 113.744 99.6356 113.572 99.6356 113.411C99.6356 112.767 100.108 112.358 100.753 112.358C101.193 112.358 101.569 112.562 101.913 113.014C102.514 113.884 103.202 114.271 104.48 114.271C105.726 114.271 106.554 113.744 106.554 112.885C106.554 112.197 106.124 111.821 104.953 111.553L103.105 111.134C100.882 110.629 99.786 109.533 99.786 107.879C99.786 105.763 101.612 104.377 104.427 104.377C106.618 104.377 108.315 105.451 108.67 106.762C108.702 106.901 108.723 107.03 108.723 107.159C108.723 107.718 108.369 108.115 107.692 108.115C107.306 108.115 106.919 107.976 106.672 107.621C106.145 106.837 105.49 106.343 104.362 106.343C103.191 106.343 102.386 106.912 102.386 107.729C102.386 108.395 102.88 108.846 104.061 109.114L105.877 109.512C108.283 110.06 109.239 110.93 109.239 112.616C109.239 114.797 107.284 116.226 104.384 116.226Z" fill="#2C3036"/>
<g filter="url(#filter0_i_1897_9589)">
<rect x="204" y="92" width="167" height="32" rx="16" fill="#11B8AD"/>
<path d="M226.621 115.812C226.279 115.812 226.032 115.69 225.881 115.446C225.729 115.202 225.6 114.897 225.493 114.531L223.955 109.309L218.667 107.756C218.315 107.648 218.024 107.521 217.795 107.375C217.565 107.224 217.451 106.979 217.451 106.643C217.451 106.379 217.556 106.152 217.766 105.961C217.976 105.771 218.234 105.617 218.542 105.5L231.14 100.673C231.311 100.61 231.469 100.561 231.616 100.527C231.767 100.488 231.904 100.468 232.026 100.468C232.265 100.468 232.453 100.537 232.59 100.673C232.727 100.81 232.795 100.998 232.795 101.237C232.795 101.364 232.775 101.501 232.736 101.647C232.702 101.794 232.653 101.953 232.59 102.124L227.792 114.655C227.656 115.007 227.492 115.288 227.302 115.498C227.111 115.708 226.884 115.812 226.621 115.812ZM224.284 108.195L229.323 103.156C229.523 102.956 229.76 102.744 230.034 102.519C230.307 102.294 230.566 102.084 230.81 101.889C230.537 102.016 230.258 102.148 229.975 102.285C229.697 102.417 229.411 102.539 229.118 102.651L219.216 106.401C219.162 106.42 219.125 106.442 219.106 106.467C219.086 106.486 219.077 106.508 219.077 106.533C219.077 106.557 219.086 106.579 219.106 106.599C219.13 106.618 219.172 106.635 219.23 106.65L224.284 108.195ZM226.738 114.201C226.762 114.201 226.784 114.189 226.804 114.165C226.823 114.14 226.843 114.101 226.862 114.047L230.612 104.145C230.725 103.847 230.849 103.557 230.986 103.273C231.123 102.99 231.254 102.709 231.381 102.431C231.186 102.68 230.974 102.944 230.744 103.222C230.52 103.5 230.307 103.74 230.107 103.94L225.068 108.979L226.613 114.033C226.633 114.091 226.65 114.133 226.665 114.157C226.684 114.187 226.708 114.201 226.738 114.201Z" fill="white"/>
<path d="M246.449 113.176C243.461 113.176 241.593 111.081 241.593 107.712C241.593 104.365 243.483 102.255 246.435 102.255C248.375 102.255 249.928 103.2 250.587 104.76C250.69 104.973 250.741 105.192 250.741 105.39C250.741 105.83 250.448 106.115 250.009 106.115C249.621 106.115 249.364 105.925 249.181 105.5C248.69 104.321 247.65 103.691 246.435 103.691C244.516 103.691 243.271 105.266 243.271 107.712C243.271 110.18 244.501 111.74 246.442 111.74C247.731 111.74 248.72 111.191 249.21 110.048C249.386 109.66 249.599 109.499 249.958 109.499C250.404 109.499 250.712 109.807 250.712 110.239C250.712 110.466 250.653 110.678 250.536 110.92C249.855 112.348 248.412 113.176 246.449 113.176ZM255.294 113.146C253.089 113.146 251.639 111.63 251.639 109.147C251.639 106.672 253.097 105.156 255.294 105.156C257.491 105.156 258.949 106.672 258.949 109.147C258.949 111.63 257.499 113.146 255.294 113.146ZM255.294 111.843C256.539 111.843 257.337 110.861 257.337 109.147C257.337 107.441 256.532 106.459 255.294 106.459C254.056 106.459 253.25 107.441 253.25 109.147C253.25 110.861 254.056 111.843 255.294 111.843ZM260.733 113.139C260.264 113.139 259.942 112.824 259.942 112.304V105.954C259.942 105.471 260.235 105.156 260.696 105.156C261.15 105.156 261.465 105.471 261.465 105.961V106.569H261.502C261.919 105.69 262.725 105.163 263.912 105.163C265.611 105.163 266.585 106.247 266.585 108.012V112.304C266.585 112.824 266.255 113.139 265.787 113.139C265.325 113.139 264.996 112.824 264.996 112.304V108.32C264.996 107.163 264.454 106.525 263.355 106.525C262.242 106.525 261.524 107.316 261.524 108.51V112.304C261.524 112.824 261.194 113.139 260.733 113.139ZM270.837 113.139C270.273 113.139 269.966 112.905 269.746 112.333L267.461 106.32C267.41 106.181 267.373 106.027 267.373 105.881C267.373 105.441 267.71 105.156 268.171 105.156C268.538 105.156 268.787 105.354 268.918 105.778L270.83 111.455H270.859L272.771 105.764C272.903 105.354 273.152 105.156 273.511 105.156C273.965 105.156 274.287 105.456 274.287 105.874C274.287 106.013 274.258 106.167 274.206 106.298L271.921 112.333C271.716 112.89 271.379 113.139 270.837 113.139ZM275.969 104.13C275.463 104.13 275.053 103.72 275.053 103.222C275.053 102.717 275.463 102.321 275.969 102.321C276.481 102.321 276.892 102.717 276.892 103.222C276.892 103.72 276.481 104.13 275.969 104.13ZM275.969 113.139C275.493 113.139 275.178 112.81 275.178 112.304V105.998C275.178 105.485 275.493 105.156 275.969 105.156C276.445 105.156 276.76 105.485 276.76 105.998V112.304C276.76 112.81 276.445 113.139 275.969 113.139ZM281.041 113.132C279.093 113.132 277.804 111.579 277.804 109.147C277.804 106.716 279.093 105.17 281.027 105.17C282.133 105.17 283.012 105.727 283.444 106.577H283.473V103.127C283.473 102.607 283.803 102.292 284.271 102.292C284.733 102.292 285.062 102.607 285.062 103.127V112.348C285.062 112.846 284.74 113.139 284.279 113.139C283.832 113.139 283.473 112.846 283.473 112.348V111.63H283.451C283.056 112.531 282.243 113.132 281.041 113.132ZM281.459 111.792C282.675 111.792 283.488 110.759 283.488 109.147C283.488 107.551 282.675 106.503 281.459 106.503C280.206 106.503 279.423 107.529 279.423 109.147C279.423 110.773 280.206 111.792 281.459 111.792ZM288.714 113.132C287.205 113.132 286.143 112.194 286.143 110.81C286.143 109.462 287.183 108.635 289.007 108.532L291.124 108.408V107.814C291.124 106.958 290.545 106.445 289.578 106.445C288.817 106.445 288.311 106.716 287.872 107.419C287.711 107.653 287.506 107.756 287.227 107.756C286.832 107.756 286.546 107.492 286.546 107.097C286.546 106.936 286.59 106.76 286.685 106.584C287.088 105.712 288.253 105.156 289.637 105.156C291.505 105.156 292.699 106.145 292.699 107.69V112.341C292.699 112.839 292.384 113.139 291.937 113.139C291.497 113.139 291.197 112.854 291.182 112.385V111.733H291.146C290.699 112.59 289.718 113.132 288.714 113.132ZM289.146 111.879C290.252 111.879 291.124 111.118 291.124 110.114V109.506L289.22 109.624C288.275 109.689 287.74 110.107 287.74 110.766C287.74 111.44 288.304 111.879 289.146 111.879ZM294.798 113.139C294.322 113.139 294.007 112.817 294.007 112.304V105.954C294.007 105.471 294.314 105.156 294.761 105.156C295.201 105.156 295.508 105.471 295.508 105.954V106.613H295.545C295.757 105.749 296.468 105.17 297.237 105.17C297.515 105.17 297.727 105.236 297.859 105.361C298.006 105.478 298.072 105.668 298.072 105.917C298.072 106.167 297.991 106.35 297.837 106.474C297.676 106.613 297.442 106.679 297.112 106.679C296.028 106.687 295.589 107.412 295.589 108.371V112.304C295.589 112.817 295.266 113.139 294.798 113.139ZM306.181 113.176C303.193 113.176 301.325 111.081 301.325 107.712C301.325 104.365 303.215 102.255 306.166 102.255C308.107 102.255 309.66 103.2 310.319 104.76C310.422 104.973 310.473 105.192 310.473 105.39C310.473 105.83 310.18 106.115 309.741 106.115C309.352 106.115 309.096 105.925 308.913 105.5C308.422 104.321 307.382 103.691 306.166 103.691C304.247 103.691 303.002 105.266 303.002 107.712C303.002 110.18 304.233 111.74 306.174 111.74C307.463 111.74 308.451 111.191 308.942 110.048C309.118 109.66 309.33 109.499 309.689 109.499C310.136 109.499 310.444 109.807 310.444 110.239C310.444 110.466 310.385 110.678 310.268 110.92C309.587 112.348 308.144 113.176 306.181 113.176ZM314.381 113.139C312.704 113.139 311.679 112.048 311.679 110.283V105.998C311.679 105.471 312.001 105.156 312.47 105.156C312.931 105.156 313.261 105.471 313.261 105.998V109.975C313.261 111.147 313.817 111.777 314.908 111.777C316.051 111.777 316.74 110.986 316.74 109.785V105.998C316.74 105.471 317.069 105.156 317.531 105.156C317.999 105.156 318.322 105.471 318.322 105.998V112.333C318.322 112.824 318.021 113.139 317.567 113.139C317.113 113.139 316.805 112.824 316.805 112.341V111.696H316.769C316.344 112.619 315.56 113.139 314.381 113.139ZM320.501 104.13C319.996 104.13 319.586 103.72 319.586 103.222C319.586 102.717 319.996 102.321 320.501 102.321C321.014 102.321 321.424 102.717 321.424 103.222C321.424 103.72 321.014 104.13 320.501 104.13ZM320.501 113.139C320.025 113.139 319.71 112.81 319.71 112.304V105.998C319.71 105.485 320.025 105.156 320.501 105.156C320.977 105.156 321.292 105.485 321.292 105.998V112.304C321.292 112.81 320.977 113.139 320.501 113.139ZM325.574 113.132C323.626 113.132 322.337 111.579 322.337 109.147C322.337 106.716 323.626 105.17 325.559 105.17C326.665 105.17 327.544 105.727 327.976 106.577H328.006V103.127C328.006 102.607 328.335 102.292 328.804 102.292C329.265 102.292 329.595 102.607 329.595 103.127V112.348C329.595 112.846 329.273 113.139 328.811 113.139C328.365 113.139 328.006 112.846 328.006 112.348V111.63H327.984C327.588 112.531 326.775 113.132 325.574 113.132ZM325.991 111.792C327.207 111.792 328.02 110.759 328.02 109.147C328.02 107.551 327.207 106.503 325.991 106.503C324.739 106.503 323.955 107.529 323.955 109.147C323.955 110.773 324.739 111.792 325.991 111.792ZM333.247 113.132C331.738 113.132 330.676 112.194 330.676 110.81C330.676 109.462 331.716 108.635 333.54 108.532L335.656 108.408V107.814C335.656 106.958 335.078 106.445 334.111 106.445C333.349 106.445 332.844 106.716 332.405 107.419C332.243 107.653 332.038 107.756 331.76 107.756C331.364 107.756 331.079 107.492 331.079 107.097C331.079 106.936 331.123 106.76 331.218 106.584C331.621 105.712 332.785 105.156 334.17 105.156C336.037 105.156 337.231 106.145 337.231 107.69V112.341C337.231 112.839 336.916 113.139 336.469 113.139C336.03 113.139 335.73 112.854 335.715 112.385V111.733H335.678C335.232 112.59 334.25 113.132 333.247 113.132ZM333.679 111.879C334.785 111.879 335.656 111.118 335.656 110.114V109.506L333.752 109.624C332.807 109.689 332.273 110.107 332.273 110.766C332.273 111.44 332.837 111.879 333.679 111.879ZM341.432 113.132C339.484 113.132 338.195 111.579 338.195 109.147C338.195 106.716 339.484 105.17 341.418 105.17C342.524 105.17 343.403 105.727 343.835 106.577H343.864V103.127C343.864 102.607 344.194 102.292 344.662 102.292C345.124 102.292 345.453 102.607 345.453 103.127V112.348C345.453 112.846 345.131 113.139 344.67 113.139C344.223 113.139 343.864 112.846 343.864 112.348V111.63H343.842C343.447 112.531 342.634 113.132 341.432 113.132ZM341.85 111.792C343.066 111.792 343.879 110.759 343.879 109.147C343.879 107.551 343.066 106.503 341.85 106.503C340.597 106.503 339.814 107.529 339.814 109.147C339.814 110.773 340.597 111.792 341.85 111.792ZM350.16 113.146C347.955 113.146 346.505 111.63 346.505 109.147C346.505 106.672 347.963 105.156 350.16 105.156C352.357 105.156 353.815 106.672 353.815 109.147C353.815 111.63 352.364 113.146 350.16 113.146ZM350.16 111.843C351.405 111.843 352.203 110.861 352.203 109.147C352.203 107.441 351.398 106.459 350.16 106.459C348.922 106.459 348.116 107.441 348.116 109.147C348.116 110.861 348.922 111.843 350.16 111.843ZM355.599 113.139C355.123 113.139 354.808 112.817 354.808 112.304V105.954C354.808 105.471 355.115 105.156 355.562 105.156C356.002 105.156 356.309 105.471 356.309 105.954V106.613H356.346C356.558 105.749 357.269 105.17 358.038 105.17C358.316 105.17 358.528 105.236 358.66 105.361C358.807 105.478 358.873 105.668 358.873 105.917C358.873 106.167 358.792 106.35 358.638 106.474C358.477 106.613 358.243 106.679 357.913 106.679C356.829 106.687 356.39 107.412 356.39 108.371V112.304C356.39 112.817 356.068 113.139 355.599 113.139Z" fill="white"/>
</g>
<rect y="136" width="371" height="53" rx="6" fill="#E7EEF7"/>
<rect x="7" y="144.5" width="36" height="36" rx="18" fill="#3188E4"/>
<rect x="7" y="144.5" width="36" height="36" rx="18" stroke="white" stroke-width="2"/>
<path d="M15.3005 167.617C14.8318 167.617 14.5535 167.324 14.5535 166.833V157.854C14.5535 157.217 14.9563 156.814 15.6082 156.814C16.1648 156.814 16.4944 157.063 16.7434 157.678L19.8709 165.273H19.9295L23.0496 157.678C23.2986 157.07 23.6355 156.814 24.2068 156.814C24.844 156.814 25.2468 157.209 25.2468 157.854V166.833C25.2468 167.324 24.9612 167.617 24.4998 167.617C24.031 167.617 23.7454 167.324 23.7454 166.833V159.722H23.6941L20.7498 166.819C20.574 167.244 20.3103 167.434 19.9002 167.434C19.49 167.434 19.219 167.244 19.0505 166.833L16.0989 159.722H16.0476V166.833C16.0476 167.324 15.7693 167.617 15.3005 167.617ZM31.4402 167.676C28.4519 167.676 26.5842 165.581 26.5842 162.212C26.5842 158.865 28.4739 156.755 31.4255 156.755C33.3664 156.755 34.9192 157.7 35.5784 159.26C35.6809 159.473 35.7322 159.692 35.7322 159.89C35.7322 160.33 35.4392 160.615 34.9997 160.615C34.6116 160.615 34.3552 160.425 34.1721 160C33.6814 158.821 32.6413 158.191 31.4255 158.191C29.5066 158.191 28.2615 159.766 28.2615 162.212C28.2615 164.68 29.4919 166.24 31.4329 166.24C32.7219 166.24 33.7107 165.691 34.2014 164.548C34.3772 164.16 34.5896 163.999 34.9485 163.999C35.3953 163.999 35.7029 164.307 35.7029 164.739C35.7029 164.966 35.6443 165.178 35.5271 165.42C34.8459 166.848 33.4031 167.676 31.4402 167.676Z" fill="#E7EEF7"/>
<path d="M53.856 159.117C53.2773 159.117 52.9478 158.868 52.728 158.268L49.3955 149.515C49.3369 149.347 49.3076 149.2 49.3076 149.054C49.3076 148.614 49.6445 148.314 50.1426 148.314C50.5601 148.314 50.8164 148.504 50.9556 148.929L53.8486 157.154H53.8926L56.7856 148.922C56.9321 148.49 57.1592 148.314 57.5767 148.314C58.0674 148.314 58.4116 148.622 58.4116 149.046C58.4116 149.186 58.3823 149.332 58.3237 149.493L54.9839 158.275C54.7568 158.875 54.4346 159.117 53.856 159.117ZM61.5654 159.146C59.3608 159.146 57.9106 157.63 57.9106 155.147C57.9106 152.672 59.3681 151.156 61.5654 151.156C63.7627 151.156 65.2202 152.672 65.2202 155.147C65.2202 157.63 63.77 159.146 61.5654 159.146ZM61.5654 157.843C62.8105 157.843 63.6089 156.861 63.6089 155.147C63.6089 153.441 62.8032 152.459 61.5654 152.459C60.3276 152.459 59.522 153.441 59.522 155.147C59.522 156.861 60.3276 157.843 61.5654 157.843ZM69.5092 159.146C67.3046 159.146 65.8691 157.616 65.8691 155.162C65.8691 152.723 67.2973 151.156 69.4946 151.156C70.9814 151.156 72.2558 151.947 72.5927 153.023C72.6367 153.148 72.666 153.28 72.666 153.39C72.666 153.792 72.3803 154.042 71.9921 154.042C71.6552 154.042 71.4648 153.91 71.2744 153.558C70.8789 152.826 70.3369 152.474 69.5239 152.474C68.2861 152.474 67.4804 153.507 67.4804 155.147C67.4804 156.825 68.3007 157.821 69.5239 157.821C70.3808 157.821 70.9008 157.44 71.2744 156.773C71.4941 156.393 71.6626 156.261 72.0068 156.261C72.395 156.261 72.6806 156.524 72.6806 156.92C72.6806 157.044 72.6513 157.176 72.5927 157.33C72.1899 158.392 70.9375 159.146 69.5092 159.146ZM75.3217 150.394C75.0287 150.394 74.809 150.174 74.809 149.918C74.809 149.764 74.8603 149.662 74.9775 149.53L76.1787 148.182C76.413 147.904 76.6254 147.801 76.9697 147.801C77.2846 147.801 77.5043 147.904 77.7387 148.182L78.9399 149.53C79.0497 149.662 79.1083 149.764 79.1083 149.918C79.1083 150.174 78.8886 150.394 78.5956 150.394C78.3832 150.394 78.2587 150.321 78.0829 150.108L76.977 148.834H76.933L75.8344 150.108C75.6513 150.321 75.5268 150.394 75.3217 150.394ZM77.0722 159.146C74.7504 159.146 73.3881 157.674 73.3881 155.184C73.3881 152.738 74.7797 151.156 76.9623 151.156C79.0131 151.156 80.4267 152.635 80.4267 154.737C80.4267 155.25 80.1337 155.543 79.643 155.543H74.9848V155.58C74.9848 156.986 75.7758 157.865 77.0356 157.865C77.8998 157.865 78.4418 157.564 79.0278 156.766C79.1962 156.568 79.3574 156.488 79.5844 156.488C79.9653 156.488 80.2436 156.737 80.2436 157.132C80.2436 157.257 80.1996 157.403 80.1337 157.557C79.6284 158.568 78.5078 159.146 77.0722 159.146ZM74.9921 154.437H78.8447C78.808 153.229 78.0537 152.43 76.955 152.43C75.8637 152.43 75.0727 153.236 74.9921 154.437Z" fill="#2C3036"/>
<path d="M53.9309 177.152C51.4045 177.152 49.8049 175.318 49.8049 172.417C49.8049 169.542 51.4235 167.688 53.9309 167.688C55.6003 167.688 56.9587 168.545 57.4982 169.91C57.5617 170.068 57.5935 170.227 57.5935 170.36C57.5935 170.678 57.3903 170.881 57.0793 170.881C56.8 170.881 56.6032 170.729 56.4763 170.405C56.0446 169.326 55.0607 168.742 53.9309 168.742C52.1408 168.742 50.9792 170.189 50.9792 172.417C50.9792 174.664 52.1281 176.099 53.9372 176.099C55.1306 176.099 56.07 175.597 56.5017 174.569C56.6223 174.29 56.781 174.169 57.0349 174.169C57.3396 174.169 57.5554 174.385 57.5554 174.683C57.5554 174.88 57.5046 175.051 57.403 175.254C56.8 176.467 55.6066 177.152 53.9309 177.152ZM61.0872 177.114C59.6463 177.114 58.802 176.181 58.802 174.683V170.875C58.802 170.525 59.0305 170.284 59.3543 170.284C59.678 170.284 59.9065 170.525 59.9065 170.875V174.486C59.9065 175.559 60.408 176.137 61.43 176.137C62.5027 176.137 63.1502 175.4 63.1502 174.277V170.875C63.1502 170.525 63.3787 170.284 63.7024 170.284C64.0262 170.284 64.2547 170.525 64.2547 170.875V176.556C64.2547 176.873 64.0515 177.114 63.7342 177.114C63.4168 177.114 63.2073 176.873 63.2073 176.556V175.927H63.1819C62.7884 176.689 62.1028 177.114 61.0872 177.114ZM66.2186 169.288C65.8441 169.288 65.5331 168.977 65.5331 168.602C65.5331 168.221 65.8441 167.917 66.2186 167.917C66.5995 167.917 66.9105 168.221 66.9105 168.602C66.9105 168.977 66.5995 169.288 66.2186 169.288ZM66.2186 177.114C65.8949 177.114 65.6664 176.873 65.6664 176.524V170.875C65.6664 170.525 65.8949 170.284 66.2186 170.284C66.5423 170.284 66.7709 170.525 66.7709 170.875V176.524C66.7709 176.873 66.5423 177.114 66.2186 177.114ZM70.6835 177.114C69.0014 177.114 67.8588 175.769 67.8588 173.699C67.8588 171.63 68.9951 170.284 70.6581 170.284C71.6039 170.284 72.3657 170.748 72.7592 171.471H72.7846V168.316C72.7846 167.967 73.0131 167.726 73.3369 167.726C73.6606 167.726 73.8891 167.967 73.8891 168.316V176.575C73.8891 176.892 73.6669 177.114 73.3496 177.114C73.0385 177.114 72.7846 176.898 72.7846 176.575V175.819H72.7656C72.4037 176.606 71.7182 177.114 70.6835 177.114ZM70.893 176.143C72.0292 176.143 72.791 175.178 72.791 173.699C72.791 172.227 72.0292 171.255 70.893 171.255C69.725 171.255 68.9887 172.208 68.9887 173.699C68.9887 175.197 69.725 176.143 70.893 176.143ZM77.2241 177.114C75.9102 177.114 75.0279 176.321 75.0279 175.134C75.0279 174.004 75.8975 173.293 77.4209 173.204L79.3189 173.096V172.544C79.3189 171.738 78.7857 171.255 77.8716 171.255C77.1543 171.255 76.6655 171.516 76.2974 172.169C76.1958 172.354 76.0498 172.436 75.8404 172.436C75.5547 172.436 75.3516 172.239 75.3516 171.941C75.3516 171.801 75.396 171.643 75.4849 171.484C75.8594 170.76 76.8242 170.284 77.897 170.284C79.4458 170.284 80.4234 171.122 80.4234 172.436V176.556C80.4234 176.886 80.2075 177.114 79.9029 177.114C79.5918 177.114 79.376 176.886 79.376 176.556V175.864H79.3506C78.9571 176.619 78.1128 177.114 77.2241 177.114ZM77.4717 176.175C78.5127 176.175 79.3189 175.445 79.3189 174.493V173.953L77.5479 174.061C76.6592 174.118 76.1514 174.512 76.1514 175.134C76.1514 175.762 76.6782 176.175 77.4717 176.175ZM84.2472 177.114C82.565 177.114 81.4225 175.769 81.4225 173.699C81.4225 171.63 82.5587 170.284 84.2218 170.284C85.1676 170.284 85.9293 170.748 86.3229 171.471H86.3482V168.316C86.3482 167.967 86.5768 167.726 86.9005 167.726C87.2242 167.726 87.4527 167.967 87.4527 168.316V176.575C87.4527 176.892 87.2306 177.114 86.9132 177.114C86.6021 177.114 86.3482 176.898 86.3482 176.575V175.819H86.3292C85.9674 176.606 85.2818 177.114 84.2472 177.114ZM84.4566 176.143C85.5929 176.143 86.3546 175.178 86.3546 173.699C86.3546 172.227 85.5929 171.255 84.4566 171.255C83.2887 171.255 82.5523 172.208 82.5523 173.699C82.5523 175.197 83.2887 176.143 84.4566 176.143ZM91.6003 177.114C89.7721 177.114 88.5407 175.8 88.5407 173.699C88.5407 171.592 89.7721 170.284 91.6003 170.284C93.4221 170.284 94.6535 171.592 94.6535 173.699C94.6535 175.8 93.4221 177.114 91.6003 177.114ZM91.6003 176.143C92.7682 176.143 93.53 175.254 93.53 173.699C93.53 172.144 92.7682 171.255 91.6003 171.255C90.4323 171.255 89.6642 172.144 89.6642 173.699C89.6642 175.254 90.4323 176.143 91.6003 176.143ZM96.2429 177.114C95.9192 177.114 95.6907 176.873 95.6907 176.524V170.843C95.6907 170.513 95.9065 170.284 96.2112 170.284C96.5159 170.284 96.7317 170.513 96.7317 170.843V171.478H96.7571C96.9475 170.792 97.595 170.284 98.2551 170.284C98.4963 170.284 98.6677 170.341 98.7756 170.443C98.8709 170.532 98.9153 170.659 98.9153 170.811C98.9153 170.982 98.8582 171.109 98.7439 171.198C98.6296 171.293 98.4583 171.338 98.217 171.338C97.2205 171.338 96.7952 172.055 96.7952 172.899V176.524C96.7952 176.873 96.5667 177.114 96.2429 177.114ZM102.951 177.089C102.602 177.089 102.38 176.86 102.38 176.499V168.431C102.38 168.069 102.602 167.84 102.951 167.84H105.649C107.369 167.84 108.581 169.046 108.581 170.779C108.581 172.519 107.356 173.731 105.636 173.731H103.522V176.499C103.522 176.86 103.3 177.089 102.951 177.089ZM103.522 172.715H105.351C106.658 172.715 107.407 171.998 107.407 170.779C107.407 169.567 106.664 168.856 105.351 168.856H103.522V172.715ZM110.196 177.114C109.873 177.114 109.644 176.873 109.644 176.524V170.843C109.644 170.513 109.86 170.284 110.165 170.284C110.469 170.284 110.685 170.513 110.685 170.843V171.478H110.71C110.901 170.792 111.548 170.284 112.208 170.284C112.45 170.284 112.621 170.341 112.729 170.443C112.824 170.532 112.869 170.659 112.869 170.811C112.869 170.982 112.812 171.109 112.697 171.198C112.583 171.293 112.412 171.338 112.17 171.338C111.174 171.338 110.749 172.055 110.749 172.899V176.524C110.749 176.873 110.52 177.114 110.196 177.114ZM115.994 177.114C114.166 177.114 112.935 175.8 112.935 173.699C112.935 171.592 114.166 170.284 115.994 170.284C117.816 170.284 119.047 171.592 119.047 173.699C119.047 175.8 117.816 177.114 115.994 177.114ZM115.994 176.143C117.162 176.143 117.924 175.254 117.924 173.699C117.924 172.144 117.162 171.255 115.994 171.255C114.826 171.255 114.058 172.144 114.058 173.699C114.058 175.254 114.826 176.143 115.994 176.143ZM120.992 177.114C120.656 177.114 120.44 176.886 120.44 176.53V171.306H119.894C119.609 171.306 119.424 171.141 119.424 170.855C119.424 170.583 119.609 170.398 119.894 170.398H120.44V169.662C120.44 168.399 121.043 167.79 122.122 167.79C122.706 167.79 123.017 167.98 123.017 168.304C123.017 168.507 122.922 168.634 122.719 168.691C122.624 168.716 122.516 168.729 122.376 168.729C121.792 168.729 121.538 169.021 121.538 169.7V170.398H122.516C122.801 170.398 122.986 170.583 122.986 170.855C122.986 171.141 122.801 171.306 122.516 171.306H121.545V176.53C121.545 176.886 121.329 177.114 120.992 177.114ZM126.403 177.114C124.454 177.114 123.312 175.857 123.312 173.725C123.312 171.643 124.486 170.284 126.308 170.284C127.996 170.284 129.183 171.547 129.183 173.356C129.183 173.756 128.955 173.998 128.574 173.998H124.448C124.448 175.331 125.178 176.156 126.359 176.156C127.146 176.156 127.628 175.876 128.142 175.127C128.257 174.969 128.384 174.905 128.555 174.905C128.847 174.905 129.044 175.096 129.044 175.388C129.044 175.477 129.012 175.591 128.961 175.711C128.536 176.606 127.609 177.114 126.403 177.114ZM124.454 173.134H128.041C128.015 171.992 127.311 171.243 126.289 171.243C125.26 171.243 124.524 171.998 124.454 173.134ZM132.512 177.114C131.338 177.114 130.417 176.587 130.1 175.762C130.062 175.667 130.049 175.584 130.049 175.502C130.049 175.21 130.265 175.045 130.551 175.045C130.747 175.045 130.906 175.146 131.033 175.375C131.363 175.953 131.757 176.213 132.601 176.213C133.445 176.213 134.016 175.845 134.016 175.229C134.016 174.753 133.743 174.499 133.001 174.315L131.992 174.061C130.716 173.744 130.1 173.141 130.1 172.214C130.1 171.065 131.109 170.284 132.601 170.284C133.686 170.284 134.651 170.894 134.823 171.687C134.835 171.75 134.842 171.801 134.842 171.852C134.842 172.112 134.677 172.284 134.41 172.284C134.194 172.284 134.042 172.214 133.921 171.985C133.636 171.433 133.21 171.192 132.537 171.192C131.744 171.192 131.192 171.592 131.192 172.157C131.192 172.614 131.547 172.931 132.271 173.109L133.255 173.35C134.632 173.687 135.14 174.169 135.14 175.14C135.14 176.321 134.08 177.114 132.512 177.114ZM138.488 177.114C137.313 177.114 136.393 176.587 136.076 175.762C136.038 175.667 136.025 175.584 136.025 175.502C136.025 175.21 136.241 175.045 136.526 175.045C136.723 175.045 136.882 175.146 137.009 175.375C137.339 175.953 137.732 176.213 138.577 176.213C139.421 176.213 139.992 175.845 139.992 175.229C139.992 174.753 139.719 174.499 138.976 174.315L137.967 174.061C136.691 173.744 136.076 173.141 136.076 172.214C136.076 171.065 137.085 170.284 138.577 170.284C139.662 170.284 140.627 170.894 140.798 171.687C140.811 171.75 140.817 171.801 140.817 171.852C140.817 172.112 140.652 172.284 140.386 172.284C140.17 172.284 140.017 172.214 139.897 171.985C139.611 171.433 139.186 171.192 138.513 171.192C137.72 171.192 137.167 171.592 137.167 172.157C137.167 172.614 137.523 172.931 138.246 173.109L139.23 173.35C140.608 173.687 141.116 174.169 141.116 175.14C141.116 176.321 140.056 177.114 138.488 177.114ZM142.781 169.288C142.407 169.288 142.096 168.977 142.096 168.602C142.096 168.221 142.407 167.917 142.781 167.917C143.162 167.917 143.473 168.221 143.473 168.602C143.473 168.977 143.162 169.288 142.781 169.288ZM142.781 177.114C142.458 177.114 142.229 176.873 142.229 176.524V170.875C142.229 170.525 142.458 170.284 142.781 170.284C143.105 170.284 143.333 170.525 143.333 170.875V176.524C143.333 176.873 143.105 177.114 142.781 177.114ZM147.481 177.114C145.653 177.114 144.421 175.8 144.421 173.699C144.421 171.592 145.653 170.284 147.481 170.284C149.303 170.284 150.534 171.592 150.534 173.699C150.534 175.8 149.303 177.114 147.481 177.114ZM147.481 176.143C148.649 176.143 149.411 175.254 149.411 173.699C149.411 172.144 148.649 171.255 147.481 171.255C146.313 171.255 145.545 172.144 145.545 173.699C145.545 175.254 146.313 176.143 147.481 176.143ZM152.124 177.114C151.8 177.114 151.571 176.873 151.571 176.524V170.843C151.571 170.513 151.787 170.284 152.092 170.284C152.397 170.284 152.612 170.513 152.612 170.843V171.452H152.638C153.006 170.741 153.711 170.284 154.733 170.284C156.18 170.284 157.018 171.217 157.018 172.715V176.524C157.018 176.873 156.789 177.114 156.465 177.114C156.142 177.114 155.913 176.873 155.913 176.524V172.912C155.913 171.846 155.412 171.262 154.396 171.262C153.355 171.262 152.676 171.998 152.676 173.115V176.524C152.676 176.873 152.447 177.114 152.124 177.114ZM160.27 177.114C158.956 177.114 158.074 176.321 158.074 175.134C158.074 174.004 158.944 173.293 160.467 173.204L162.365 173.096V172.544C162.365 171.738 161.832 171.255 160.918 171.255C160.2 171.255 159.712 171.516 159.343 172.169C159.242 172.354 159.096 172.436 158.886 172.436C158.601 172.436 158.398 172.239 158.398 171.941C158.398 171.801 158.442 171.643 158.531 171.484C158.905 170.76 159.87 170.284 160.943 170.284C162.492 170.284 163.469 171.122 163.469 172.436V176.556C163.469 176.886 163.254 177.114 162.949 177.114C162.638 177.114 162.422 176.886 162.422 176.556V175.864H162.397C162.003 176.619 161.159 177.114 160.27 177.114ZM160.518 176.175C161.559 176.175 162.365 175.445 162.365 174.493V173.953L160.594 174.061C159.705 174.118 159.197 174.512 159.197 175.134C159.197 175.762 159.724 176.175 160.518 176.175ZM165.402 177.114C165.078 177.114 164.849 176.873 164.849 176.524V168.316C164.849 167.967 165.078 167.726 165.402 167.726C165.725 167.726 165.954 167.967 165.954 168.316V176.524C165.954 176.873 165.725 177.114 165.402 177.114Z" fill="#5F636B"/>
<path d="M270.794 159.117C270.282 159.117 269.974 158.795 269.974 158.268V149.281C269.974 148.753 270.282 148.431 270.794 148.431H273.937C275.987 148.431 277.416 149.845 277.416 151.903C277.416 153.968 275.958 155.389 273.885 155.389H271.615V158.268C271.615 158.795 271.3 159.117 270.794 159.117ZM271.615 154.012H273.497C274.925 154.012 275.738 153.243 275.738 151.91C275.738 150.577 274.925 149.815 273.504 149.815H271.615V154.012ZM281.404 159.146C279.2 159.146 277.749 157.63 277.749 155.147C277.749 152.672 279.207 151.156 281.404 151.156C283.602 151.156 285.059 152.672 285.059 155.147C285.059 157.63 283.609 159.146 281.404 159.146ZM281.404 157.843C282.649 157.843 283.448 156.861 283.448 155.147C283.448 153.441 282.642 152.459 281.404 152.459C280.166 152.459 279.361 153.441 279.361 155.147C279.361 156.861 280.166 157.843 281.404 157.843ZM288.945 159.132C286.997 159.132 285.708 157.579 285.708 155.147C285.708 152.716 286.997 151.17 288.931 151.17C290.037 151.17 290.915 151.727 291.348 152.577H291.377V149.127C291.377 148.607 291.707 148.292 292.175 148.292C292.637 148.292 292.966 148.607 292.966 149.127V158.348C292.966 158.846 292.644 159.139 292.183 159.139C291.736 159.139 291.377 158.846 291.377 158.348V157.63H291.355C290.959 158.531 290.146 159.132 288.945 159.132ZM289.363 157.792C290.579 157.792 291.392 156.759 291.392 155.147C291.392 153.551 290.579 152.503 289.363 152.503C288.11 152.503 287.327 153.529 287.327 155.147C287.327 156.773 288.11 157.792 289.363 157.792ZM297.702 159.146C295.38 159.146 294.018 157.674 294.018 155.184C294.018 152.738 295.41 151.156 297.592 151.156C299.643 151.156 301.057 152.635 301.057 154.737C301.057 155.25 300.764 155.543 300.273 155.543H295.615V155.58C295.615 156.986 296.406 157.865 297.665 157.865C298.53 157.865 299.072 157.564 299.658 156.766C299.826 156.568 299.987 156.488 300.214 156.488C300.595 156.488 300.873 156.737 300.873 157.132C300.873 157.257 300.83 157.403 300.764 157.557C300.258 158.568 299.138 159.146 297.702 159.146ZM295.622 154.437H299.475C299.438 153.229 298.684 152.43 297.585 152.43C296.494 152.43 295.703 153.236 295.622 154.437ZM305.885 159C305.372 159 305.064 158.678 305.064 158.15V149.281C305.064 148.753 305.372 148.431 305.885 148.431H311.129C311.583 148.431 311.891 148.709 311.891 149.142C311.891 149.574 311.583 149.852 311.129 149.852H306.705V152.936H310.887C311.319 152.936 311.62 153.199 311.62 153.617C311.62 154.027 311.327 154.298 310.887 154.298H306.705V157.579H311.129C311.583 157.579 311.891 157.857 311.891 158.29C311.891 158.722 311.583 159 311.129 159H305.885ZM315.931 159.132C313.982 159.132 312.693 157.579 312.693 155.147C312.693 152.716 313.982 151.17 315.916 151.17C317.022 151.17 317.901 151.727 318.333 152.577H318.362V149.127C318.362 148.607 318.692 148.292 319.161 148.292C319.622 148.292 319.952 148.607 319.952 149.127V158.348C319.952 158.846 319.629 159.139 319.168 159.139C318.721 159.139 318.362 158.846 318.362 158.348V157.63H318.34C317.945 158.531 317.132 159.132 315.931 159.132ZM316.348 157.792C317.564 157.792 318.377 156.759 318.377 155.147C318.377 153.551 317.564 152.503 316.348 152.503C315.096 152.503 314.312 153.529 314.312 155.147C314.312 156.773 315.096 157.792 316.348 157.792ZM322.19 150.13C321.684 150.13 321.274 149.72 321.274 149.222C321.274 148.717 321.684 148.321 322.19 148.321C322.702 148.321 323.113 148.717 323.113 149.222C323.113 149.72 322.702 150.13 322.19 150.13ZM322.19 159.139C321.714 159.139 321.399 158.81 321.399 158.304V151.998C321.399 151.485 321.714 151.156 322.19 151.156C322.666 151.156 322.981 151.485 322.981 151.998V158.304C322.981 158.81 322.666 159.139 322.19 159.139ZM324.831 157.154V152.547H324.274C323.864 152.547 323.615 152.313 323.615 151.925C323.615 151.529 323.864 151.295 324.274 151.295H324.831V150.152C324.831 149.647 325.146 149.31 325.629 149.31C326.105 149.31 326.42 149.647 326.42 150.152V151.295H327.321C327.731 151.295 327.98 151.537 327.98 151.925C327.98 152.313 327.731 152.547 327.321 152.547H326.42V156.803C326.42 157.418 326.633 157.696 327.204 157.74L327.328 157.748C327.783 157.792 328.01 157.975 328.01 158.348C328.01 158.824 327.643 159.066 326.867 159.066H326.786C325.49 159.066 324.831 158.429 324.831 157.154ZM331.097 159.132C329.589 159.132 328.527 158.194 328.527 156.81C328.527 155.462 329.567 154.635 331.39 154.532L333.507 154.408V153.814C333.507 152.958 332.929 152.445 331.962 152.445C331.2 152.445 330.695 152.716 330.255 153.419C330.094 153.653 329.889 153.756 329.611 153.756C329.215 153.756 328.93 153.492 328.93 153.097C328.93 152.936 328.973 152.76 329.069 152.584C329.472 151.712 330.636 151.156 332.02 151.156C333.888 151.156 335.082 152.145 335.082 153.69V158.341C335.082 158.839 334.767 159.139 334.32 159.139C333.881 159.139 333.58 158.854 333.566 158.385V157.733H333.529C333.082 158.59 332.101 159.132 331.097 159.132ZM331.53 157.879C332.636 157.879 333.507 157.118 333.507 156.114V155.506L331.603 155.624C330.658 155.689 330.123 156.107 330.123 156.766C330.123 157.44 330.687 157.879 331.53 157.879ZM337.181 159.139C336.705 159.139 336.39 158.817 336.39 158.304V151.954C336.39 151.471 336.698 151.156 337.144 151.156C337.584 151.156 337.891 151.471 337.891 151.954V152.613H337.928C338.14 151.749 338.851 151.17 339.62 151.17C339.898 151.17 340.111 151.236 340.242 151.361C340.389 151.478 340.455 151.668 340.455 151.917C340.455 152.167 340.374 152.35 340.221 152.474C340.059 152.613 339.825 152.679 339.495 152.679C338.411 152.687 337.972 153.412 337.972 154.371V158.304C337.972 158.817 337.65 159.139 337.181 159.139ZM354.289 157.726C354.04 157.726 353.82 157.63 353.63 157.433L348.049 151.727C347.887 151.566 347.8 151.361 347.8 151.126C347.8 150.65 348.173 150.277 348.649 150.277C348.884 150.277 349.096 150.372 349.264 150.533L354.289 155.682L359.313 150.533C359.474 150.372 359.694 150.277 359.928 150.277C360.397 150.277 360.771 150.65 360.771 151.126C360.771 151.368 360.69 151.566 360.529 151.727L354.948 157.433C354.765 157.63 354.538 157.726 354.289 157.726Z" fill="#0068D7"/>
<defs>
<filter id="filter0_i_1897_9589" x="204" y="90" width="167" height="34" filterUnits="userSpaceOnUse" color-interpolation-filters="sRGB">
<feFlood flood-opacity="0" result="BackgroundImageFix"/>
<feBlend mode="normal" in="SourceGraphic" in2="BackgroundImageFix" result="shape"/>
<feColorMatrix in="SourceAlpha" type="matrix" values="0 0 0 0 0 0 0 0 0 0 0 0 0 0 0 0 0 0 127 0" result="hardAlpha"/>
<feOffset dy="-2"/>
<feGaussianBlur stdDeviation="2"/>
<feComposite in2="hardAlpha" operator="arithmetic" k2="-1" k3="1"/>
<feColorMatrix type="matrix" values="0 0 0 0 0.301961 0 0 0 0 0.603922 0 0 0 0 0.92549 0 0 0 0.15 0"/>
<feBlend mode="normal" in2="shape" result="effect1_innerShadow_1897_9589"/>
</filter>
</defs>
</svg>
