<svg width="112" height="77" viewBox="0 0 112 77" fill="none" xmlns="http://www.w3.org/2000/svg">
<g clip-path="url(#clip0_2741_12478)">
<rect width="112" height="77" fill="#9BC1EC"/>
<g filter="url(#filter0_i_2741_12478)">
<circle cx="43" cy="47" r="38" fill="#FCFDFE"/>
</g>
<circle opacity="0.5" cx="43.0002" cy="47.0002" r="25.3333" fill="#EDF5FF" stroke="#1E7BDE" stroke-width="1.01333"/>
<circle cx="55.5" cy="-1.5" r="25.5" fill="#1E7BDE"/>
<path d="M59.8807 13.7702C59.8807 14.0671 59.851 14.3559 59.7916 14.6365C59.7323 14.9118 59.6459 15.1763 59.5325 15.43H51.4601C51.3468 15.1763 51.2604 14.9118 51.2011 14.6365C51.1417 14.3559 51.112 14.0671 51.112 13.7702C51.112 13.171 51.2253 12.607 51.452 12.078C51.6842 11.549 51.9999 11.0821 52.3994 10.6773C52.8042 10.2724 53.2711 9.95397 53.8001 9.72186C54.3291 9.48976 54.8958 9.37371 55.5004 9.37371C56.0995 9.37371 56.6636 9.48976 57.1926 9.72186C57.7216 9.95397 58.1858 10.2724 58.5852 10.6773C58.9901 11.0821 59.3058 11.549 59.5325 12.078C59.7646 12.607 59.8807 13.171 59.8807 13.7702ZM46.8774 14.2317C46.6669 14.2317 46.4942 14.1696 46.3592 14.0455C46.2243 13.9159 46.1568 13.7594 46.1568 13.5759C46.1568 13.3924 46.2243 13.2385 46.3592 13.1144C46.4942 12.9848 46.6669 12.9201 46.8774 12.9201H48.8692C49.0797 12.9201 49.2525 12.9848 49.3874 13.1144C49.5223 13.2385 49.5925 13.3924 49.5979 13.5759C49.5979 13.7594 49.5277 13.9159 49.3874 14.0455C49.2525 14.1696 49.0797 14.2317 48.8692 14.2317H46.8774ZM50.3428 9.55993L48.934 8.15111C48.7828 7.99997 48.7046 7.83264 48.6992 7.64911C48.6992 7.46019 48.764 7.30366 48.8935 7.17951C49.023 7.05536 49.1796 6.99328 49.3631 6.99328C49.5466 6.99328 49.714 7.06885 49.8651 7.21999L51.2739 8.62881C51.4251 8.77455 51.5006 8.94188 51.5006 9.13081C51.506 9.31973 51.4467 9.47896 51.3225 9.60851C51.1984 9.73806 51.0391 9.80013 50.8448 9.79473C50.6559 9.78934 50.4885 9.71107 50.3428 9.55993ZM59.6702 9.60851C59.5406 9.48436 59.4786 9.32782 59.484 9.1389C59.4893 8.94458 59.5676 8.77455 59.7188 8.62881L61.1276 7.21999C61.2787 7.06885 61.446 6.99328 61.6296 6.99328C61.8185 6.98788 61.975 7.04996 62.0992 7.17951C62.2287 7.30905 62.2908 7.46559 62.2854 7.64911C62.2854 7.83264 62.2098 7.99997 62.0587 8.15111L60.6499 9.55993C60.5041 9.71107 60.3368 9.78934 60.1479 9.79473C59.959 9.79473 59.7997 9.73266 59.6702 9.60851ZM62.1235 14.2317C61.9184 14.2317 61.7456 14.1696 61.6053 14.0455C61.4703 13.9159 61.4002 13.7594 61.3948 13.5759C61.3948 13.3924 61.4649 13.2385 61.6053 13.1144C61.7456 12.9848 61.9184 12.9201 62.1235 12.9201H64.1153C64.3258 12.9201 64.4985 12.9848 64.6334 13.1144C64.7684 13.2385 64.8359 13.3924 64.8359 13.5759C64.8359 13.7594 64.7684 13.9159 64.6334 14.0455C64.4985 14.1696 64.3258 14.2317 64.1153 14.2317H62.1235ZM55.5004 7.88392C55.3169 7.88392 55.1603 7.81375 55.0308 7.6734C54.9012 7.53306 54.8365 7.36033 54.8365 7.15522V5.16343C54.8365 4.95292 54.9012 4.78019 55.0308 4.64525C55.1603 4.5103 55.3169 4.44283 55.5004 4.44283C55.6785 4.44283 55.8324 4.5103 55.9619 4.64525C56.0914 4.78019 56.1562 4.95292 56.1562 5.16343V7.15522C56.1562 7.36033 56.0914 7.53306 55.9619 7.6734C55.8324 7.80835 55.6785 7.87852 55.5004 7.88392ZM45.8249 17.6728C45.6359 17.6728 45.4713 17.6107 45.331 17.4866C45.1906 17.357 45.1204 17.2032 45.1204 17.0251C45.1204 16.8469 45.1906 16.6958 45.331 16.5717C45.4713 16.4421 45.6359 16.3773 45.8249 16.3773H65.1678C65.3567 16.3773 65.5214 16.4421 65.6617 16.5717C65.8021 16.6958 65.8722 16.8469 65.8722 17.0251C65.8722 17.2032 65.8021 17.357 65.6617 17.4866C65.5214 17.6107 65.3567 17.6728 65.1678 17.6728H45.8249Z" fill="#FCFDFE"/>
<path d="M101 13.6058L104.155 11.3887" stroke="#FCFDFE" stroke-width="5.14162" stroke-linecap="round"/>
<circle cx="91.1299" cy="20.1294" r="13.4968" transform="rotate(-35.0945 91.1299 20.1294)" fill="#FCFDFE"/>
<circle cx="91.2416" cy="20.2905" r="11.5686" transform="rotate(-35.0945 91.2416 20.2905)" fill="#77D3E5"/>
<path d="M89.3318 10.6094C89.3318 10.6094 89.3318 10.6094 89.3318 10.6094C88.9215 10.6608 88.5098 10.7582 88.1056 10.8789C84.9007 11.8062 81.9064 14.6508 81.4587 18.5675C81.3811 19.2436 81.3773 19.9253 81.4467 20.6022C81.7754 24.4853 84.6531 27.9153 88.0045 28.8924C88.3996 29.0155 88.8006 29.1131 89.1981 29.1587C88.9588 28.8419 88.7492 28.5106 88.5519 28.1803C86.8942 25.335 86.4606 22.7465 86.4911 20.305C86.4977 19.9135 86.5232 19.5349 86.5668 19.154C86.801 17.0581 87.4744 14.6173 88.7964 11.6969C88.9632 11.337 89.1371 10.9711 89.3318 10.6094Z" fill="url(#paint0_linear_2741_12478)"/>
<path d="M25.291 28.3121C25.291 28.3121 23.7696 25.2006 24.1036 23.5623C24.4376 21.9241 26.4785 20 26.4785 20" stroke="#612700" stroke-width="1.18745"/>
<path d="M32.6397 21.8013C28.6222 22.6896 25.6154 28.8168 25.6154 28.8168C25.6154 28.8168 19.2059 27.2234 15.7814 29.518C12.3569 31.8127 10.865 36.5336 12.9717 40.7424C15.0784 44.9512 25.3927 52.2473 27.7227 51.2652C30.0527 50.283 32.6397 47.0561 32.6397 47.0561C32.6397 47.0561 36.6127 47.8155 38.9616 47.0561C41.3104 46.2966 43.8789 34.4282 42.4737 29.518C41.0685 24.6079 36.6572 20.913 32.6397 21.8013Z" fill="#F8F2DF"/>
<path d="M32.6397 21.8013C28.6222 22.6896 25.6154 28.8168 25.6154 28.8168C25.6154 28.8168 19.2059 27.2234 15.7814 29.518C12.3569 31.8127 10.865 36.5336 12.9717 40.7424C15.0784 44.9512 25.3927 52.2473 27.7227 51.2652C30.0527 50.283 32.6397 47.0561 32.6397 47.0561C32.6397 47.0561 36.6127 47.8155 38.9616 47.0561C41.3104 46.2966 43.8789 34.4282 42.4737 29.518C41.0685 24.6079 36.6572 20.913 32.6397 21.8013Z" fill="url(#paint1_radial_2741_12478)" fill-opacity="0.1"/>
<path d="M32.6397 21.8013C28.6222 22.6896 25.6154 28.8168 25.6154 28.8168C25.6154 28.8168 19.2059 27.2234 15.7814 29.518C12.3569 31.8127 10.865 36.5336 12.9717 40.7424C15.0784 44.9512 25.3927 52.2473 27.7227 51.2652C30.0527 50.283 32.6397 47.0561 32.6397 47.0561C32.6397 47.0561 36.6127 47.8155 38.9616 47.0561C41.3104 46.2966 43.8789 34.4282 42.4737 29.518C41.0685 24.6079 36.6572 20.913 32.6397 21.8013Z" stroke="#DC4F4F" stroke-width="1.18745"/>
<path d="M30.7859 36.071C30.4415 36.4585 30.7859 38.4459 30.7859 38.4459C30.7859 38.4459 32.5975 37.1823 32.5671 36.6647C32.5366 36.1472 32.4652 35.6412 31.9733 35.4773C31.4815 35.3133 31.1303 35.6835 30.7859 36.071Z" fill="#CDB98B"/>
<path d="M27.6118 37.1901C28.1283 37.2349 29.2439 38.9153 29.2439 38.9153C29.2439 38.9153 27.0595 39.2424 26.7259 38.8455C26.3924 38.4486 26.0966 38.032 26.3412 37.5749C26.5858 37.1177 27.0953 37.1453 27.6118 37.1901Z" fill="#CDB98B"/>
<path d="M66.8374 35.0859C63.185 33.2631 57.0108 36.0649 57.0108 36.0649C57.0108 36.0649 53.0799 30.8607 48.9982 30.4795C44.9164 30.0984 40.7944 32.7703 39.7653 37.2914C38.7363 41.8124 42.0815 53.796 44.4939 54.4971C46.9064 55.1981 50.9306 54.347 50.9306 54.347C50.9306 54.347 53.511 57.3988 55.7976 58.2814C58.0842 59.164 67.5371 51.7108 69.548 47.0914C71.5588 42.4721 70.4899 36.9087 66.8374 35.0859Z" fill="#F8F2DF"/>
<path d="M66.8374 35.0859C63.185 33.2631 57.0108 36.0649 57.0108 36.0649C57.0108 36.0649 53.0799 30.8607 48.9982 30.4795C44.9164 30.0984 40.7944 32.7703 39.7653 37.2914C38.7363 41.8124 42.0815 53.796 44.4939 54.4971C46.9064 55.1981 50.9306 54.347 50.9306 54.347C50.9306 54.347 53.511 57.3988 55.7976 58.2814C58.0842 59.164 67.5371 51.7108 69.548 47.0914C71.5588 42.4721 70.4899 36.9087 66.8374 35.0859Z" fill="url(#paint2_radial_2741_12478)" fill-opacity="0.1"/>
<path d="M66.8374 35.0859C63.185 33.2631 57.0108 36.0649 57.0108 36.0649C57.0108 36.0649 53.0799 30.8607 48.9982 30.4795C44.9164 30.0984 40.7944 32.7703 39.7653 37.2914C38.7363 41.8124 42.0815 53.796 44.4939 54.4971C46.9064 55.1981 50.9306 54.347 50.9306 54.347C50.9306 54.347 53.511 57.3988 55.7976 58.2814C58.0842 59.164 67.5371 51.7108 69.548 47.0914C71.5588 42.4721 70.4899 36.9087 66.8374 35.0859Z" stroke="#DC4F4F" stroke-width="1.18745"/>
<path d="M56.3048 44.0525C55.7968 44.1563 54.8813 45.9535 54.8813 45.9535C54.8813 45.9535 57.0888 46.0279 57.3747 45.5954C57.6605 45.1628 57.9066 44.7151 57.6112 44.289C57.3157 43.863 56.8128 43.9488 56.3048 44.0525Z" fill="#CDB98B"/>
<path d="M53.0934 43.0461C53.4801 43.3916 53.3658 45.4053 53.3658 45.4053C53.3658 45.4053 51.4212 44.3579 51.3921 43.8402C51.363 43.3226 51.3759 42.8118 51.8457 42.5925C52.3155 42.3732 52.7068 42.7007 53.0934 43.0461Z" fill="#CDB98B"/>
<circle cx="24.6824" cy="57.7417" r="5.60447" transform="rotate(-31.7728 24.6824 57.7417)" fill="#C7CF49"/>
<circle cx="24.6824" cy="57.7417" r="5.60447" transform="rotate(-31.7728 24.6824 57.7417)" fill="url(#paint3_radial_2741_12478)" fill-opacity="0.7"/>
<circle cx="29.0677" cy="50.6331" r="5.60447" transform="rotate(-31.7728 29.0677 50.6331)" fill="#C7CF49"/>
<circle cx="29.0677" cy="50.6331" r="5.60447" transform="rotate(-31.7728 29.0677 50.6331)" fill="url(#paint4_radial_2741_12478)" fill-opacity="0.7"/>
<circle cx="33.0018" cy="56.9847" r="5.60447" transform="rotate(-31.7728 33.0018 56.9847)" fill="#C7CF49"/>
<circle cx="33.0018" cy="56.9847" r="5.60447" transform="rotate(-31.7728 33.0018 56.9847)" fill="url(#paint5_radial_2741_12478)" fill-opacity="0.7"/>
<circle cx="28.618" cy="64.0956" r="5.60447" transform="rotate(-31.7728 28.618 64.0956)" fill="#C7CF49"/>
<circle cx="28.618" cy="64.0956" r="5.60447" transform="rotate(-31.7728 28.618 64.0956)" fill="url(#paint6_radial_2741_12478)" fill-opacity="0.7"/>
<circle cx="37.9905" cy="47.3035" r="5.60447" transform="rotate(-31.7728 37.9905 47.3035)" fill="#C7CF49"/>
<circle cx="37.9905" cy="47.3035" r="5.60447" transform="rotate(-31.7728 37.9905 47.3035)" fill="url(#paint7_radial_2741_12478)" fill-opacity="0.7"/>
<circle cx="41.9251" cy="53.6565" r="5.60447" transform="rotate(-31.7728 41.9251 53.6565)" fill="#C7CF49"/>
<circle cx="41.9251" cy="53.6565" r="5.60447" transform="rotate(-31.7728 41.9251 53.6565)" fill="url(#paint8_radial_2741_12478)" fill-opacity="0.7"/>
<circle cx="38.5242" cy="62.3544" r="5.60447" transform="rotate(-31.7728 38.5242 62.3544)" fill="#C7CF49"/>
<circle cx="38.5242" cy="62.3544" r="5.60447" transform="rotate(-31.7728 38.5242 62.3544)" fill="url(#paint9_radial_2741_12478)" fill-opacity="0.7"/>
<circle cx="46.8431" cy="61.5966" r="5.60447" transform="rotate(-31.7728 46.8431 61.5966)" fill="#C7CF49"/>
<circle cx="46.8431" cy="61.5966" r="5.60447" transform="rotate(-31.7728 46.8431 61.5966)" fill="url(#paint10_radial_2741_12478)" fill-opacity="0.7"/>
</g>
<defs>
<filter id="filter0_i_2741_12478" x="5" y="9" width="76" height="76" filterUnits="userSpaceOnUse" color-interpolation-filters="sRGB">
<feFlood flood-opacity="0" result="BackgroundImageFix"/>
<feBlend mode="normal" in="SourceGraphic" in2="BackgroundImageFix" result="shape"/>
<feColorMatrix in="SourceAlpha" type="matrix" values="0 0 0 0 0 0 0 0 0 0 0 0 0 0 0 0 0 0 127 0" result="hardAlpha"/>
<feOffset/>
<feGaussianBlur stdDeviation="2.02667"/>
<feComposite in2="hardAlpha" operator="arithmetic" k2="-1" k3="1"/>
<feColorMatrix type="matrix" values="0 0 0 0 0.905882 0 0 0 0 0.933333 0 0 0 0 0.968627 0 0 0 1 0"/>
<feBlend mode="normal" in2="shape" result="effect1_innerShadow_2741_12478"/>
</filter>
<linearGradient id="paint0_linear_2741_12478" x1="80.8521" y1="19.2781" x2="94.8774" y2="19.8462" gradientUnits="userSpaceOnUse">
<stop stop-color="#A9E9F5"/>
<stop offset="1" stop-color="#A9E9F5" stop-opacity="0"/>
</linearGradient>
<radialGradient id="paint1_radial_2741_12478" cx="0" cy="0" r="1" gradientUnits="userSpaceOnUse" gradientTransform="translate(27.3631 36.4671) rotate(90) scale(14.7981 15.3631)">
<stop stop-color="#DC4F4F" stop-opacity="0"/>
<stop offset="1" stop-color="#DC4F4F"/>
</radialGradient>
<radialGradient id="paint2_radial_2741_12478" cx="0" cy="0" r="1" gradientTransform="matrix(-9.32071 11.2861 -11.8277 -9.56123 53.5378 42.9872)" gradientUnits="userSpaceOnUse">
<stop stop-color="#DC4F4F" stop-opacity="0"/>
<stop offset="1" stop-color="#DC4F4F"/>
</radialGradient>
<radialGradient id="paint3_radial_2741_12478" cx="0" cy="0" r="1" gradientTransform="matrix(11.0944 3.99756 -3.59342 10.7576 22.8143 57.7417)" gradientUnits="userSpaceOnUse">
<stop stop-color="#ABAF67"/>
<stop offset="1" stop-color="#D1D68B"/>
</radialGradient>
<radialGradient id="paint4_radial_2741_12478" cx="0" cy="0" r="1" gradientTransform="matrix(11.0944 3.99756 -3.59342 10.7576 27.1995 50.6331)" gradientUnits="userSpaceOnUse">
<stop stop-color="#ABAF67"/>
<stop offset="1" stop-color="#D1D68B"/>
</radialGradient>
<radialGradient id="paint5_radial_2741_12478" cx="0" cy="0" r="1" gradientTransform="matrix(11.0944 3.99756 -3.59342 10.7576 31.1336 56.9847)" gradientUnits="userSpaceOnUse">
<stop stop-color="#ABAF67"/>
<stop offset="1" stop-color="#D1D68B"/>
</radialGradient>
<radialGradient id="paint6_radial_2741_12478" cx="0" cy="0" r="1" gradientTransform="matrix(11.0944 3.99756 -3.59342 10.7576 26.7498 64.0956)" gradientUnits="userSpaceOnUse">
<stop stop-color="#ABAF67"/>
<stop offset="1" stop-color="#D1D68B"/>
</radialGradient>
<radialGradient id="paint7_radial_2741_12478" cx="0" cy="0" r="1" gradientTransform="matrix(11.0944 3.99756 -3.59342 10.7576 36.1224 47.3035)" gradientUnits="userSpaceOnUse">
<stop stop-color="#ABAF67"/>
<stop offset="1" stop-color="#D1D68B"/>
</radialGradient>
<radialGradient id="paint8_radial_2741_12478" cx="0" cy="0" r="1" gradientTransform="matrix(11.0944 3.99756 -3.59342 10.7576 40.057 53.6565)" gradientUnits="userSpaceOnUse">
<stop stop-color="#ABAF67"/>
<stop offset="1" stop-color="#D1D68B"/>
</radialGradient>
<radialGradient id="paint9_radial_2741_12478" cx="0" cy="0" r="1" gradientTransform="matrix(11.0944 3.99756 -3.59342 10.7576 36.6561 62.3544)" gradientUnits="userSpaceOnUse">
<stop stop-color="#ABAF67"/>
<stop offset="1" stop-color="#D1D68B"/>
</radialGradient>
<radialGradient id="paint10_radial_2741_12478" cx="0" cy="0" r="1" gradientTransform="matrix(11.0944 3.99756 -3.59342 10.7576 44.9749 61.5966)" gradientUnits="userSpaceOnUse">
<stop stop-color="#ABAF67"/>
<stop offset="1" stop-color="#D1D68B"/>
</radialGradient>
<clipPath id="clip0_2741_12478">
<rect width="112" height="77" fill="white"/>
</clipPath>
</defs>
</svg>
