<svg width="112" height="77" viewBox="0 0 112 77" fill="none" xmlns="http://www.w3.org/2000/svg">
<g clip-path="url(#clip0_2741_12572)">
<rect width="112" height="77" fill="#9BC1EC"/>
<g filter="url(#filter0_i_2741_12572)">
<circle cx="43" cy="47" r="38" fill="#FCFDFE"/>
</g>
<circle opacity="0.5" cx="43.0002" cy="47.0002" r="25.3333" fill="#EDF5FF" stroke="#1E7BDE" stroke-width="1.01333"/>
<circle cx="56.5" cy="-1.5" r="25.5" fill="#1E7BDE"/>
<path d="M56.5004 6.05407C56.306 6.05407 56.1387 5.9866 55.9984 5.85165C55.8634 5.71131 55.796 5.54398 55.796 5.34966V3.60887C55.796 3.41455 55.8634 3.24992 55.9984 3.11497C56.1387 2.97463 56.306 2.90446 56.5004 2.90446C56.6893 2.90446 56.8512 2.97463 56.9862 3.11497C57.1265 3.24992 57.1967 3.41455 57.1967 3.60887V5.34966C57.1967 5.54398 57.1265 5.71131 56.9862 5.85165C56.8512 5.9866 56.6893 6.05407 56.5004 6.05407ZM60.4677 7.71389C60.3328 7.57894 60.2653 7.41431 60.2653 7.21999C60.2653 7.02567 60.3328 6.86104 60.4677 6.72609L61.7146 5.4792C61.8496 5.34426 62.0142 5.27679 62.2085 5.27679C62.4028 5.27679 62.5675 5.34426 62.7024 5.4792C62.8374 5.61415 62.9048 5.78148 62.9048 5.9812C62.9048 6.17552 62.8374 6.34015 62.7024 6.4751L61.4636 7.71389C61.3287 7.85423 61.1614 7.9244 60.9616 7.9244C60.7673 7.919 60.6027 7.84883 60.4677 7.71389ZM62.1114 11.6894C62.1114 11.495 62.1788 11.3304 62.3138 11.1955C62.4541 11.0551 62.6215 10.9849 62.8158 10.9849H64.5566C64.7455 10.9849 64.9074 11.0551 65.0424 11.1955C65.1827 11.3304 65.2529 11.495 65.2529 11.6894C65.2529 11.8783 65.1827 12.0429 65.0424 12.1833C64.9074 12.3182 64.7455 12.3857 64.5566 12.3857H62.8158C62.6215 12.3857 62.4541 12.3182 62.3138 12.1833C62.1788 12.0429 62.1114 11.8783 62.1114 11.6894ZM60.4677 15.6648C60.6027 15.5353 60.7673 15.4705 60.9616 15.4705C61.156 15.4705 61.3206 15.5353 61.4555 15.6648L62.7024 16.9117C62.8374 17.0413 62.9048 17.2032 62.9048 17.3975C62.9048 17.5918 62.8374 17.7592 62.7024 17.8995C62.5675 18.0291 62.4028 18.0938 62.2085 18.0938C62.0142 18.0992 61.8496 18.0372 61.7146 17.9076L60.4677 16.6526C60.3328 16.5231 60.2653 16.3611 60.2653 16.1668C60.2653 15.9725 60.3328 15.8052 60.4677 15.6648ZM56.5004 17.3246C56.6893 17.3246 56.8512 17.3948 56.9862 17.5352C57.1265 17.6701 57.1967 17.832 57.1967 18.021V19.7698C57.1967 19.9588 57.1265 20.1207 56.9862 20.2556C56.8512 20.396 56.6893 20.4662 56.5004 20.4662C56.306 20.4662 56.1387 20.396 55.9984 20.2556C55.8634 20.1207 55.796 19.9588 55.796 19.7698V18.021C55.796 17.832 55.8634 17.6701 55.9984 17.5352C56.1387 17.3948 56.306 17.3246 56.5004 17.3246ZM52.5249 15.6648C52.6544 15.8052 52.7192 15.9725 52.7192 16.1668C52.7192 16.3611 52.6517 16.5231 52.5168 16.6526L51.278 17.8995C51.1431 18.0291 50.9757 18.0911 50.776 18.0857C50.5817 18.0857 50.4171 18.021 50.2821 17.8914C50.1526 17.7511 50.0878 17.5837 50.0878 17.3894C50.0878 17.1951 50.1553 17.0332 50.2902 16.9036L51.529 15.6648C51.6639 15.5353 51.8286 15.4705 52.0229 15.4705C52.2226 15.4705 52.3899 15.5353 52.5249 15.6648ZM50.8813 11.6894C50.8813 11.8783 50.8111 12.0429 50.6708 12.1833C50.5358 12.3182 50.3712 12.3857 50.1769 12.3857H48.4361C48.2471 12.3857 48.0825 12.3182 47.9422 12.1833C47.8072 12.0429 47.7398 11.8783 47.7398 11.6894C47.7398 11.495 47.8072 11.3304 47.9422 11.1955C48.0825 11.0551 48.2471 10.9849 48.4361 10.9849H50.1769C50.3712 10.9849 50.5358 11.0551 50.6708 11.1955C50.8111 11.3304 50.8813 11.495 50.8813 11.6894ZM52.5168 7.71389C52.3819 7.84883 52.2172 7.9163 52.0229 7.9163C51.8286 7.9163 51.6639 7.84883 51.529 7.71389L50.2902 6.467C50.1607 6.33745 50.0959 6.17552 50.0959 5.9812C50.0959 5.78148 50.1634 5.61415 50.2983 5.4792C50.4333 5.34426 50.5979 5.27949 50.7922 5.28488C50.9919 5.28488 51.1566 5.34966 51.2861 5.4792L52.5249 6.72609C52.6544 6.85564 52.7192 7.02027 52.7192 7.21999C52.7192 7.41971 52.6517 7.58434 52.5168 7.71389ZM56.4923 15.8106C55.9255 15.8106 55.3911 15.7053 54.8891 15.4948C54.3925 15.2789 53.9553 14.982 53.5775 14.6042C53.1996 14.2263 52.9027 13.7891 52.6868 13.2925C52.4763 12.7905 52.3711 12.2561 52.3711 11.6894C52.3711 11.1172 52.4763 10.5828 52.6868 10.0862C52.9027 9.58962 53.1996 9.1524 53.5775 8.77455C53.9553 8.39671 54.3925 8.09983 54.8891 7.88392C55.3911 7.66801 55.9255 7.56005 56.4923 7.56005C57.059 7.56005 57.5907 7.66801 58.0873 7.88392C58.5893 8.09983 59.0292 8.39671 59.4071 8.77455C59.7849 9.1524 60.0791 9.58962 60.2896 10.0862C60.5055 10.5828 60.6135 11.1172 60.6135 11.6894C60.6135 12.2561 60.5055 12.7905 60.2896 13.2925C60.0791 13.7891 59.7849 14.2263 59.4071 14.6042C59.0292 14.982 58.5893 15.2789 58.0873 15.4948C57.5907 15.7053 57.059 15.8106 56.4923 15.8106Z" fill="#FCFDFE"/>
<path d="M101 13.6063L104.155 11.3892" stroke="#FCFDFE" stroke-width="5.14162" stroke-linecap="round"/>
<circle cx="91.1304" cy="20.1299" r="13.4968" transform="rotate(-35.0945 91.1304 20.1299)" fill="#FCFDFE"/>
<circle cx="91.2416" cy="20.291" r="11.5686" transform="rotate(-35.0945 91.2416 20.291)" fill="#EF9BA8"/>
<path d="M89.3318 10.6099C89.3318 10.6099 89.3318 10.6099 89.3318 10.6099C88.9215 10.6613 88.5098 10.7587 88.1056 10.8794C84.9007 11.8067 81.9064 14.6512 81.4587 18.568C81.3811 19.2441 81.3773 19.9258 81.4467 20.6027C81.7754 24.4858 84.6531 27.9158 88.0045 28.8929C88.3996 29.016 88.8006 29.1136 89.1981 29.1592C88.9588 28.8424 88.7492 28.5111 88.5519 28.1808C86.8942 25.3355 86.4606 22.747 86.4911 20.3055C86.4977 19.914 86.5232 19.5354 86.5668 19.1544C86.801 17.0586 87.4744 14.6178 88.7964 11.6974C88.9632 11.3375 89.1371 10.9716 89.3318 10.6099Z" fill="url(#paint0_linear_2741_12572)"/>
<path d="M18.8425 23.345C13.8009 24.6959 13.1841 31.0366 13.1841 31.0366C13.1841 31.0366 16.7611 50.1483 18.7806 51.923C20.8001 53.6977 44.6858 46.5256 45.4288 44.7827C46.1718 43.0397 39.8323 23.8962 39.8323 23.8962C39.8323 23.8962 36.848 18.5204 32.5267 19.6783C28.2053 20.8362 25.9034 23.7688 25.9034 23.7688C25.9034 23.7688 23.884 21.9941 18.8425 23.345Z" fill="url(#paint1_radial_2741_12572)" stroke="#C19C60" stroke-width="1.49126"/>
<path d="M54.756 31.2252C49.7364 29.7947 45.9504 34.9183 45.9504 34.9183C45.9504 34.9183 39.2031 53.1536 40.0243 55.7136C40.8455 58.2736 65.0235 64.3883 66.5562 63.2745C68.089 62.1607 72.4824 42.4792 72.4824 42.4792C72.4824 42.4792 72.683 36.3339 68.3805 35.1078C64.078 33.8817 60.5967 35.2155 60.5967 35.2155C60.5967 35.2155 59.7756 32.6556 54.756 31.2252Z" fill="url(#paint2_radial_2741_12572)" stroke="#C19C60" stroke-width="1.49126"/>
<path d="M22.4359 27.9507C20.679 28.9279 21.4812 31.5688 21.2118 32.9509C20.9425 34.3329 20.1843 35.2223 20.6403 36.5108C21.0964 37.7993 22.8517 37.5697 23.208 38.8893C23.5642 40.2089 17.8143 40.5075 18.3969 42.6114C18.9795 44.7153 21.7059 43.4468 23.7639 44.1752C25.8219 44.9037 31.7366 49.4045 32.7719 48.4304C33.8072 47.4563 33.4684 46.2421 34.4168 45.1832C35.3651 44.1242 39.8681 44.4529 39.9885 42.8472C40.1088 41.2416 37.4265 40.7415 37.7336 39.3953C38.0407 38.0492 39.7132 38.3165 40.4789 37.1675C41.2446 36.0185 41.1546 32.3508 39.8419 29.7618C38.5292 27.1728 30.5069 22.9095 29.0269 24.5144C27.547 26.1192 29.3658 28.9856 27.4631 29.8813C25.5604 30.7771 24.1928 26.9735 22.4359 27.9507Z" fill="url(#paint3_radial_2741_12572)"/>
<path d="M63.3911 37.8631C62.0345 36.3795 59.6503 37.77 58.2434 37.8271C56.8365 37.8842 55.796 37.352 54.6477 38.0933C53.4994 38.8346 54.1282 40.4895 52.9266 41.1409C51.7249 41.7923 50.1064 36.2668 48.1939 37.3196C46.2814 38.3724 48.1454 40.7321 47.912 42.9027C47.6786 45.0733 44.6656 51.8676 45.8525 52.6499C47.0394 53.4322 48.1425 52.8222 49.3919 53.5003C50.6412 54.1784 51.3615 58.6356 52.9515 58.3818C54.5416 58.128 54.4086 55.4027 55.7893 55.3906C57.1699 55.3785 57.2962 57.0675 58.591 57.5471C59.8857 58.0267 63.4335 57.092 65.6493 55.2168C67.8651 53.3417 70.1602 44.5515 68.2569 43.4823C66.3535 42.413 63.9848 44.8447 62.6738 43.2003C61.3628 41.5559 64.7477 39.3468 63.3911 37.8631Z" fill="url(#paint4_radial_2741_12572)"/>
<circle cx="25.6824" cy="59.7423" r="5.60447" transform="rotate(-31.7728 25.6824 59.7423)" fill="#8E4489"/>
<circle cx="25.6824" cy="59.7423" r="5.60447" transform="rotate(-31.7728 25.6824 59.7423)" fill="url(#paint5_radial_2741_12572)" fill-opacity="0.7"/>
<circle cx="30.0677" cy="52.6337" r="5.60447" transform="rotate(-31.7728 30.0677 52.6337)" fill="#8E4489"/>
<circle cx="30.0677" cy="52.6337" r="5.60447" transform="rotate(-31.7728 30.0677 52.6337)" fill="url(#paint6_radial_2741_12572)" fill-opacity="0.7"/>
<circle cx="34.0018" cy="58.9852" r="5.60447" transform="rotate(-31.7728 34.0018 58.9852)" fill="#8E4489"/>
<circle cx="34.0018" cy="58.9852" r="5.60447" transform="rotate(-31.7728 34.0018 58.9852)" fill="url(#paint7_radial_2741_12572)" fill-opacity="0.7"/>
<circle cx="29.618" cy="66.0961" r="5.60447" transform="rotate(-31.7728 29.618 66.0961)" fill="#8E4489"/>
<circle cx="29.618" cy="66.0961" r="5.60447" transform="rotate(-31.7728 29.618 66.0961)" fill="url(#paint8_radial_2741_12572)" fill-opacity="0.7"/>
<circle cx="38.9905" cy="49.304" r="5.60447" transform="rotate(-31.7728 38.9905 49.304)" fill="#8E4489"/>
<circle cx="38.9905" cy="49.304" r="5.60447" transform="rotate(-31.7728 38.9905 49.304)" fill="url(#paint9_radial_2741_12572)" fill-opacity="0.7"/>
<circle cx="42.9251" cy="55.6571" r="5.60447" transform="rotate(-31.7728 42.9251 55.6571)" fill="#8E4489"/>
<circle cx="42.9251" cy="55.6571" r="5.60447" transform="rotate(-31.7728 42.9251 55.6571)" fill="url(#paint10_radial_2741_12572)" fill-opacity="0.7"/>
<circle cx="39.5242" cy="64.3549" r="5.60447" transform="rotate(-31.7728 39.5242 64.3549)" fill="#8E4489"/>
<circle cx="39.5242" cy="64.3549" r="5.60447" transform="rotate(-31.7728 39.5242 64.3549)" fill="url(#paint11_radial_2741_12572)" fill-opacity="0.7"/>
<circle cx="47.8431" cy="63.5971" r="5.60447" transform="rotate(-31.7728 47.8431 63.5971)" fill="#8E4489"/>
<circle cx="47.8431" cy="63.5971" r="5.60447" transform="rotate(-31.7728 47.8431 63.5971)" fill="url(#paint12_radial_2741_12572)" fill-opacity="0.7"/>
</g>
<defs>
<filter id="filter0_i_2741_12572" x="5" y="9" width="76" height="76" filterUnits="userSpaceOnUse" color-interpolation-filters="sRGB">
<feFlood flood-opacity="0" result="BackgroundImageFix"/>
<feBlend mode="normal" in="SourceGraphic" in2="BackgroundImageFix" result="shape"/>
<feColorMatrix in="SourceAlpha" type="matrix" values="0 0 0 0 0 0 0 0 0 0 0 0 0 0 0 0 0 0 127 0" result="hardAlpha"/>
<feOffset/>
<feGaussianBlur stdDeviation="2.02667"/>
<feComposite in2="hardAlpha" operator="arithmetic" k2="-1" k3="1"/>
<feColorMatrix type="matrix" values="0 0 0 0 0.905882 0 0 0 0 0.933333 0 0 0 0 0.968627 0 0 0 1 0"/>
<feBlend mode="normal" in2="shape" result="effect1_innerShadow_2741_12572"/>
</filter>
<linearGradient id="paint0_linear_2741_12572" x1="80.8521" y1="19.2786" x2="94.8774" y2="19.8467" gradientUnits="userSpaceOnUse">
<stop stop-color="#F7BDC6"/>
<stop offset="1" stop-color="#F7BDC6" stop-opacity="0"/>
</linearGradient>
<radialGradient id="paint1_radial_2741_12572" cx="0" cy="0" r="1" gradientUnits="userSpaceOnUse" gradientTransform="translate(28.648 35.7291) rotate(75) scale(14.5 14.3853)">
<stop stop-color="#F8F2DF"/>
<stop offset="1" stop-color="#FFF6DA"/>
</radialGradient>
<radialGradient id="paint2_radial_2741_12572" cx="0" cy="0" r="1" gradientUnits="userSpaceOnUse" gradientTransform="translate(56.8083 46.8873) rotate(105.906) scale(14.5 14.3853)">
<stop stop-color="#F8F2DF"/>
<stop offset="1" stop-color="#FFF6DA"/>
</radialGradient>
<radialGradient id="paint3_radial_2741_12572" cx="0" cy="0" r="1" gradientUnits="userSpaceOnUse" gradientTransform="translate(29.8704 36.9035) rotate(132.81) scale(12.2577 11.6414)">
<stop stop-color="#F5E2A3"/>
<stop offset="1" stop-color="#FBE086"/>
</radialGradient>
<radialGradient id="paint4_radial_2741_12572" cx="0" cy="0" r="1" gradientUnits="userSpaceOnUse" gradientTransform="translate(56.3975 47.1645) rotate(-150.544) scale(12.2577 11.6414)">
<stop stop-color="#F5E2A3"/>
<stop offset="1" stop-color="#FBE086"/>
</radialGradient>
<radialGradient id="paint5_radial_2741_12572" cx="0" cy="0" r="1" gradientTransform="matrix(11.0944 3.99756 -3.59342 10.7576 23.8143 59.7423)" gradientUnits="userSpaceOnUse">
<stop stop-color="#8E4489"/>
<stop offset="1" stop-color="#C87EC3"/>
</radialGradient>
<radialGradient id="paint6_radial_2741_12572" cx="0" cy="0" r="1" gradientTransform="matrix(11.0944 3.99756 -3.59342 10.7576 28.1995 52.6337)" gradientUnits="userSpaceOnUse">
<stop stop-color="#8E4489"/>
<stop offset="1" stop-color="#C87EC3"/>
</radialGradient>
<radialGradient id="paint7_radial_2741_12572" cx="0" cy="0" r="1" gradientTransform="matrix(11.0944 3.99756 -3.59342 10.7576 32.1336 58.9852)" gradientUnits="userSpaceOnUse">
<stop stop-color="#8E4489"/>
<stop offset="1" stop-color="#C87EC3"/>
</radialGradient>
<radialGradient id="paint8_radial_2741_12572" cx="0" cy="0" r="1" gradientTransform="matrix(11.0944 3.99756 -3.59342 10.7576 27.7498 66.0961)" gradientUnits="userSpaceOnUse">
<stop stop-color="#8E4489"/>
<stop offset="1" stop-color="#C87EC3"/>
</radialGradient>
<radialGradient id="paint9_radial_2741_12572" cx="0" cy="0" r="1" gradientTransform="matrix(11.0944 3.99756 -3.59342 10.7576 37.1224 49.304)" gradientUnits="userSpaceOnUse">
<stop stop-color="#8E4489"/>
<stop offset="1" stop-color="#C87EC3"/>
</radialGradient>
<radialGradient id="paint10_radial_2741_12572" cx="0" cy="0" r="1" gradientTransform="matrix(11.0944 3.99756 -3.59342 10.7576 41.057 55.6571)" gradientUnits="userSpaceOnUse">
<stop stop-color="#8E4489"/>
<stop offset="1" stop-color="#C87EC3"/>
</radialGradient>
<radialGradient id="paint11_radial_2741_12572" cx="0" cy="0" r="1" gradientTransform="matrix(11.0944 3.99756 -3.59342 10.7576 37.6561 64.3549)" gradientUnits="userSpaceOnUse">
<stop stop-color="#8E4489"/>
<stop offset="1" stop-color="#C87EC3"/>
</radialGradient>
<radialGradient id="paint12_radial_2741_12572" cx="0" cy="0" r="1" gradientTransform="matrix(11.0944 3.99756 -3.59342 10.7576 45.9749 63.5971)" gradientUnits="userSpaceOnUse">
<stop stop-color="#8E4489"/>
<stop offset="1" stop-color="#C87EC3"/>
</radialGradient>
<clipPath id="clip0_2741_12572">
<rect width="112" height="77" fill="white"/>
</clipPath>
</defs>
</svg>
