<svg width="397" height="486" viewBox="0 0 397 486" fill="none" xmlns="http://www.w3.org/2000/svg">
<g filter="url(#filter0_i_3345_9197)">
<path d="M378.794 268.738L396.045 282.253L396.553 437.922C387.758 431.248 368.646 416.999 362.557 413.395C356.469 409.791 348.858 406.554 345.813 405.386L195.625 466.953C194.61 468.622 191.464 472.359 186.999 473.961C182.534 475.563 177.359 474.962 175.329 474.461C155.71 432.75 113.427 348.925 101.249 347.323C89.072 345.722 80.2771 337.646 77.4019 333.809C72.125 318.592 81.6302 310.45 87.0424 308.281L83.998 301.774C78.4167 302.775 63.7022 299.772 57.6135 289.26C52.7426 280.851 58.6283 270.073 62.1801 265.735L61.6727 264.734C56.8017 263.532 43.0527 251 39.3474 244.211C37.3178 232.198 46.2817 218.85 51.0174 213.678L52.5396 205.669C41.7152 202.166 19.6605 194.958 18.0368 194.157C16.4131 193.356 15.3307 191.487 14.9924 190.653L10.9333 187.149C9.91849 182.134 10.9333 175.126 13.9777 170.631L24.6329 167.628C27.0684 166.026 31.7365 165.292 33.766 165.125L265.138 184.146C265.645 185.648 267.675 188.351 271.734 187.149C276.808 185.648 266.152 170.131 262.601 162.122C259.049 154.114 259.049 150.61 256.005 142.601C253.569 136.194 248.563 134.926 246.364 135.093L225.561 77.5304C227.083 70.0227 232.766 58.6098 239.261 59.0103C247.379 59.5108 254.482 77.5304 260.064 86.0396C264.529 92.847 282.389 108.564 286.956 115.071C289.493 123.08 319.936 168.629 319.936 168.629C319.936 168.629 324.007 172.494 326.532 175.637C329.058 178.78 332.621 187.149 332.621 187.149C332.621 187.149 346.438 215.767 355.454 231.698C364.47 247.629 378.794 268.738 378.794 268.738Z" fill="#A05959"/>
</g>
<rect width="211.724" height="439.073" rx="19.7888" transform="matrix(-0.938453 0.345407 0.345407 0.938453 198.693 0)" fill="#4D9AEC"/>
<rect width="196.931" height="404.984" rx="15" transform="matrix(-0.938453 0.345407 0.345407 0.938453 193.986 8.62891)" fill="white"/>
<mask id="mask0_3345_9197" style="mask-type:alpha" maskUnits="userSpaceOnUse" x="13" y="12" width="317" height="441">
<rect width="196.931" height="404.984" rx="15" transform="matrix(-0.938453 0.345407 0.345407 0.938453 193.986 8.62891)" fill="white"/>
</mask>
<g mask="url(#mask0_3345_9197)">
<path d="M164.879 179.606C151.882 181.997 139.962 188.406 130.799 197.929C121.637 207.451 115.692 219.608 113.802 232.688C111.913 245.767 114.174 259.109 120.267 270.836C126.36 282.563 135.978 292.082 147.767 298.054C159.556 304.027 172.921 306.15 185.98 304.126C199.039 302.102 211.134 296.033 220.562 286.772C229.99 277.512 236.275 265.527 238.533 252.506C240.791 239.486 238.907 226.084 233.147 214.19C233.147 214.19 229.892 208.125 224.348 211.087C218.804 214.048 221.779 219.696 221.779 219.696C226.387 229.211 227.894 239.932 226.088 250.348C224.282 260.765 219.254 270.353 211.711 277.761C204.169 285.169 194.493 290.025 184.046 291.644C173.598 293.264 162.906 291.565 153.475 286.787C144.044 282.009 136.35 274.393 131.475 265.012C126.601 255.631 124.792 244.957 126.303 234.493C127.815 224.03 132.571 214.304 139.901 206.686C147.232 199.068 156.767 193.941 167.164 192.028C167.164 192.028 174.066 190.38 173.013 184.551C171.96 178.722 164.879 179.606 164.879 179.606Z" fill="#11B8AD"/>
<path d="M188.077 280.268C196.084 277.783 203.109 272.848 208.163 266.159C213.218 259.47 216.046 251.364 216.251 242.983C216.456 234.602 214.026 226.368 209.305 219.44C204.583 212.512 197.807 207.24 189.931 204.367C182.055 201.493 173.476 201.162 165.403 203.421C157.329 205.68 150.167 210.415 144.926 216.959C139.686 223.502 136.629 231.525 136.188 239.897C135.747 248.269 137.944 256.569 142.468 263.627C142.468 263.627 144.949 266.448 148.671 264.106C152.394 261.763 150.901 258.221 150.901 258.221C147.507 252.928 145.86 246.703 146.191 240.424C146.521 234.145 148.814 228.128 152.744 223.22C156.675 218.312 162.046 214.761 168.102 213.067C174.157 211.373 180.591 211.621 186.498 213.776C192.405 215.931 197.487 219.885 201.028 225.081C204.569 230.277 206.391 236.453 206.238 242.738C206.084 249.024 203.963 255.104 200.172 260.12C196.381 265.137 191.112 268.838 185.107 270.702C185.107 270.702 180.19 272.088 181.393 276.825C182.596 281.562 188.077 280.268 188.077 280.268Z" fill="#4D9AEC"/>
<circle cx="16.1876" cy="16.1876" r="16.1876" transform="matrix(-0.937333 0.348435 0.348435 0.937333 199.641 188.789)" fill="#4D9AEC"/>
<circle cx="18.7436" cy="18.7436" r="18.7436" transform="matrix(-0.937333 0.348435 0.348435 0.937333 168.905 267.483)" fill="#11B8AD"/>
<g opacity="0.15">
<path d="M130.231 -6.2886C81.2068 2.73201 36.2463 26.905 1.68369 62.8243C-32.8789 98.7436 -55.3029 144.6 -62.4302 193.935C-69.5575 243.271 -61.0291 293.599 -38.0458 337.832C-15.0624 382.065 21.218 417.973 65.685 440.5C110.152 463.027 160.565 471.037 209.824 463.403C259.084 455.768 304.707 432.874 340.269 397.943C375.831 363.013 399.539 317.807 408.054 268.692C416.57 219.578 409.465 169.028 387.739 124.165C387.739 124.165 375.463 101.286 354.551 112.457C333.639 123.629 344.859 144.931 344.859 144.931C362.24 180.821 367.925 221.26 361.113 260.552C354.3 299.844 335.333 336.009 306.884 363.953C278.434 391.897 241.936 410.213 202.528 416.32C163.121 422.428 122.79 416.02 87.2162 397.999C51.6427 379.977 22.6186 351.25 4.23193 315.864C-14.1547 280.478 -20.9772 240.215 -15.2754 200.747C-9.57352 161.278 8.36588 124.593 36.016 95.8575C63.6661 67.1221 99.6329 47.7852 138.852 40.5687C138.852 40.5687 164.887 34.3529 160.914 12.3654C156.941 -9.62205 130.231 -6.2886 130.231 -6.2886Z" fill="#11B8AD"/>
<path d="M217.711 373.401C247.913 364.025 274.412 345.411 293.477 320.181C312.542 294.95 323.212 264.375 323.984 232.761C324.756 201.147 315.592 170.087 297.782 143.956C279.971 117.825 254.412 97.9395 224.705 87.1C194.997 76.2605 162.637 75.0133 132.183 83.534C101.73 92.0547 74.7159 109.914 54.947 134.597C35.1782 159.279 23.6502 189.542 21.9868 221.121C20.3234 252.701 28.6083 284.007 45.6747 310.63C45.6747 310.63 55.0305 321.27 69.0727 312.435C83.115 303.6 77.4819 290.24 77.4819 290.24C64.6821 270.273 58.4684 246.793 59.7159 223.109C60.9635 199.424 69.6095 176.727 84.4361 158.215C99.2628 139.703 119.523 126.309 142.363 119.918C165.204 113.528 189.474 114.463 211.754 122.593C234.035 130.722 253.204 145.637 266.562 165.235C279.92 184.833 286.793 208.128 286.214 231.838C285.635 255.549 277.632 278.48 263.334 297.403C249.035 316.326 229.16 330.286 206.509 337.318C206.509 337.318 187.959 342.545 192.497 360.412C197.035 378.279 217.711 373.401 217.711 373.401Z" fill="#4D9AEC"/>
<circle cx="61.0597" cy="61.0597" r="61.0597" transform="matrix(-0.937333 0.348435 0.348435 0.937333 261.345 28.376)" fill="#4D9AEC"/>
<circle cx="70.7007" cy="70.7007" r="70.7007" transform="matrix(-0.937333 0.348435 0.348435 0.937333 145.42 325.184)" fill="#11B8AD"/>
</g>
</g>
<defs>
<filter id="filter0_i_3345_9197" x="10.5527" y="59" width="386" height="416" filterUnits="userSpaceOnUse" color-interpolation-filters="sRGB">
<feFlood flood-opacity="0" result="BackgroundImageFix"/>
<feBlend mode="normal" in="SourceGraphic" in2="BackgroundImageFix" result="shape"/>
<feColorMatrix in="SourceAlpha" type="matrix" values="0 0 0 0 0 0 0 0 0 0 0 0 0 0 0 0 0 0 127 0" result="hardAlpha"/>
<feOffset/>
<feGaussianBlur stdDeviation="10.55"/>
<feComposite in2="hardAlpha" operator="arithmetic" k2="-1" k3="1"/>
<feColorMatrix type="matrix" values="0 0 0 0 0.576471 0 0 0 0 0.176471 0 0 0 0 0.176471 0 0 0 1 0"/>
<feBlend mode="normal" in2="shape" result="effect1_innerShadow_3345_9197"/>
</filter>
</defs>
</svg>
