<svg width="112" height="77" viewBox="0 0 112 77" fill="none" xmlns="http://www.w3.org/2000/svg">
<g clip-path="url(#clip0_2741_12601)">
<rect width="112" height="77" fill="#9BC1EC"/>
<g filter="url(#filter0_i_2741_12601)">
<circle cx="43" cy="47" r="38" fill="#FCFDFE"/>
</g>
<circle opacity="0.5" cx="43.0002" cy="47.0002" r="25.3333" fill="#EDF5FF" stroke="#1E7BDE" stroke-width="1.01333"/>
<ellipse cx="60.765" cy="36.2141" rx="13.765" ry="13.2144" fill="url(#paint0_radial_2741_12601)"/>
<ellipse cx="60.7655" cy="36.2137" rx="9.36018" ry="8.80958" fill="#E8E8E8"/>
<path d="M54.709 31.8085C54.6975 31.8601 54.6876 31.911 54.6791 31.9611C54.6028 32.4122 54.6472 32.8029 54.8124 33.1333C54.8124 33.1333 54.8124 33.1333 54.8124 33.1333C54.9775 33.4636 55.2635 33.7336 55.6702 33.9432C55.7153 33.9665 55.762 33.9891 55.8102 34.0109C55.8216 33.9593 55.8316 33.9084 55.8401 33.8583C55.9164 33.4072 55.872 33.0164 55.7068 32.6861C55.7068 32.6861 55.7068 32.6861 55.7068 32.6861C55.5416 32.3557 55.2557 32.0857 54.849 31.8761C54.8038 31.8528 54.7572 31.8303 54.709 31.8085Z" fill="#D9D9D9"/>
<path d="M59.8213 30.7076C59.7724 30.7276 59.7249 30.7485 59.6789 30.7701C59.2648 30.9647 58.9692 31.224 58.7921 31.5481C58.7921 31.5481 58.7921 31.5481 58.7921 31.5481C58.6149 31.8722 58.5562 32.2611 58.616 32.7147C58.6226 32.7651 58.6308 32.8163 58.6403 32.8683C58.6893 32.8483 58.7367 32.8274 58.7827 32.8058C59.1968 32.6112 59.4924 32.3519 59.6695 32.0278C59.6695 32.0278 59.6695 32.0278 59.6695 32.0278C59.8467 31.7037 59.9054 31.3148 59.8456 30.8612C59.839 30.8108 59.8309 30.7596 59.8213 30.7076Z" fill="#D9D9D9"/>
<path d="M59.8213 39.5174C59.7724 39.5374 59.7249 39.5582 59.6789 39.5798C59.2648 39.7744 58.9692 40.0338 58.7921 40.3579C58.7921 40.3579 58.7921 40.3579 58.7921 40.3579C58.6149 40.682 58.5562 41.0708 58.616 41.5244C58.6226 41.5748 58.6308 41.626 58.6403 41.678C58.6893 41.658 58.7367 41.6372 58.7827 41.6156C59.1968 41.421 59.4924 41.1616 59.6695 40.8375C59.6695 40.8375 59.6695 40.8375 59.6695 40.8375C59.8467 40.5134 59.9054 40.1246 59.8456 39.671C59.839 39.6206 59.8309 39.5694 59.8213 39.5174Z" fill="#D9D9D9"/>
<path d="M67.5293 32.9103C67.4804 32.9303 67.4329 32.9512 67.3869 32.9728C66.9728 33.1674 66.6772 33.4267 66.5001 33.7508C66.5001 33.7508 66.5001 33.7508 66.5001 33.7508C66.3229 34.0749 66.2642 34.4638 66.324 34.9174C66.3307 34.9678 66.3388 35.019 66.3483 35.071C66.3973 35.051 66.4447 35.0301 66.4907 35.0085C66.9048 34.8139 67.2004 34.5545 67.3776 34.2304C67.3776 34.2304 67.3776 34.2304 67.3776 34.2304C67.5547 33.9063 67.6134 33.5175 67.5536 33.0639C67.547 33.0135 67.5389 32.9623 67.5293 32.9103Z" fill="#D9D9D9"/>
<path d="M64.2256 29.6068C64.1767 29.6268 64.1292 29.6476 64.0832 29.6693C63.6691 29.8639 63.3735 30.1232 63.1964 30.4473C63.1964 30.4473 63.1964 30.4473 63.1964 30.4473C63.0192 30.7714 62.9605 31.1603 63.0203 31.6139C63.0269 31.6643 63.035 31.7155 63.0446 31.7675C63.0935 31.7474 63.141 31.7266 63.187 31.705C63.6011 31.5104 63.8967 31.251 64.0738 30.9269C64.0738 30.9269 64.0738 30.9269 64.0738 30.9269C64.251 30.6028 64.3097 30.214 64.2499 29.7604C64.2433 29.71 64.2352 29.6588 64.2256 29.6068Z" fill="#D9D9D9"/>
<path d="M54.3149 36.2138C54.266 36.2339 54.2185 36.2547 54.1725 36.2763C53.7585 36.4709 53.4629 36.7303 53.2857 37.0544C53.2857 37.0544 53.2857 37.0544 53.2857 37.0544C53.1086 37.3785 53.0499 37.7673 53.1097 38.2209C53.1163 38.2713 53.1244 38.3225 53.134 38.3745C53.1829 38.3545 53.2304 38.3337 53.2764 38.312C53.6904 38.1174 53.9861 37.8581 54.1632 37.534C54.1632 37.534 54.1632 37.534 54.1632 37.534C54.3403 37.2099 54.399 36.821 54.3393 36.3674C54.3326 36.317 54.3245 36.2658 54.3149 36.2138Z" fill="#D9D9D9"/>
<path d="M58.7192 35.113C58.6703 35.133 58.6228 35.1538 58.5768 35.1754C58.1628 35.3701 57.8672 35.6294 57.69 35.9535C57.69 35.9535 57.69 35.9535 57.69 35.9535C57.5129 36.2776 57.4542 36.6665 57.514 37.12C57.5206 37.1704 57.5287 37.2216 57.5383 37.2736C57.5872 37.2536 57.6347 37.2328 57.6807 37.2112C58.0947 37.0166 58.3903 36.7572 58.5675 36.4331C58.5675 36.4331 58.5675 36.4331 58.5675 36.4331C58.7446 36.109 58.8033 35.7202 58.7436 35.2666C58.7369 35.2162 58.7288 35.165 58.7192 35.113Z" fill="#D9D9D9"/>
<path d="M63.125 40.6182C63.0761 40.6382 63.0286 40.659 62.9826 40.6807C62.5685 40.8753 62.2729 41.1346 62.0958 41.4587C62.0958 41.4587 62.0958 41.4587 62.0958 41.4587C61.9186 41.7828 61.8599 42.1717 61.9197 42.6253C61.9264 42.6757 61.9345 42.7269 61.944 42.7789C61.993 42.7588 62.0404 42.738 62.0864 42.7164C62.5005 42.5218 62.7961 42.2624 62.9733 41.9383C62.9733 41.9383 62.9733 41.9383 62.9733 41.9383C63.1504 41.6142 63.2091 41.2254 63.1493 40.7718C63.1427 40.7214 63.1346 40.6702 63.125 40.6182Z" fill="#D9D9D9"/>
<path d="M65.3267 37.3147C65.2777 37.3347 65.2303 37.3555 65.1843 37.3771C64.7702 37.5717 64.4746 37.8311 64.2974 38.1552C64.2974 38.1552 64.2974 38.1552 64.2974 38.1552C64.1203 38.4793 64.0616 38.8681 64.1214 39.3217C64.128 39.3721 64.1361 39.4233 64.1457 39.4753C64.1946 39.4553 64.2421 39.4345 64.2881 39.4129C64.7022 39.2183 64.9978 38.9589 65.1749 38.6348C65.1749 38.6348 65.1749 38.6348 65.1749 38.6348C65.3521 38.3107 65.4107 37.9219 65.351 37.4683C65.3443 37.4179 65.3362 37.3667 65.3267 37.3147Z" fill="#D9D9D9"/>
<path d="M67.5293 39.5174C67.4804 39.5374 67.4329 39.5582 67.3869 39.5798C66.9728 39.7744 66.6772 40.0338 66.5001 40.3579C66.5001 40.3579 66.5001 40.3579 66.5001 40.3579C66.3229 40.682 66.2642 41.0708 66.324 41.5244C66.3307 41.5748 66.3388 41.626 66.3483 41.678C66.3973 41.658 66.4447 41.6372 66.4907 41.6156C66.9048 41.421 67.2004 41.1616 67.3776 40.8375C67.3776 40.8375 67.3776 40.8375 67.3776 40.8375C67.5547 40.5134 67.6134 40.1246 67.5536 39.671C67.547 39.6206 67.5389 39.5694 67.5293 39.5174Z" fill="#D9D9D9"/>
<path d="M56.5176 39.5174C56.4686 39.5374 56.4212 39.5582 56.3752 39.5798C55.9611 39.7744 55.6655 40.0338 55.4884 40.3579C55.4884 40.3579 55.4884 40.3579 55.4884 40.3579C55.3112 40.682 55.2525 41.0708 55.3123 41.5244C55.3189 41.5748 55.327 41.626 55.3366 41.678C55.3855 41.658 55.433 41.6372 55.479 41.6156C55.8931 41.421 56.1887 41.1616 56.3658 40.8375C56.3658 40.8375 56.3658 40.8375 56.3658 40.8375C56.543 40.5134 56.6017 40.1246 56.5419 39.671C56.5352 39.6206 56.5271 39.5694 56.5176 39.5174Z" fill="#D9D9D9"/>
<path d="M63.125 34.0111C63.0761 34.0312 63.0286 34.052 62.9826 34.0736C62.5685 34.2682 62.2729 34.5276 62.0958 34.8517C62.0958 34.8517 62.0958 34.8517 62.0958 34.8517C61.9186 35.1758 61.8599 35.5646 61.9197 36.0182C61.9264 36.0686 61.9345 36.1198 61.944 36.1718C61.993 36.1518 62.0404 36.131 62.0864 36.1093C62.5005 35.9147 62.7961 35.6554 62.9733 35.3313C62.9733 35.3313 62.9733 35.3313 62.9733 35.3313C63.1504 35.0072 63.2091 34.6183 63.1493 34.1647C63.1427 34.1143 63.1346 34.0631 63.125 34.0111Z" fill="#D9D9D9"/>
<path d="M30 63.458L24 49.458L26 46.958L33.5 61.958C33.5 61.958 35.9259 62.3219 36 63.458C36.0741 64.5942 33 63.7441 32.5 63.958C32 64.1719 30.625 67.708 30 66.958C29.375 66.208 30 63.458 30 63.458Z" fill="#E3E3E3"/>
<path d="M23.5 54.458C22.3814 54.8497 22.3166 50.1184 22.3166 50.1184C22.3166 50.1184 14.3976 43.3832 11.7337 39.9863C9.06974 36.5893 9.94102 30.0188 14.0421 26.9837C18.1432 23.9486 23.4981 25.0502 27.0438 29.2915C30.5894 33.5328 28.2833 46.5344 28.2833 46.5344C28.2833 46.5344 32.4046 49.1292 31.5 49.958C30.5954 50.7868 28.3584 49.9869 28.3584 49.9869C28.3584 49.9869 30.2669 54.5234 28.4711 55.1657C26.6753 55.808 24.9435 51.7883 24.9435 51.7883C24.9435 51.7883 24.6186 54.0663 23.5 54.458Z" fill="url(#paint1_radial_2741_12601)"/>
<path d="M32.0448 56.2823L34.0195 41.1793L37.0146 40.048L35.8206 56.776C35.8206 56.776 37.7221 58.3256 37.2067 59.3408C36.6913 60.3561 34.4799 58.0577 33.9407 57.9868C33.4015 57.916 30.4161 60.2573 30.2607 59.2934C30.1053 58.3295 32.0448 56.2823 32.0448 56.2823Z" fill="#DDDDDD"/>
<path d="M31.0407 45.2259C29.8787 44.9927 32.2348 40.8892 32.2348 40.8892C32.2348 40.8892 28.8553 31.0581 28.2951 26.7777C27.7349 22.4972 31.8338 17.2887 36.9092 16.7681C41.9846 16.2475 46.03 19.925 46.9184 25.3812C47.8067 30.8375 39.195 40.8475 39.195 40.8475C39.195 40.8475 41.418 45.1807 40.2172 45.4326C39.0164 45.6845 37.4997 43.856 37.4997 43.856C37.4997 43.856 36.8291 48.7317 34.9567 48.3689C33.0843 48.006 33.6435 43.665 33.6435 43.665C33.6435 43.665 32.2028 45.4592 31.0407 45.2259Z" fill="url(#paint2_radial_2741_12601)"/>
<mask id="mask0_2741_12601" style="mask-type:alpha" maskUnits="userSpaceOnUse" x="34" y="40" width="22" height="32">
<path d="M34.1576 60.5733C32.7445 63.6091 41.3907 70.2414 41.3907 70.2414L48.0718 71.3528C48.0718 71.3528 55.209 66.6393 54.8877 64.3037C54.5664 61.968 52.2171 62.2093 51.9577 59.866C51.6983 57.5226 56.322 55.8267 55.9213 53.0008C55.5206 50.1749 50.1896 49.6008 50.5354 48.0606C50.8811 46.5204 52.9611 46.5841 53.2037 45.0244C53.4462 43.4646 50.9602 40.983 50.9602 40.983C50.9602 40.983 46.2486 40.8298 45.5458 42.4338C44.8431 44.0378 45.7795 44.2792 45.3338 45.9728C44.8881 47.6663 40.2595 44.7168 38.1497 47.3171C36.0398 49.9174 40.1452 52.8523 38.6988 55.8724C37.2525 58.8925 35.5707 57.5375 34.1576 60.5733Z" fill="url(#paint3_radial_2741_12601)"/>
</mask>
<g mask="url(#mask0_2741_12601)">
<path d="M34.1576 60.5733C32.7445 63.6091 41.3907 70.2414 41.3907 70.2414L48.0718 71.3528C48.0718 71.3528 55.209 66.6393 54.8877 64.3037C54.5664 61.968 52.2171 62.2093 51.9577 59.866C51.6983 57.5226 56.322 55.8267 55.9213 53.0008C55.5206 50.1749 50.1896 49.6008 50.5354 48.0606C50.8811 46.5204 52.9611 46.5841 53.2037 45.0244C53.4462 43.4646 50.9602 40.983 50.9602 40.983C50.9602 40.983 46.2486 40.8298 45.5458 42.4338C44.8431 44.0378 45.7795 44.2792 45.3338 45.9728C44.8881 47.6663 40.2595 44.7168 38.1497 47.3171C36.0398 49.9174 40.1452 52.8523 38.6988 55.8724C37.2525 58.8925 35.5707 57.5375 34.1576 60.5733Z" fill="url(#paint4_radial_2741_12601)"/>
<path d="M50.7378 40.855L43.0241 70.7335L44.2531 70.8072L50.7378 40.855Z" fill="#8CA068"/>
<path d="M38.9033 59.1499L44.5687 66.9079L44.7008 66.0707L38.9033 59.1499Z" fill="#8CA068"/>
<path d="M41.3999 50.4195L46.7694 57.6372L46.8432 56.4082L41.3999 50.4195Z" fill="#8CA068"/>
<path d="M52.6216 63.5592L44.9067 66.9152L45.2593 66.1959L52.6216 63.5592Z" fill="#8CA068"/>
<path d="M54.1665 54.2774L46.7707 57.6367L47.3213 56.6831L54.1665 54.2774Z" fill="#8CA068"/>
</g>
<mask id="mask1_2741_12601" style="mask-type:alpha" maskUnits="userSpaceOnUse" x="44" y="45" width="27" height="27">
<path d="M45.8346 55.5419C43.0917 57.4627 47.257 67.5321 47.257 67.5321L52.4848 71.8384C52.4848 71.8384 61.0228 71.3305 61.9137 69.1476C62.8046 66.9647 60.65 65.9977 61.5984 63.8392C62.5468 61.6808 67.3985 62.5269 68.4661 59.88C69.5336 57.233 65.206 54.0675 66.2762 52.9072C67.3465 51.7469 69.1153 52.8433 70.106 51.6144C71.0967 50.3854 70.1866 46.9928 70.1866 46.9928C70.1866 46.9928 66.1845 44.5017 64.7732 45.5386C63.3619 46.5754 64.0517 47.2531 62.8182 48.4962C61.5846 49.7392 59.054 44.869 55.9259 46.064C52.7978 47.2591 54.8829 51.8547 52.119 53.7453C49.3552 55.6359 48.5775 53.6211 45.8346 55.5419Z" fill="url(#paint5_radial_2741_12601)"/>
</mask>
<g mask="url(#mask1_2741_12601)">
<path d="M45.8346 55.5419C43.0917 57.4627 47.257 67.5321 47.257 67.5321L52.4848 71.8384C52.4848 71.8384 61.0228 71.3305 61.9137 69.1476C62.8046 66.9647 60.65 65.9977 61.5984 63.8392C62.5468 61.6808 67.3985 62.5269 68.4661 59.88C69.5336 57.233 65.206 54.0675 66.2762 52.9072C67.3465 51.7469 69.1153 52.8433 70.106 51.6144C71.0967 50.3854 70.1866 46.9928 70.1866 46.9928C70.1866 46.9928 66.1845 44.5017 64.7732 45.5386C63.3619 46.5754 64.0517 47.2531 62.8182 48.4962C61.5846 49.7392 59.054 44.869 55.9259 46.064C52.7978 47.2591 54.8829 51.8547 52.119 53.7453C49.3552 55.6359 48.5775 53.6211 45.8346 55.5419Z" fill="url(#paint6_radial_2741_12601)"/>
<path d="M70.0581 46.769L48.4248 68.7741L49.4518 69.4531L70.0581 46.769Z" fill="#8CA068"/>
<path d="M50.6553 56.6845L51.6766 66.2365L52.21 65.5778L50.6553 56.6845Z" fill="#8CA068"/>
<path d="M57.188 50.376L58.2236 59.3121L58.9026 58.2851L57.188 50.376Z" fill="#8CA068"/>
<path d="M60.3252 67.3687L51.9665 66.4124L52.6319 65.9661L60.3252 67.3687Z" fill="#8CA068"/>
<path d="M66.3071 60.1061L58.223 59.3124L59.177 58.7624L66.3071 60.1061Z" fill="#8CA068"/>
</g>
<path d="M104 14.6064L107.155 12.3894" stroke="#FCFDFE" stroke-width="5.14162" stroke-linecap="round"/>
<circle cx="94.1299" cy="21.1301" r="13.4968" transform="rotate(-35.0945 94.1299 21.1301)" fill="#FCFDFE"/>
<circle cx="94.2416" cy="21.2912" r="11.5686" transform="rotate(-35.0945 94.2416 21.2912)" fill="#F1F0CD"/>
<path d="M92.3318 11.6101C92.3318 11.6101 92.3318 11.6101 92.3318 11.6101C91.9215 11.6615 91.5098 11.7589 91.1056 11.8796C87.9007 12.8069 84.9064 15.6515 84.4587 19.5682C84.3811 20.2443 84.3773 20.926 84.4467 21.6029C84.7754 25.486 87.6531 28.916 91.0045 29.8931C91.3996 30.0162 91.8006 30.1138 92.1981 30.1594C91.9588 29.8426 91.7492 29.5113 91.5519 29.181C89.8942 26.3357 89.4606 23.7472 89.4911 21.3057C89.4977 20.9142 89.5232 20.5356 89.5668 20.1547C89.801 18.0588 90.4744 15.618 91.7964 12.6976C91.9632 12.3377 92.1371 11.9718 92.3318 11.6101Z" fill="url(#paint7_linear_2741_12601)"/>
<circle cx="56.5" cy="-1.5" r="25.5" fill="#1E7BDE"/>
<path d="M59.2174 14.6985C59.5767 14.6985 59.9185 14.6673 60.2428 14.6048C60.567 14.5384 60.8424 14.4681 61.0689 14.3939C61.1236 14.3743 61.1685 14.3607 61.2037 14.3528C61.2428 14.345 61.2818 14.3411 61.3209 14.3411C61.4029 14.3411 61.4791 14.3743 61.5494 14.4407C61.6236 14.5071 61.6607 14.595 61.6607 14.7044C61.6607 14.7318 61.6549 14.7786 61.6431 14.845C61.6353 14.9075 61.6197 14.9739 61.5963 15.0443C61.3463 15.6771 60.9576 16.2532 60.4303 16.7728C59.9068 17.2884 59.2818 17.7005 58.5553 18.0091C57.8326 18.3177 57.0513 18.472 56.2115 18.472C55.3756 18.472 54.5904 18.3138 53.856 17.9974C53.1256 17.6849 52.483 17.2513 51.9283 16.6966C51.3736 16.1419 50.9381 15.4993 50.6217 14.7689C50.3092 14.0345 50.1529 13.2493 50.1529 12.4134C50.1529 11.6204 50.3033 10.8587 50.6041 10.1282C50.9088 9.39386 51.3306 8.74542 51.8697 8.18292C52.4127 7.61652 53.0435 7.18878 53.7623 6.89972C53.8287 6.87238 53.8931 6.8548 53.9556 6.84698C54.0221 6.83917 54.0709 6.83527 54.1021 6.83527C54.2193 6.83527 54.3072 6.87042 54.3658 6.94073C54.4244 7.01105 54.4537 7.08527 54.4537 7.16339C54.4537 7.19073 54.4498 7.22784 54.442 7.27472C54.4342 7.31769 54.4166 7.37238 54.3892 7.43878C54.3189 7.59894 54.2564 7.79816 54.2017 8.03644C54.1471 8.27081 54.1021 8.51886 54.067 8.78058C54.0357 9.0423 54.0201 9.29425 54.0201 9.53644C54.0201 10.3333 54.1412 11.0501 54.3834 11.6868C54.6256 12.3196 54.9732 12.8607 55.4263 13.3099C55.8834 13.7591 56.4303 14.1028 57.067 14.3411C57.7076 14.5794 58.4244 14.6985 59.2174 14.6985Z" fill="#FCFDFE"/>
</g>
<defs>
<filter id="filter0_i_2741_12601" x="5" y="9" width="76" height="76" filterUnits="userSpaceOnUse" color-interpolation-filters="sRGB">
<feFlood flood-opacity="0" result="BackgroundImageFix"/>
<feBlend mode="normal" in="SourceGraphic" in2="BackgroundImageFix" result="shape"/>
<feColorMatrix in="SourceAlpha" type="matrix" values="0 0 0 0 0 0 0 0 0 0 0 0 0 0 0 0 0 0 127 0" result="hardAlpha"/>
<feOffset/>
<feGaussianBlur stdDeviation="2.02667"/>
<feComposite in2="hardAlpha" operator="arithmetic" k2="-1" k3="1"/>
<feColorMatrix type="matrix" values="0 0 0 0 0.905882 0 0 0 0 0.933333 0 0 0 0 0.968627 0 0 0 1 0"/>
<feBlend mode="normal" in2="shape" result="effect1_innerShadow_2741_12601"/>
</filter>
<radialGradient id="paint0_radial_2741_12601" cx="0" cy="0" r="1" gradientUnits="userSpaceOnUse" gradientTransform="translate(60.765 36.2141) rotate(90) scale(13.2144 13.765)">
<stop stop-color="#D9D9D9"/>
<stop offset="1" stop-color="#DDDDDD"/>
</radialGradient>
<radialGradient id="paint1_radial_2741_12601" cx="0" cy="0" r="1" gradientUnits="userSpaceOnUse" gradientTransform="translate(16.5 33.958) rotate(75.6753) scale(22.9213 17.0251)">
<stop stop-color="#F5C78B"/>
<stop offset="1" stop-color="#D99F54"/>
</radialGradient>
<radialGradient id="paint2_radial_2741_12601" cx="0" cy="0" r="1" gradientUnits="userSpaceOnUse" gradientTransform="translate(35.4686 24.0211) rotate(106.323) scale(22.9213 17.0251)">
<stop stop-color="#F5C78B"/>
<stop offset="1" stop-color="#D99F54"/>
</radialGradient>
<radialGradient id="paint3_radial_2741_12601" cx="0" cy="0" r="1" gradientUnits="userSpaceOnUse" gradientTransform="translate(46.6434 55.8824) rotate(120) scale(15.0617 11.6771)">
<stop stop-color="#85BE73"/>
<stop offset="1" stop-color="#7FB26F"/>
</radialGradient>
<radialGradient id="paint4_radial_2741_12601" cx="0" cy="0" r="1" gradientUnits="userSpaceOnUse" gradientTransform="translate(46.6434 55.8824) rotate(120) scale(15.0617 11.6771)">
<stop stop-color="#BBD888"/>
<stop offset="1" stop-color="#9FB47B"/>
</radialGradient>
<radialGradient id="paint5_radial_2741_12601" cx="0" cy="0" r="1" gradientUnits="userSpaceOnUse" gradientTransform="translate(58.9917 57.7305) rotate(150.036) scale(15.0617 11.6771)">
<stop stop-color="#85BE73"/>
<stop offset="1" stop-color="#7FB26F"/>
</radialGradient>
<radialGradient id="paint6_radial_2741_12601" cx="0" cy="0" r="1" gradientUnits="userSpaceOnUse" gradientTransform="translate(58.9917 57.7305) rotate(150.036) scale(15.0617 11.6771)">
<stop stop-color="#BBD888"/>
<stop offset="1" stop-color="#9FB47B"/>
</radialGradient>
<linearGradient id="paint7_linear_2741_12601" x1="83.8521" y1="20.2788" x2="97.8774" y2="20.8469" gradientUnits="userSpaceOnUse">
<stop stop-color="#FAFAEB"/>
<stop offset="1" stop-color="#FAFAEB" stop-opacity="0"/>
</linearGradient>
<clipPath id="clip0_2741_12601">
<rect width="112" height="77" fill="white"/>
</clipPath>
</defs>
</svg>
