<svg width="165" height="167" viewBox="0 0 165 167" fill="none" xmlns="http://www.w3.org/2000/svg">
<path d="M85.4391 123.16C76.9931 123.624 68.6144 121.427 61.4829 116.878C54.3515 112.329 48.8267 105.658 45.6866 97.8033C42.5466 89.949 41.9495 81.3075 43.9795 73.096C46.0095 64.8845 50.5643 57.5166 57.0024 52.0302C63.4405 46.5437 71.4374 43.2151 79.867 42.5131C88.2965 41.8111 96.7339 43.7712 103.991 48.1171C111.248 52.4631 116.958 58.9761 120.319 66.7387C123.679 74.5013 124.519 83.1225 122.722 91.388C122.722 91.388 121.368 94.9276 117.024 94.0213C112.68 93.115 112.847 89.2403 112.847 89.2403C114.195 83.0412 113.565 76.5753 111.044 70.7533C108.524 64.9314 104.241 60.0466 98.7985 56.7872C93.3558 53.5277 87.0278 52.0577 80.7056 52.5842C74.3835 53.1106 68.3858 55.6071 63.5572 59.722C58.7287 63.8368 55.3126 69.3627 53.7901 75.5213C52.2676 81.6799 52.7154 88.161 55.0704 94.0517C57.4254 99.9425 61.569 104.946 66.9176 108.358C72.2662 111.769 78.5503 113.417 84.8848 113.069C84.8848 113.069 90.0227 112.651 90.5502 117.553C91.0776 122.456 85.4391 123.16 85.4391 123.16Z" fill="#3188E4"/>
<circle cx="58.677" cy="57.0536" r="16.3324" fill="#3188E4"/>
<path d="M70.0848 19.809C83.217 17.5015 96.7424 19.3718 108.756 25.1563C120.769 30.9407 130.665 40.348 137.05 52.0531C143.435 63.7582 145.987 77.1714 144.347 90.4035C142.708 103.636 136.958 116.02 127.909 125.812C118.859 135.604 106.966 142.311 93.9046 144.988C80.8427 147.665 67.2703 146.177 55.0987 140.734C42.9271 135.29 32.7698 126.166 26.0572 114.645C19.3446 103.125 16.4147 89.7891 17.6808 76.516C17.6808 76.516 18.6263 69.6358 24.9106 70.4876C31.1948 71.3395 30.367 77.7261 30.367 77.7261C29.3542 88.3446 31.6977 99.0132 37.0678 108.23C42.4379 117.446 50.5638 124.745 60.3011 129.1C70.0383 133.455 80.8963 134.645 91.3458 132.504C101.795 130.362 111.31 124.997 118.549 117.163C125.789 109.329 130.388 99.4217 131.7 88.836C133.012 78.2503 130.97 67.5197 125.862 58.1556C120.754 48.7916 112.837 41.2657 103.227 36.6382C93.616 32.0106 82.7962 30.5146 72.2904 32.3605C72.2904 32.3605 65.1837 33.2285 64.1307 27.3455C63.0776 21.4625 70.0848 19.809 70.0848 19.809Z" fill="#56D5CC"/>
<circle cx="116.081" cy="123.241" r="18.9112" fill="#56D5CC"/>
</svg>
